<?xml version="1.0" standalone="no"?>
<!DOCTYPE svg PUBLIC "-//W3C//DTD SVG 20010904//EN"
 "http://www.w3.org/TR/2001/REC-SVG-20010904/DTD/svg10.dtd">
<svg version="1.0" xmlns="http://www.w3.org/2000/svg"
 width="300.0pt" height="162.0pt" viewBox="0 0 300.0 162.0" preserveAspectRatio="xMidYMid meet">
<metadata>
Created by potrace 1.10, written by Peter Selinger 2001-2011
</metadata>
<g transform="translate(0.0,162.0) scale(0.10,-0.10)" fill="#000000" stroke="none">

<path d="M762 1531 l3 -60 -70 -6 c-73 -7 -143 -20 -151 -28 -8 -8 8 -37 21 -37 15 0 27 -78 16 -98 -4 -8 -25 -24 -47 -36 -21 -12 -45 -33 -53 -48 -17 -29 -18 -19 34 -380 25 -177 24 -215 -7 -254 -5 -7 -9 -27 -10 -47 -1 -27 11 -52 55 -114 64 -91 81 -105 162 -129 45 -12 85 -15 170 -12 100 4 114 2 124 -13 10 -17 13 -17 64 0 69 24 97 42 97 62 0 9 16 29 36 44 42 32 114 173 114 224 0 17 -11 48 -24 69 -33 50 -34 63 -41 332 l-6 235 -28 25 c-16 14 -44 34 -63 45 -28 17 -33 27 -36 64 -2 32 1 46 15 56 34 25 0 38 -111 43 l-105 5 -3 56 -3 56 -78 3 -79 3 4 -60z m133 29 c-3 -5 -33 -10 -66 -10 -33 0 -59 4 -59 10 0 6 29 10 66 10 41 0 63 -4 59 -10z m-103 -55 c-2 -19 -6 -35 -8 -35 -2 0 -4 16 -4 35 0 19 4 35 8 35 4 0 6 -16 4 -35z m24 -7 l-5 -43 13 45 13 45 11 -45 12 -45 -5 45 c-2 25 -1 39 2 31 5 -11 7 -11 14 0 6 9 7 -3 4 -31 l-5 -45 14 45 15 45 -2 -47 -1 -48 -50 -1 c-28 -1 -62 -4 -76 -8 -14 -4 25 -6 85 -5 61 1 123 7 138 13 16 6 47 8 70 4 l42 -6 -30 -9 c-38 -12 -403 -18 -447 -8 l-33 7 45 7 c25 4 70 8 100 10 45 2 56 6 58 22 11 72 27 92 18 22z m154 -42 c0 -2 -13 -6 -29 -8 -17 -2 -28 -1 -25 4 5 8 54 12 54 4z m154 -20 c-3 -8 -17 -17 -32 -20 -46 -12 -465 -19 -502 -9 -24 6 25 8 150 5 186 -4 362 9 368 28 2 5 8 10 13 10 4 0 6 -6 3 -14z m-20 -68 c-1 -43 -1 -43 -50 -55 -100 -26 -404 -29 -441 -5 -5 4 -13 24 -17 45 l-7 37 203 1 c166 1 266 6 308 18 3 0 5 -18 4 -41z m45 -78 c21 -11 22 -14 8 -21 -54 -31 -325 -53 -477 -39 -63 5 -118 14 -123 19 -14 14 33 52 53 45 59 -22 414 -11 483 15 12 5 24 5 27 1 3 -4 16 -13 29 -20z m66 -46 c24 -22 26 -28 14 -39 -41 -41 -271 -69 -503 -62 -244 7 -286 25 -216 92 17 16 30 24 30 17 0 -50 491 -48 605 3 41 18 38 18 70 -11z m20 -182 c0 -70 -4 -133 -9 -141 -6 -9 -5 -12 2 -7 6 4 11 -2 11 -14 1 -11 1 -30 2 -41 0 -12 -4 -25 -8 -28 -4 -4 -7 -4 -5 -2 1 2 -6 13 -15 24 -16 18 -16 20 -1 14 19 -7 19 13 -1 37 -13 16 -6 40 10 31 5 -4 9 -1 9 4 0 6 -5 11 -11 11 -5 0 -7 5 -3 12 4 7 3 8 -4 4 -13 -8 -16 6 -4 18 4 4 7 17 7 29 1 12 5 28 9 36 7 11 5 13 -10 6 -46 -19 -153 -45 -211 -51 -35 -4 -66 -10 -69 -15 -2 -4 -11 -6 -19 -2 -8 3 -15 0 -15 -7 0 -6 5 -8 10 -5 6 3 10 1 10 -5 0 -7 5 -6 14 3 12 11 34 14 66 8 3 -1 -2 -5 -10 -11 -9 -5 -19 -5 -26 1 -8 6 -13 5 -17 -4 -4 -10 2 -13 18 -11 32 3 47 13 39 26 -4 6 1 8 11 6 10 -1 20 -9 23 -17 3 -8 0 -11 -5 -8 -6 4 -18 -2 -28 -13 -14 -15 -21 -17 -32 -9 -7 7 -17 9 -20 5 -10 -10 19 -27 35 -21 8 3 12 0 9 -7 -2 -7 -9 -12 -15 -11 -5 1 -13 -5 -16 -14 -6 -14 -4 -14 19 1 14 9 30 14 35 11 6 -3 10 -2 10 4 0 5 -8 15 -17 20 -10 6 -13 11 -7 11 5 0 15 -4 22 -10 9 -7 9 -7 2 2 -13 15 -13 31 -1 23 6 -3 16 1 23 9 11 12 20 8 59 -30 41 -40 47 -43 59 -29 11 13 11 18 0 28 -9 9 -11 9 -6 0 9 -16 -11 -26 -21 -11 -4 7 -8 15 -9 18 -3 15 -24 60 -29 60 -2 0 0 -12 5 -26 8 -19 7 -25 -2 -22 -20 7 -16 53 4 52 10 -1 15 2 12 7 -3 5 6 9 20 9 14 0 28 -5 32 -12 5 -8 2 -9 -9 -5 -24 9 -42 -27 -22 -43 11 -9 19 -10 28 -1 10 8 14 7 14 -4 0 -8 -5 -11 -11 -8 -8 5 -7 2 0 -8 14 -17 14 -50 1 -42 -6 3 -7 1 -3 -6 4 -6 12 -9 17 -6 13 9 11 -9 -3 -24 -11 -11 -10 -12 2 -6 12 7 13 6 3 -6 -7 -9 -11 -25 -8 -37 3 -17 -1 -21 -18 -19 -13 1 -21 -3 -19 -10 1 -7 -3 -13 -9 -13 -6 0 -9 7 -5 15 3 8 0 15 -7 15 -8 0 -6 4 3 10 8 5 23 7 34 4 13 -4 16 -2 11 6 -4 6 -15 10 -25 7 -11 -3 -17 1 -16 11 0 8 -6 17 -14 20 -12 4 -13 2 -3 -9 13 -16 6 -32 -15 -37 -8 -1 -11 2 -6 9 4 7 3 9 -3 6 -6 -4 -19 1 -29 9 -10 9 -13 12 -6 9 8 -4 20 1 28 11 14 18 14 18 4 -3 -9 -19 -8 -22 4 -17 9 3 15 9 14 12 -2 22 3 32 15 26 6 -4 4 2 -6 14 -11 11 -17 24 -14 29 3 4 -7 17 -21 27 -14 11 -22 14 -18 8 5 -8 2 -10 -8 -6 -9 3 -16 1 -16 -5 0 -6 5 -11 12 -11 6 0 4 -8 -6 -19 -10 -10 -14 -21 -9 -23 4 -3 3 -3 -4 -2 -15 4 -25 -24 -11 -32 7 -5 8 -2 3 6 -5 8 -3 11 5 8 7 -2 15 -14 17 -27 2 -13 -1 -20 -7 -16 -18 11 -50 14 -50 5 0 -5 10 -16 23 -25 12 -8 22 -21 22 -28 0 -6 8 -11 18 -9 11 2 15 -2 11 -13 -7 -17 -20 -20 -29 -5 -5 8 -11 7 -21 -1 -17 -14 -19 2 -3 18 14 14 2 36 -13 27 -6 -4 -8 -3 -5 2 3 6 -3 11 -14 11 -10 1 -19 -2 -19 -8 0 -5 5 -8 11 -7 6 2 14 -3 16 -10 4 -11 1 -12 -18 -3 l-24 12 23 -17 c26 -19 28 -31 7 -31 -8 0 -15 4 -15 9 0 5 -4 7 -10 3 -5 -3 -6 -13 -3 -21 3 -9 9 -12 15 -6 10 10 56 4 63 -9 3 -4 -8 -4 -24 1 -21 6 -31 5 -34 -5 -4 -8 4 -12 26 -11 17 0 32 -5 35 -13 3 -8 0 -11 -6 -7 -24 15 -24 -18 0 -38 14 -12 28 -28 31 -36 4 -10 6 -8 6 6 1 12 8 27 16 34 13 10 17 7 30 -21 16 -34 16 -34 10 -4 -4 20 -3 27 3 20 12 -12 15 -30 12 -65 -1 -16 -4 -20 -7 -10 -4 8 -12 21 -20 28 -7 7 -13 21 -13 30 -1 10 -7 4 -14 -13 -7 -16 -11 -39 -9 -50 3 -16 1 -15 -11 5 -15 25 -15 25 -16 3 0 -13 5 -23 10 -23 6 0 10 -6 10 -14 0 -8 5 -18 11 -22 8 -4 9 1 4 16 -5 16 -4 20 5 15 6 -4 9 -17 6 -30 -3 -13 -1 -27 4 -30 15 -9 2 -25 -21 -25 -10 0 -19 7 -19 15 0 8 -5 15 -11 15 -6 0 -8 -9 -4 -20 5 -16 2 -20 -19 -20 -19 0 -26 5 -26 20 0 11 -4 20 -10 20 -5 0 -10 7 -10 15 0 8 -6 24 -12 35 -10 15 -10 22 0 32 9 9 12 7 12 -13 1 -13 7 -35 15 -49 14 -25 14 -25 15 -2 0 12 -4 22 -10 22 -5 0 -10 15 -9 33 1 31 1 30 17 -15 20 -54 37 -77 26 -34 -5 21 -4 27 5 22 6 -4 11 -14 11 -22 0 -8 5 -14 10 -14 6 0 10 -7 10 -15 0 -8 5 -15 11 -15 11 0 7 9 -24 53 -15 22 -18 38 -13 68 4 24 2 39 -4 39 -10 0 -13 -20 -11 -70 0 -14 -2 -18 -5 -10 -3 8 -11 25 -17 38 -8 18 -8 25 1 31 10 6 9 11 -3 21 -13 11 -18 10 -30 -6 -13 -18 -13 -17 -11 9 2 15 -1 27 -5 27 -5 0 -9 -3 -10 -7 0 -5 -2 -16 -4 -25 -2 -9 3 -22 10 -28 11 -9 11 -17 3 -36 -8 -18 -8 -31 0 -49 14 -31 15 -45 4 -45 -5 0 -15 18 -22 41 -11 31 -11 45 -2 59 8 13 8 21 1 26 -6 3 -8 13 -4 22 5 14 3 13 -13 -1 -18 -17 -20 -17 -33 0 -12 14 -12 16 1 11 19 -7 57 18 45 29 -4 5 -10 2 -12 -5 -3 -6 -8 -10 -12 -7 -5 2 -17 -2 -27 -10 -18 -14 -18 -16 -1 -26 9 -5 17 -15 17 -22 0 -7 -4 -6 -10 3 -5 8 -12 11 -16 7 -4 -4 -2 -13 4 -19 7 -7 12 -19 12 -27 -1 -13 -4 -12 -15 3 -14 18 -15 18 -15 2 0 -9 -5 -14 -10 -11 -6 4 -8 11 -5 16 4 5 1 9 -4 9 -6 0 -11 -8 -11 -17 0 -15 -2 -16 -10 -3 -8 11 -12 12 -18 3 -6 -9 -11 -7 -20 7 -8 13 -9 20 -1 20 5 0 7 5 4 10 -3 6 -2 10 3 10 6 0 13 -7 16 -16 3 -8 10 -12 16 -9 18 11 11 24 -16 31 -15 4 -23 12 -20 20 6 16 -10 28 -19 14 -9 -15 -25 -12 -19 4 3 8 1 17 -5 21 -6 3 -9 0 -5 -8 3 -9 -7 -23 -25 -37 -17 -12 -31 -16 -31 -10 0 6 11 16 25 22 14 6 25 15 25 20 0 12 -13 10 -36 -7 -12 -8 -24 -11 -28 -7 -4 3 -4 -1 0 -11 5 -14 2 -16 -17 -13 -13 2 -29 -1 -36 -6 -7 -5 -13 -5 -17 0 -7 11 26 43 47 46 8 1 22 8 30 15 9 7 21 11 29 10 24 -3 38 1 38 10 0 14 -40 8 -77 -12 -18 -10 -44 -15 -58 -13 -13 3 -27 1 -30 -4 -3 -5 4 -7 15 -5 26 5 25 3 -10 -23 l-30 -22 6 27 c3 16 -4 99 -15 185 -24 182 -24 178 -10 178 6 0 8 -7 5 -16 -5 -13 -3 -14 6 -7 7 5 19 8 26 7 6 -1 17 -2 22 -3 6 0 10 -6 10 -12 0 -5 -4 -7 -10 -4 -15 9 -12 -4 4 -20 12 -12 15 -12 20 1 3 8 11 12 17 8 8 -5 6 -10 -5 -16 -9 -5 -16 -16 -16 -24 0 -8 -5 -12 -10 -9 -6 4 -8 10 -5 15 3 5 0 12 -6 16 -8 5 -10 1 -7 -13 6 -24 -18 -26 -32 -2 -7 10 -9 8 -7 -9 0 -12 4 -22 7 -22 5 0 9 -37 11 -92 0 -10 4 -20 10 -23 5 -4 9 -11 9 -16 0 -6 -5 -7 -11 -3 -8 4 -8 1 -2 -12 5 -11 9 -28 8 -40 -2 -16 4 -20 25 -20 15 1 34 7 43 15 14 11 17 11 17 0 1 -9 4 -8 11 4 6 9 14 15 20 12 5 -4 9 -1 9 4 0 6 -5 11 -11 11 -5 0 3 11 18 24 33 29 44 25 17 -6 -10 -12 -13 -18 -6 -14 13 8 16 -4 5 -20 -5 -5 -1 -2 8 8 9 9 19 14 23 11 3 -4 6 -1 6 5 0 7 -6 12 -12 12 -9 0 -9 3 -3 8 6 4 11 15 12 25 1 34 3 38 12 32 5 -3 12 -1 16 4 3 6 -3 8 -14 6 -14 -2 -18 1 -14 11 3 8 0 14 -5 14 -6 0 -9 -12 -6 -27 4 -23 3 -25 -10 -13 -9 7 -13 17 -10 22 3 5 7 20 9 33 2 20 -1 23 -15 15 -16 -9 -18 -5 -15 30 2 22 -1 40 -6 40 -5 0 -9 -4 -9 -10 0 -5 -10 -14 -21 -21 -17 -9 -20 -8 -16 3 2 7 10 12 16 10 6 -1 11 3 11 8 0 6 -6 10 -12 8 -7 -2 -14 2 -15 7 -2 6 44 10 122 9 69 0 125 3 125 8 0 4 -53 8 -117 8 -122 0 -248 20 -269 42 -6 7 -14 39 -17 71 -5 51 -4 57 11 53 134 -42 554 -31 689 19 21 7 40 14 43 14 3 1 5 -56 5 -127z m-29 -55 c-2 -12 -9 -21 -15 -19 -6 1 -11 -2 -11 -7 0 -14 -29 -21 -36 -9 -5 7 -2 8 6 3 10 -6 12 -4 7 8 -4 11 -2 14 7 11 7 -3 19 2 26 11 7 9 9 15 4 14 -20 -4 -28 2 -14 10 20 13 30 4 26 -22z m-120 -17 c0 -12 -4 -16 -9 -11 -5 5 -15 7 -22 5 -7 -3 -16 0 -21 7 -4 7 -3 10 2 7 7 -4 46 5 49 11 1 1 1 -8 1 -19z m-453 -13 c-3 -4 -8 -6 -11 -3 -3 3 -11 1 -19 -6 -11 -8 -12 -7 -7 5 3 9 14 15 24 14 10 -1 16 -5 13 -10z m572 -26 c3 -5 2 -12 -3 -15 -5 -3 -9 1 -9 9 0 17 3 19 12 6z m-570 -26 c-2 -14 2 -25 8 -25 5 0 7 -3 4 -6 -4 -4 -14 -1 -24 7 -15 12 -15 11 1 -13 14 -22 15 -28 5 -29 -11 0 -11 -2 -1 -6 6 -2 10 -9 7 -13 -3 -5 -13 -6 -21 -3 -13 5 -15 1 -9 -18 7 -21 6 -22 -9 -10 -20 16 -21 41 -2 41 8 0 17 7 20 16 5 14 4 15 -9 4 -9 -7 -18 -10 -22 -6 -4 3 2 13 13 22 18 14 18 15 -3 4 -13 -6 -23 -15 -23 -21 0 -6 -4 -8 -9 -5 -17 11 0 45 20 41 12 -3 25 5 35 21 20 30 22 30 19 -1z m459 -17 c9 -17 13 -29 10 -25 -4 4 -14 -2 -21 -13 -26 -38 -41 3 -19 53 11 23 12 22 30 -15z m-408 -5 c-1 -18 4 -28 14 -28 8 -1 13 -7 12 -15 -12 -50 -12 -59 2 -54 8 3 17 0 22 -7 4 -7 3 -10 -4 -5 -11 7 -67 -39 -67 -55 0 -5 -3 -8 -6 -6 -4 1 -15 -6 -26 -15 -10 -9 -27 -16 -38 -14 -15 2 -20 11 -20 37 0 19 -4 40 -9 47 -4 7 -5 16 -2 19 3 3 1 14 -4 23 -7 13 -6 20 5 23 9 4 12 1 8 -9 -6 -17 25 -56 39 -48 5 3 7 13 4 21 -3 8 -2 12 3 9 13 -8 29 16 26 37 -2 11 5 22 18 27 17 7 18 9 5 9 -21 1 -24 17 -5 24 21 9 23 8 23 -20z m525 -10 c13 -16 12 -17 -3 -4 -10 7 -18 15 -18 17 0 8 8 3 21 -13z m4 -66 c0 -7 8 -11 18 -9 9 2 17 -3 17 -11 0 -7 -7 -14 -15 -14 -8 0 -15 4 -15 9 0 4 -4 8 -9 8 -6 0 -8 -9 -6 -20 3 -14 0 -18 -8 -13 -7 4 -6 0 2 -10 13 -17 26 -15 26 4 0 5 5 8 10 7 6 -2 9 -18 9 -35 -1 -18 3 -30 7 -27 5 3 9 0 9 -5 0 -6 -4 -11 -9 -11 -12 0 -32 25 -26 33 3 4 2 5 -1 2 -4 -2 -18 4 -32 15 -13 11 -28 17 -33 14 -14 -8 0 -24 16 -18 14 6 15 -19 2 -33 -11 -10 -47 -11 -53 -1 -3 4 -9 8 -14 8 -10 0 -8 -19 3 -37 5 -8 3 -13 -3 -13 -6 0 -8 -5 -4 -12 5 -9 2 -8 -9 1 -15 12 -19 12 -30 -3 -12 -16 -14 -16 -37 3 -15 13 -19 20 -10 19 11 -2 15 5 13 30 -1 27 1 31 15 23 9 -4 28 -7 42 -6 14 1 31 -2 38 -7 8 -7 12 -7 12 1 0 22 -5 25 -37 22 -31 -2 -33 -1 -29 29 3 30 3 31 -17 13 -11 -10 -17 -13 -13 -6 3 6 -4 22 -16 34 -22 20 -22 21 -2 11 12 -6 24 -9 27 -5 12 11 35 -18 33 -40 -2 -16 3 -23 15 -23 10 0 15 5 11 11 -11 17 -13 47 -2 40 5 -3 10 -12 10 -20 0 -21 22 -30 34 -14 6 8 18 14 26 14 10 0 16 11 16 30 1 17 2 32 3 34 2 8 16 -11 16 -22z m-214 -60 c-10 -9 -11 -8 -5 6 3 10 9 15 12 12 3 -3 0 -11 -7 -18z m214 -57 c-3 -4 2 -13 10 -20 8 -7 15 -9 15 -4 0 5 7 0 15 -10 8 -11 15 -16 15 -11 0 5 7 0 15 -11 24 -32 18 -64 -21 -101 -20 -19 -39 -31 -43 -28 -3 4 4 14 15 23 15 12 20 25 18 44 -3 14 0 29 6 33 6 4 7 -1 3 -12 -4 -13 -3 -15 6 -7 12 11 5 47 -8 40 -10 -6 -24 5 -44 34 -9 13 -17 19 -17 12 0 -7 -4 -11 -9 -7 -5 3 -13 1 -16 -5 -5 -8 -12 -7 -23 2 -14 10 -15 10 -4 -2 14 -17 16 -34 2 -25 -15 9 -12 -8 6 -33 9 -13 13 -29 10 -37 -3 -8 1 -21 9 -29 17 -17 20 -30 5 -21 -5 3 -10 1 -10 -5 0 -6 -4 -8 -10 -5 -5 3 -10 1 -10 -5 0 -6 -5 -8 -12 -4 -9 6 -9 9 -1 11 7 3 9 12 6 21 -4 14 -3 15 6 2 5 -8 13 -12 16 -8 3 3 -1 13 -10 21 -8 9 -15 22 -15 29 0 10 3 9 10 -2 8 -13 10 -12 10 3 0 9 -4 17 -9 17 -7 0 -19 29 -25 60 -1 3 -5 11 -9 18 -7 9 -2 11 18 8 14 -3 37 0 51 6 20 9 22 14 11 27 -11 14 -10 14 5 2 10 -7 16 -17 13 -21z m11 -58 c14 -13 22 -27 19 -33 -12 -19 -13 -49 -2 -49 7 0 7 -4 -3 -9 -8 -6 -18 -7 -22 -5 -4 3 -8 -7 -8 -21 0 -15 -4 -24 -10 -20 -5 3 -10 1 -10 -5 0 -6 -4 -8 -10 -5 -5 3 -10 1 -10 -5 0 -6 -4 -9 -9 -6 -5 4 -12 0 -14 -6 -6 -15 -46 29 -47 50 0 6 -4 12 -10 12 -5 0 -10 15 -10 33 l1 32 14 -32 c8 -18 19 -33 26 -33 6 0 9 -6 6 -14 -3 -7 -1 -18 5 -24 16 -16 68 13 68 38 0 11 5 20 12 20 6 0 8 3 5 7 -4 3 -3 11 2 17 6 7 -1 24 -16 46 -14 19 -22 26 -18 15 4 -11 8 -24 9 -30 1 -5 4 -15 8 -20 3 -6 0 -19 -8 -29 -12 -17 -13 -16 -11 16 2 26 0 35 -10 31 -7 -3 -13 0 -13 6 0 6 5 11 11 11 5 0 7 5 4 10 -8 13 3 30 17 27 6 -1 21 -12 34 -25z m-461 -20 c0 -9 -4 -23 -9 -30 -4 -7 -3 -19 3 -26 6 -7 8 -16 4 -19 -3 -4 -2 -7 4 -7 15 0 33 -47 26 -67 -4 -11 -3 -14 5 -9 15 9 16 43 2 51 -13 8 -13 25 0 25 5 0 12 -16 16 -35 7 -37 24 -48 24 -15 0 11 -4 20 -10 20 -5 0 -10 7 -10 15 0 21 20 19 21 -2 0 -16 1 -16 8 1 6 16 9 17 16 6 5 -9 4 -15 -3 -18 -14 -4 -17 -42 -4 -42 5 0 15 24 22 54 16 66 24 81 40 71 8 -5 9 -10 1 -18 -6 -6 -11 -19 -11 -30 0 -10 -4 -15 -10 -12 -5 3 -10 1 -10 -5 0 -6 6 -13 14 -16 18 -7 60 -84 46 -84 -6 0 -15 10 -20 23 -8 21 -9 21 -9 1 -1 -24 -10 -36 -22 -28 -5 3 -2 16 7 30 9 13 12 24 6 24 -6 0 -12 8 -15 18 -4 16 -4 16 -12 -2 -5 -12 -3 -21 6 -26 7 -5 10 -12 6 -17 -5 -4 -12 -1 -18 7 -7 11 -9 9 -6 -10 2 -14 2 -19 0 -12 -7 18 -23 15 -24 -5 -1 -17 -2 -17 -6 0 -2 9 -9 17 -14 17 -5 0 -10 -8 -10 -17 -1 -17 -2 -17 -6 0 -2 9 -8 15 -12 13 -4 -3 -12 4 -19 15 -7 11 -8 19 -2 19 5 0 10 5 10 12 0 6 -9 3 -20 -7 -11 -10 -20 -13 -20 -7 0 6 7 15 17 20 15 9 14 12 -5 37 -12 15 -22 22 -22 16 0 -7 -5 -9 -10 -6 -8 5 -7 11 1 21 6 8 9 17 5 21 -3 3 -7 4 -9 2 -1 -2 -12 -18 -24 -35 -17 -24 -19 -34 -10 -44 10 -10 8 -12 -5 -7 -10 3 -20 2 -23 -3 -4 -6 -11 -10 -17 -10 -6 0 6 20 26 45 21 25 34 50 31 56 -5 6 -12 3 -22 -10 -8 -12 -19 -21 -25 -21 -6 0 -5 7 3 18 13 15 12 16 -3 3 -10 -7 -15 -17 -12 -22 3 -5 -5 -7 -18 -6 -28 5 -33 49 -5 53 9 1 17 -1 17 -5 0 -12 32 -6 60 9 14 8 30 13 37 12 6 -1 14 2 18 8 9 14 12 12 10 -8z m-188 -4 c-2 -29 26 -79 40 -74 8 3 12 2 9 -3 -3 -5 1 -12 10 -15 8 -3 13 -2 10 3 -3 4 9 18 26 31 l32 23 -34 -41 c-32 -40 -50 -56 -34 -30 5 7 3 8 -5 3 -10 -6 -9 -11 3 -23 12 -12 18 -13 30 -3 14 12 14 9 0 -18 -9 -17 -17 -31 -18 -31 -13 0 -65 23 -63 28 1 4 -6 18 -16 32 -9 13 -17 20 -17 16 0 -5 7 -18 17 -28 10 -11 12 -18 4 -18 -14 0 -61 48 -61 62 0 15 21 51 43 76 24 26 25 26 24 10z m405 -18 c-6 -16 -11 -20 -16 -11 -4 6 -2 19 5 27 16 20 21 12 11 -16z m-242 -64 c0 5 5 1 11 -9 8 -13 7 -22 -1 -32 -9 -10 -8 -20 5 -42 15 -27 15 -27 10 -3 -6 23 -5 24 6 5 7 -11 17 -23 23 -27 6 -4 -2 -6 -18 -5 -21 2 -33 11 -45 36 -14 27 -19 30 -24 17 -4 -10 -12 -14 -19 -11 -7 4 -5 0 5 -8 22 -19 22 -27 -2 -27 -32 0 -34 18 -6 46 18 18 23 30 17 36 -15 15 9 39 26 26 6 -6 12 -7 12 -2z m549 -12 c-7 -9 -14 -21 -15 -28 -1 -6 -20 -38 -42 -72 -34 -51 -50 -65 -101 -88 -152 -68 -372 -75 -481 -14 -40 22 -117 123 -79 104 8 -4 5 -1 -6 8 -33 25 -55 49 -55 60 0 5 6 3 13 -5 42 -52 151 -80 301 -80 190 1 356 44 441 114 32 27 46 28 24 1z m-175 -40 c10 -25 -1 -29 -14 -5 -6 12 -7 21 -1 21 5 0 12 -7 15 -16z m-385 -44 c11 -24 11 -24 -3 -6 -9 11 -16 24 -16 30 0 12 5 7 19 -24z m257 -8 c-9 -8 -26 10 -26 26 1 15 2 15 15 -2 8 -11 13 -21 11 -24z m174 -112 c0 -11 -96 -60 -117 -60 -7 0 -13 6 -13 13 0 7 26 22 58 33 70 26 72 27 72 14z"/>

<path d="M831 1474 c0 -11 3 -14 6 -6 3 7 2 16 -1 19 -3 4 -6 -2 -5 -13z"/>
<path d="M535 971 c-3 -9 -1 -17 4 -19 6 -2 11 -11 11 -19 0 -26 10 -9 13 24 4 32 -17 43 -28 14z"/>
<path d="M704 949 c0 -19 22 -15 30 6 3 9 -2 13 -12 12 -10 0 -18 -9 -18 -18z"/>
<path d="M726 933 l-29 -34 34 6 c31 6 32 5 18 -12 -14 -16 -14 -20 3 -35 10 -10 21 -19 25 -20 5 -2 7 -9 5 -15 -4 -16 15 -17 20 -1 2 6 -4 20 -14 30 -10 10 -15 24 -11 34 4 12 8 13 14 3 4 -8 11 -10 16 -6 4 5 1 12 -7 17 -8 6 -11 10 -6 10 5 0 4 6 -2 13 -7 8 -6 16 3 24 9 8 16 9 20 3 3 -6 1 -10 -5 -10 -6 0 -8 -5 -3 -12 4 -7 8 -19 9 -26 3 -19 13 -27 21 -18 4 4 3 10 -2 14 -6 4 -11 15 -13 24 -2 13 2 16 13 12 9 -4 14 -13 11 -21 -3 -8 -1 -11 4 -8 6 3 7 -1 4 -9 -3 -9 -2 -16 4 -16 12 0 23 26 14 34 -3 4 -7 17 -9 29 -2 18 -1 19 7 7 9 -13 11 -13 21 0 9 13 10 12 5 -2 -6 -20 10 -25 17 -5 3 6 4 -2 3 -20 -2 -18 2 -34 8 -36 7 -3 11 9 12 29 1 37 -13 47 -73 48 -25 1 -29 -1 -21 -11 13 -16 -4 -17 -20 -1 -18 18 -51 18 -45 -1 4 -14 3 -14 -9 0 -11 13 -16 11 -42 -18z m48 -37 c-8 -13 -11 -26 -7 -31 5 -4 2 -5 -5 -1 -8 5 -9 13 -3 24 5 9 5 26 1 37 -7 19 -7 19 -18 0 -6 -11 -12 -15 -12 -9 0 5 5 15 12 22 9 9 16 8 29 -4 16 -14 16 -19 3 -38z"/>
<path d="M886 901 c3 -28 3 -28 -50 -27 -38 1 -52 -2 -49 -11 7 -18 30 -23 43 -8 21 26 38 6 36 -41 -2 -43 6 -58 18 -29 3 8 12 12 21 9 8 -3 15 -1 15 4 0 6 -11 9 -25 6 -18 -3 -23 -1 -19 10 3 8 13 15 22 15 43 -1 73 15 48 24 -9 4 -21 0 -28 -7 -14 -14 -38 -10 -38 6 0 6 6 8 13 5 16 -6 19 25 3 35 -8 5 -7 8 2 8 16 0 15 17 -2 23 -9 4 -12 -2 -10 -22z"/>
<path d="M944 909 c0 -22 12 -25 19 -5 3 8 0 16 -6 19 -7 3 -13 -3 -13 -14z"/>
<path d="M1124 902 c11 -12 16 -25 13 -29 -9 -8 12 -33 28 -33 7 0 12 8 10 18 -2 9 -4 21 -4 26 -1 5 -4 6 -8 3 -3 -4 -18 3 -32 15 l-26 23 19 -23z m46 -38 c0 -8 -19 -13 -24 -6 -3 5 1 9 9 9 8 0 15 -2 15 -3z"/>
<path d="M1002 888 c-7 -7 -12 -18 -12 -25 0 -7 -4 -13 -10 -13 -5 0 -8 6 -6 13 1 6 1 8 -2 3 -2 -4 -8 -2 -13 5 -4 7 -11 10 -15 6 -4 -4 1 -14 12 -21 18 -14 18 -16 2 -33 -13 -13 -18 -14 -18 -3 0 7 -3 10 -7 6 -4 -4 -8 -15 -8 -24 0 -9 -7 -17 -15 -17 -8 0 -20 -6 -26 -14 -13 -17 -38 -5 -30 15 6 17 -10 19 -20 3 -3 -6 0 -15 7 -20 12 -7 12 -9 0 -9 -10 0 -11 -3 -2 -13 6 -8 9 -16 6 -19 -3 -2 5 -4 18 -3 12 1 31 -2 42 -7 16 -7 16 -6 -2 8 -23 17 -33 41 -11 28 7 -5 8 -3 3 6 -5 8 -3 11 5 8 7 -2 15 -13 16 -23 2 -11 7 -21 13 -23 5 -2 2 -12 -6 -22 -9 -10 -20 -17 -25 -14 -4 3 -22 -9 -40 -26 -26 -26 -29 -34 -17 -42 12 -8 12 -9 -1 -5 -8 2 -14 12 -14 21 1 9 -2 16 -7 16 -5 0 -9 -6 -9 -12 0 -9 -3 -9 -9 1 -6 9 -6 22 0 32 6 13 5 17 -6 15 -23 -3 -29 -14 -17 -29 7 -8 9 -17 5 -20 -3 -4 -1 -7 5 -7 7 0 22 -10 33 -21 16 -16 23 -18 29 -9 5 7 6 18 4 25 -3 6 6 20 18 31 27 23 95 27 90 6 -1 -8 2 -10 8 -7 6 4 21 -1 33 -12 l22 -18 -18 22 c-11 12 -16 27 -12 32 3 6 0 12 -7 12 -7 1 -19 2 -27 3 -8 0 -15 10 -17 20 -1 10 -8 22 -14 26 -9 6 -9 9 -1 11 6 2 13 14 16 27 6 32 15 44 30 38 7 -2 12 3 11 12 0 9 5 16 12 14 8 -1 12 3 9 10 -2 7 0 21 5 31 10 20 7 22 -10 5z m-137 -138 c3 -5 1 -10 -4 -10 -6 0 -11 5 -11 10 0 6 2 10 4 10 3 0 8 -4 11 -10z"/>
<path d="M915 870 c-3 -5 -1 -10 4 -10 6 0 11 5 11 10 0 6 -2 10 -4 10 -3 0 -8 -4 -11 -10z"/>
<path d="M817 824 c-15 -15 -33 -24 -40 -21 -13 5 -15 0 -18 -40 -1 -10 -6 -24 -12 -31 -15 -19 -16 -50 -2 -62 7 -6 15 -2 24 12 11 18 11 20 -3 15 -9 -4 -16 -2 -16 4 0 7 10 9 26 5 32 -8 52 15 48 55 -3 20 3 33 19 45 15 11 18 18 9 21 -6 3 -10 9 -6 14 10 17 -3 9 -29 -17z m3 -26 c-16 -15 -19 -23 -11 -26 11 -4 10 -6 0 -13 -12 -8 -11 -11 1 -20 13 -9 13 -10 0 -6 -8 2 -26 0 -39 -5 -20 -7 -22 -6 -12 6 6 7 11 18 10 22 -5 29 2 37 17 18 8 -10 12 -13 9 -5 -7 12 34 63 44 55 3 -2 -6 -14 -19 -26z"/>
<path d="M776 757 c3 -10 9 -15 12 -12 3 3 0 11 -7 18 -10 9 -11 8 -5 -6z"/>
<path d="M820 710 c0 -5 1 -11 2 -12 1 -2 -4 -12 -10 -24 -10 -19 -9 -21 14 -18 15 1 33 12 41 24 8 12 21 19 29 16 8 -3 14 -1 14 3 0 5 -7 11 -15 15 -8 3 -15 0 -15 -7 0 -8 -4 -7 -10 3 -5 8 -12 11 -17 7 -4 -5 -2 -11 5 -16 8 -5 5 -12 -10 -25 -17 -15 -20 -15 -15 -3 3 9 1 18 -6 21 -9 3 -9 5 1 5 14 1 17 21 2 21 -5 0 -10 -4 -10 -10z"/>
<path d="M669 663 c-13 -17 -13 -17 6 -3 11 8 22 16 24 17 2 2 0 3 -6 3 -6 0 -17 -8 -24 -17z"/>
<path d="M616 647 c-16 -12 -16 -13 7 -13 16 0 23 4 20 13 -3 7 -6 13 -7 13 -1 0 -10 -6 -20 -13z"/>
<path d="M1000 481 c0 -6 5 -13 10 -16 6 -3 10 1 10 9 0 9 -4 16 -10 16 -5 0 -10 -4 -10 -9z"/>
<path d="M1069 918 c0 -2 -2 -13 -3 -25 -2 -19 0 -21 12 -11 9 8 10 14 3 16 -6 2 -9 8 -5 13 3 5 3 9 0 9 -3 0 -6 -1 -7 -2z"/>
<path d="M659 873 c-3 -35 -12 -52 -41 -77 -18 -17 -25 -27 -15 -23 12 4 17 1 17 -9 0 -11 -6 -15 -18 -12 -12 4 -18 -1 -18 -13 0 -10 2 -16 5 -14 2 3 10 0 17 -6 11 -9 15 -7 20 5 4 10 13 15 20 12 8 -3 11 0 8 8 -3 8 5 21 17 30 28 19 35 60 8 45 -24 -12 -38 -11 -16 2 14 8 16 14 6 25 -14 17 2 19 21 2 8 -7 6 -3 -4 10 -20 24 -26 26 -27 15z m20 -76 c9 4 5 -3 -9 -14 -18 -16 -28 -18 -38 -11 -9 8 -10 14 -1 25 8 9 16 10 22 4 5 -5 17 -7 26 -4z m-55 -62 c-4 -8 -11 -12 -16 -9 -6 4 -5 10 3 15 19 12 19 11 13 -6z"/>
<path d="M638 783 c7 -3 16 -2 19 1 4 3 -2 6 -13 5 -11 0 -14 -3 -6 -6z"/>
<path d="M570 800 c0 -5 5 -10 11 -10 5 0 7 5 4 10 -3 6 -8 10 -11 10 -2 0 -4 -4 -4 -10z"/>
<path d="M1155 720 c4 -6 11 -8 16 -5 14 9 11 15 -7 15 -8 0 -12 -5 -9 -10z"/>
<path d="M1053 701 c5 -29 43 -38 43 -9 0 9 -6 20 -13 22 -7 3 -10 -1 -7 -12 5 -14 2 -13 -10 3 -16 19 -17 19 -13 -4z"/>
<path d="M1030 666 c0 -2 7 -7 16 -10 8 -3 12 -2 9 4 -6 10 -25 14 -25 6z"/>
<path d="M1215 640 c10 -11 20 -20 23 -20 3 0 -3 9 -13 20 -10 11 -20 20 -23 20 -3 0 3 -9 13 -20z"/>
<path d="M717 617 c-6 -15 28 -17 40 -1 5 5 4 6 -1 2 -5 -4 -15 -3 -21 2 -9 7 -14 6 -18 -3z"/>
<path d="M617 595 c3 -8 9 -12 14 -9 12 7 11 11 -5 17 -10 4 -13 1 -9 -8z"/>
<path d="M563 567 c21 -18 22 -28 1 -20 -14 5 -13 3 2 -15 22 -27 25 -27 17 -4 -4 13 -3 14 6 6 7 -6 13 -20 14 -32 0 -11 4 -19 8 -16 4 2 10 -3 13 -12 3 -8 11 -12 17 -8 8 5 4 13 -11 24 -16 12 -21 23 -16 36 4 10 4 15 0 11 -4 -4 -15 3 -23 15 -9 13 -23 24 -31 26 -11 2 -11 -1 3 -11z"/>
<path d="M714 524 c3 -9 6 -18 6 -20 0 -11 18 -2 23 10 4 11 1 13 -10 9 -11 -4 -14 -2 -9 5 4 7 2 12 -4 12 -7 0 -9 -7 -6 -16z"/>
<path d="M1239 493 c-13 -17 -13 -17 6 -3 11 8 22 16 24 17 2 2 0 3 -6 3 -6 0 -17 -8 -24 -17z"/>
<path d="M1179 465 c-61 -33 -175 -57 -304 -62 -117 -5 -159 -1 -265 22 -14 3 -7 -2 15 -12 32 -14 72 -17 205 -17 142 -1 176 2 243 22 72 21 166 61 142 61 -5 0 -22 -6 -36 -14z"/>

<path d="M1926 1533 c-3 -21 -6 -50 -6 -64 0 -25 -1 -26 -110 -36 -127 -11 -159 -27 -121 -59 15 -13 21 -30 21 -59 0 -50 -5 -57 -55 -83 -22 -11 -51 -32 -65 -47 l-25 -27 -5 -301 -5 -302 -27 -39 c-32 -45 -36 -96 -13 -154 37 -87 119 -222 135 -222 10 0 42 -11 73 -25 98 -43 174 -58 292 -57 62 1 120 -4 132 -10 34 -17 75 6 136 76 151 174 177 247 120 331 -22 33 -18 79 49 577 10 71 9 79 -12 112 -12 20 -39 45 -59 56 -21 10 -43 26 -50 34 -19 22 -5 106 20 124 24 16 25 39 2 46 -45 13 -142 26 -194 26 l-57 0 1 68 2 67 -86 3 -86 3 -7 -38z m174 7 c0 -6 -33 -10 -80 -10 -47 0 -80 4 -80 10 0 6 33 10 80 10 47 0 80 -4 80 -10z m-116 -74 l-3 -51 9 48 c12 67 24 74 17 10 -4 -31 -2 -53 3 -53 6 0 11 24 12 53 l1 52 7 -55 7 -55 3 55 3 55 7 -55 6 -55 5 45 4 45 5 -47 5 -48 -62 0 c-53 0 -63 3 -63 18 0 9 -3 33 -6 53 -5 32 -4 35 18 35 23 0 25 -3 22 -50z m103 -13 c-2 -16 -4 -5 -4 22 0 28 2 40 4 28 2 -13 2 -35 0 -50z m-167 -31 c0 -5 10 -13 22 -19 l23 -10 -23 -12 c-16 -9 -43 -9 -109 -1 -132 17 -129 33 7 43 25 2 53 4 63 5 9 1 17 -2 17 -6z m358 -18 c62 -17 -15 -34 -155 -34 -54 0 -82 4 -78 10 3 6 2 10 -4 10 -5 0 -13 -4 -16 -10 -3 -5 -22 -10 -42 -10 -31 0 -34 2 -22 16 10 12 25 15 61 12 32 -4 54 0 66 9 13 10 36 12 92 8 41 -3 85 -8 98 -11z m-558 -9 c34 -31 304 -42 603 -25 16 1 17 3 5 17 -11 14 -11 15 1 12 26 -9 23 -29 -6 -40 -43 -17 -333 -23 -454 -9 -142 16 -154 19 -167 41 -15 23 -5 25 18 4z m346 -59 l251 -1 -5 -40 c-2 -22 -7 -43 -11 -47 -34 -38 -432 -36 -548 3 -31 10 -33 13 -33 58 l0 48 48 -10 c26 -6 160 -11 298 -11z m-201 -117 c108 -14 391 -8 422 9 19 10 26 8 54 -17 30 -28 31 -29 11 -40 -82 -44 -498 -39 -636 7 -48 17 -74 42 -42 42 9 0 21 8 28 19 10 17 15 17 43 5 17 -7 71 -18 120 -25z m-40 -74 c127 -19 389 -20 468 -1 32 7 66 21 76 30 18 16 20 15 50 -21 38 -46 39 -59 4 -76 -56 -29 -166 -42 -338 -41 -236 2 -435 32 -490 76 l-25 19 31 38 31 37 47 -23 c26 -13 90 -29 146 -38z m-98 -89 c227 -48 592 -42 696 11 27 13 28 13 24 -4 -3 -10 -8 -41 -12 -68 -3 -28 -9 -56 -13 -61 -17 -27 -125 -64 -184 -64 -21 0 -38 -5 -38 -11 0 -6 7 -9 14 -6 11 4 13 1 9 -11 -6 -16 -5 -16 13 -1 10 9 27 15 36 14 10 -2 21 1 24 6 3 6 12 5 22 -3 13 -11 15 -11 10 4 -7 16 14 20 28 5 4 -4 14 2 21 13 8 11 18 18 23 15 4 -3 11 1 13 7 3 7 5 0 4 -15 -1 -23 -3 -25 -12 -13 -10 13 -14 10 -29 -15 -10 -17 -22 -26 -28 -23 -8 5 -9 1 -5 -10 5 -14 3 -17 -8 -12 -8 3 -15 0 -15 -7 0 -7 -7 -3 -15 7 -16 22 -45 30 -45 14 0 -6 7 -8 15 -4 8 3 15 1 15 -4 0 -6 -4 -10 -9 -10 -5 0 -8 -12 -6 -27 2 -24 1 -25 -10 -9 -8 11 -15 13 -20 7 -3 -6 -1 -11 5 -11 6 0 8 -4 5 -10 -4 -6 -11 -5 -20 3 -16 14 1 41 21 33 10 -4 11 0 2 19 -8 19 -14 22 -24 14 -7 -6 -19 -7 -26 -3 -20 13 -46 12 -41 -2 2 -6 0 -15 -6 -19 -7 -4 1 -17 20 -34 18 -17 27 -31 21 -35 -6 -4 -15 2 -21 11 -5 10 -13 14 -18 9 -4 -5 -2 -11 6 -14 11 -4 11 -6 0 -14 -11 -7 -11 -11 -1 -15 6 -2 9 -10 6 -15 -4 -7 -2 -8 4 -4 7 4 12 1 12 -6 1 -8 9 -4 19 10 20 23 38 31 25 10 -4 -7 -3 -8 4 -4 7 4 12 2 12 -4 0 -7 6 -10 14 -7 8 3 17 -2 21 -11 5 -12 8 -13 14 -4 6 10 11 10 21 -2 7 -9 16 -13 21 -10 12 7 11 -3 -2 -28 -8 -15 -8 -19 0 -14 13 8 14 4 5 -19 -6 -14 -8 -14 -19 2 -16 23 -17 39 -2 35 8 -2 7 1 -1 10 -7 7 -16 13 -20 14 -4 0 -20 6 -36 13 -16 6 -31 9 -34 6 -7 -7 3 -16 20 -19 17 -2 56 -25 44 -26 -5 0 -1 -9 9 -20 10 -11 16 -23 12 -26 -3 -3 -15 8 -28 25 -13 17 -27 31 -32 31 -5 0 -4 -6 2 -14 9 -11 9 -15 -1 -18 -7 -3 -18 2 -25 11 -6 9 -15 13 -19 8 -4 -4 1 -14 12 -22 16 -13 16 -14 2 -9 -10 3 -18 2 -18 -3 0 -19 14 -23 30 -8 15 14 19 14 31 -2 12 -15 12 -16 -2 -11 -9 4 -21 2 -27 -4 -8 -8 -18 -7 -34 4 -24 16 -48 14 -48 -4 0 -6 6 -8 14 -5 7 3 23 -1 35 -9 11 -8 21 -12 21 -8 0 3 7 1 15 -6 13 -11 13 -15 3 -21 -8 -6 -18 -2 -25 8 -7 9 -16 13 -20 9 -4 -4 -3 -10 3 -14 6 -4 10 -15 8 -24 -1 -10 2 -18 7 -18 6 0 7 -6 3 -12 -6 -10 -5 -10 8 -1 8 7 18 10 21 6 15 -15 5 -20 -33 -19 -30 2 -39 -1 -35 -11 8 -23 -24 0 -44 31 -12 17 -21 24 -25 17 -4 -6 -3 -11 2 -11 18 0 43 -50 34 -67 -6 -11 -11 -12 -16 -4 -10 16 -36 -12 -36 -38 0 -12 -5 -21 -10 -21 -6 0 -8 11 -4 25 3 14 2 25 -3 25 -5 0 -10 -10 -10 -22 -1 -13 -7 -24 -13 -26 -5 -2 -10 -15 -10 -30 0 -17 -3 -23 -10 -16 -11 11 8 74 23 74 4 0 6 4 3 8 -2 4 0 14 5 22 7 13 10 13 18 1 6 -9 11 -10 15 -2 4 6 1 11 -6 11 -10 0 -9 3 2 10 8 5 11 12 7 17 -5 4 -12 1 -18 -7 -8 -13 -11 -13 -20 3 -5 9 -15 17 -22 17 -7 0 -6 -4 3 -10 8 -5 11 -10 5 -10 -5 0 -3 -5 5 -10 11 -7 11 -10 2 -10 -7 0 -11 -4 -8 -8 2 -4 1 -14 -5 -22 -7 -12 -9 -10 -9 8 0 12 -5 22 -11 22 -6 0 -9 -6 -6 -14 3 -8 -1 -17 -9 -20 -16 -6 -19 -36 -4 -36 6 0 10 7 10 15 0 8 5 15 10 15 15 0 12 -16 -4 -30 -8 -6 -12 -19 -10 -28 4 -12 1 -11 -7 3 -23 37 -35 45 -48 32 -8 -8 -11 -7 -11 6 0 9 -4 17 -10 17 -15 0 -12 -19 4 -36 11 -10 15 -11 19 -1 3 8 10 6 20 -8 14 -18 14 -22 -6 -43 -18 -19 -19 -25 -7 -32 8 -5 11 -12 7 -16 -9 -9 -37 27 -31 38 3 5 0 8 -6 8 -6 0 -8 -10 -4 -27 4 -16 4 -25 0 -21 -4 3 -7 9 -7 12 1 4 -8 16 -18 28 -11 11 -17 26 -13 32 4 7 8 4 10 -6 2 -10 8 -18 13 -18 12 0 12 17 -1 25 -6 4 -7 11 -4 17 13 21 12 67 -2 85 -8 12 -13 13 -14 5 0 -10 -5 -10 -21 -2 -11 7 -18 18 -15 25 3 9 0 12 -10 8 -13 -5 -13 -8 1 -23 18 -20 20 -37 2 -22 -10 8 -13 6 -13 -8 0 -18 2 -18 23 -5 13 9 23 11 23 6 0 -13 -26 -32 -33 -24 -4 3 -7 1 -7 -5 0 -20 17 -14 38 13 11 14 23 21 26 16 4 -5 2 -12 -4 -16 -5 -3 -8 -16 -4 -29 3 -14 -1 -27 -10 -35 -11 -9 -16 -10 -16 -2 0 6 -5 11 -10 11 -6 0 -3 -11 6 -25 9 -14 14 -28 11 -31 -3 -3 -11 5 -18 18 -6 12 -13 24 -14 26 -2 2 -18 -7 -36 -18 -31 -20 -19 -23 22 -6 10 5 19 1 22 -8 3 -8 -1 -17 -10 -20 -10 -4 -14 -2 -10 8 4 10 1 13 -8 10 -8 -3 -11 -13 -8 -22 4 -13 3 -14 -5 -3 -5 7 -15 10 -21 7 -6 -4 -11 -2 -11 3 0 6 -4 11 -10 11 -5 0 -7 -7 -3 -16 3 -8 12 -13 19 -10 7 3 16 1 19 -4 4 -6 14 -6 27 1 16 9 19 8 16 -3 -6 -16 -52 -15 -93 3 -36 15 -40 16 -60 18 -13 1 -14 5 -5 21 8 15 15 18 28 11 12 -6 24 -5 37 5 12 9 21 10 25 4 4 -6 14 -8 23 -4 9 3 14 10 11 15 -3 5 -10 6 -16 3 -7 -5 -8 -2 -3 6 5 8 4 11 -2 7 -6 -4 -16 0 -23 8 -7 8 -17 12 -24 8 -7 -4 -7 -1 1 7 10 11 15 11 28 0 8 -7 15 -9 15 -5 0 4 7 2 15 -5 13 -11 14 -10 9 4 -4 10 -13 15 -23 12 -13 -5 -13 -4 2 8 25 19 21 27 -8 14 -19 -8 -28 -9 -37 0 -8 8 -5 9 13 5 21 -6 22 -4 12 9 -11 12 -8 17 15 27 25 10 26 10 8 -4 -25 -19 -14 -30 13 -13 23 14 24 17 12 37 -7 11 -12 11 -32 0 -13 -7 -27 -12 -32 -11 -4 1 -6 -1 -5 -5 2 -5 -1 -8 -7 -8 -5 0 -11 8 -12 17 -2 13 3 16 25 12 27 -5 27 -5 7 14 -11 11 -24 17 -30 14 -5 -3 -4 1 3 9 19 20 14 31 -7 17 -11 -7 -17 -16 -14 -20 7 -13 -17 -39 -30 -31 -6 4 -7 1 -2 -7 6 -9 4 -11 -5 -5 -10 6 -9 11 6 22 10 8 18 19 17 24 -2 5 8 16 22 25 14 9 25 21 25 26 0 5 -20 -5 -45 -23 -25 -18 -47 -30 -50 -28 -6 7 105 79 122 79 8 0 11 5 8 10 -10 16 -20 12 -85 -36 -34 -25 -64 -43 -67 -41 -2 3 21 22 51 42 54 35 60 44 57 73 -2 13 -1 13 44 16 42 3 75 15 75 28 0 7 -5 7 -14 -1 -10 -9 -16 -8 -26 4 -7 9 -9 19 -5 23 4 4 10 1 12 -5 3 -7 9 -13 14 -13 6 0 7 5 4 10 -4 6 -3 10 2 9 19 -3 33 2 33 12 0 6 -9 8 -21 4 -19 -6 -20 -5 -8 8 8 8 17 13 22 10 4 -2 7 1 7 6 0 6 3 10 8 9 4 -2 8 0 10 5 5 17 -11 9 -63 -31 -50 -40 -75 -46 -75 -21 0 6 5 7 10 4 6 -4 30 9 54 29 24 19 47 32 51 28 4 -4 4 3 1 15 -8 24 23 50 40 33 6 -6 15 -5 24 0 12 8 13 11 1 19 -9 6 -10 11 -2 15 6 4 11 2 11 -3 0 -6 5 -11 11 -11 8 0 9 4 0 13 -6 8 -9 16 -6 18 2 3 -15 6 -38 7 -47 3 -137 16 -179 27 -28 7 -33 1 -28 -34 1 -12 -1 -12 -13 -3 -7 6 -17 9 -20 5 -4 -3 -7 -2 -7 4 0 6 7 16 15 23 13 11 7 16 -41 36 -31 13 -61 27 -67 33 -5 5 -10 41 -11 79 l-1 69 41 -19 c23 -9 73 -24 111 -32z m-107 -136 c-8 -5 -9 -10 -2 -14 6 -3 13 -2 17 3 4 7 15 6 30 -1 24 -11 24 -12 9 -30 -15 -16 -12 -20 12 -17 3 0 11 -7 18 -17 12 -16 13 -16 19 0 4 10 5 22 2 26 -10 17 15 21 42 7 15 -8 39 -13 53 -12 14 1 31 -2 38 -8 7 -5 15 -7 19 -4 3 4 12 2 19 -4 8 -7 14 -7 19 1 11 18 23 11 23 -15 0 -22 -2 -23 -20 -10 -18 12 -23 11 -40 -5 -11 -10 -17 -24 -13 -30 7 -11 -47 -68 -67 -71 -5 -1 -12 -3 -18 -4 -5 -1 -15 -3 -22 -4 -7 -1 -4 -9 7 -21 9 -10 27 -18 38 -17 11 1 22 -5 25 -13 5 -13 3 -13 -11 -1 -11 8 -17 9 -17 3 0 -6 -6 -9 -13 -6 -7 2 -28 -7 -47 -21 -22 -16 -37 -22 -44 -15 -6 6 -16 4 -28 -7 -11 -9 -28 -18 -39 -20 -11 -2 -27 -10 -35 -18 -20 -20 -20 -20 -20 18 1 31 16 41 25 16 2 -7 -1 -9 -9 -4 -9 5 -11 4 -6 -4 5 -8 13 -7 28 3 11 8 28 12 37 9 12 -4 13 -3 3 4 -10 8 -10 12 3 23 10 8 15 9 15 2 0 -6 7 -9 15 -6 8 4 12 10 9 15 -3 5 -10 6 -16 3 -7 -4 -8 -2 -4 4 12 20 -2 13 -28 -13 -14 -14 -31 -25 -38 -25 -7 0 1 12 17 26 l30 26 -31 -20 c-35 -24 -50 -18 -48 18 2 40 14 59 35 55 10 -2 19 1 19 7 0 5 -7 8 -15 4 -8 -3 -19 3 -25 12 -11 16 -11 16 -6 0 3 -10 2 -19 -2 -22 -4 -3 -8 4 -9 14 -1 11 2 22 6 25 5 2 7 16 6 30 -2 14 1 23 6 19 10 -6 12 9 2 19 -3 4 -7 29 -8 55 -2 46 -1 48 23 44 15 -3 20 -7 12 -12z m786 -113 c-6 -33 -13 -98 -17 -154 -1 -18 -5 -30 -9 -28 -4 2 -7 -13 -8 -33 -1 -20 -2 -46 -3 -57 -1 -11 2 -29 7 -40 7 -17 4 -17 -23 5 -17 14 -28 29 -25 34 2 4 9 2 14 -5 6 -10 7 -6 3 11 -4 17 -3 21 3 12 8 -11 10 -11 15 1 4 11 0 15 -14 12 -10 -2 -19 2 -19 8 0 8 -3 8 -9 -2 -6 -9 -11 -10 -15 -2 -4 6 -12 9 -17 5 -5 -3 -7 -10 -4 -15 7 -11 3 -11 -19 -3 -9 3 -16 10 -16 15 0 4 6 6 14 3 17 -6 31 12 16 21 -5 3 -10 11 -10 17 0 6 9 3 20 -7 44 -40 70 -20 65 47 -2 21 2 41 8 45 7 4 8 0 4 -11 -4 -10 -3 -15 4 -11 5 4 7 16 4 28 -5 16 -4 18 3 8 8 -11 10 -8 9 12 -1 14 -5 23 -9 20 -11 -6 -10 5 4 30 7 12 13 35 14 51 2 30 2 30 -22 -10 -13 -21 -24 -43 -24 -48 0 -6 -7 -1 -15 10 -10 13 -14 14 -15 5 0 -11 -3 -11 -17 0 -17 13 -17 13 0 -7 21 -25 23 -41 2 -24 -12 10 -15 10 -15 -3 0 -11 -7 -15 -20 -12 -12 2 -18 0 -15 -6 4 -5 10 -7 15 -4 5 3 14 -5 21 -17 11 -21 11 -22 -4 -9 -10 7 -17 10 -17 5 -1 -5 -9 1 -18 12 -15 18 -21 19 -35 9 -9 -6 -13 -16 -9 -20 4 -4 1 -6 -7 -3 -8 2 -17 10 -19 18 -3 7 0 10 6 7 5 -4 15 -1 21 7 9 10 5 19 -15 40 -22 21 -24 28 -14 41 12 14 15 14 31 -1 11 -10 19 -12 19 -6 0 7 5 12 12 12 6 0 1 -11 -11 -24 -20 -22 -21 -25 -6 -40 9 -9 22 -13 28 -9 7 4 17 8 22 8 6 0 11 7 11 15 1 8 2 21 3 29 1 9 5 10 14 4 22 -17 42 -8 66 30 21 32 26 35 34 21 5 -8 6 -30 3 -47z m-31 -31 c-9 -14 -14 -30 -10 -36 3 -5 -2 -23 -11 -40 -14 -22 -21 -27 -31 -18 -20 16 -16 32 5 17 9 -7 14 -9 9 -4 -4 4 0 16 8 25 13 14 13 17 1 17 -8 0 -14 -5 -13 -10 2 -12 -31 -18 -38 -7 -3 4 5 10 16 13 15 4 20 11 15 23 -5 14 -4 15 8 5 12 -10 18 -7 31 19 9 18 19 30 22 27 2 -3 -3 -17 -12 -31z m-690 -212 c-31 -25 -59 -44 -61 -41 -5 5 97 86 109 86 4 1 -18 -20 -48 -45z m-30 6 c-21 -24 -72 -51 -78 -41 -2 3 -2 1 -1 -6 2 -7 -1 -15 -7 -18 -5 -4 -6 -11 -3 -17 5 -8 1 -9 -10 -5 -13 5 -15 3 -7 -10 6 -12 5 -21 -7 -30 -14 -11 -14 -12 -1 -8 11 4 15 -1 15 -19 0 -19 -3 -23 -16 -16 -26 14 -24 69 5 112 24 36 34 42 63 39 7 -1 11 4 10 11 -2 7 4 12 14 10 9 -1 19 2 23 8 3 5 9 10 12 10 3 0 -2 -9 -12 -20z m668 -20 c3 6 4 5 3 -2 -2 -7 -11 -12 -21 -11 -12 1 -14 -2 -6 -10 21 -21 11 -30 -11 -11 -13 10 -9 3 9 -16 25 -27 35 -31 46 -22 11 9 18 8 31 -7 10 -11 18 -25 20 -33 1 -7 7 -22 13 -32 15 -26 5 -56 -15 -48 -15 5 -16 4 -2 -13 9 -11 10 -16 3 -11 -8 4 -13 2 -13 -8 0 -8 -4 -17 -9 -21 -6 -3 -9 4 -8 15 1 11 4 20 7 20 4 0 6 17 5 38 -3 55 -4 58 -16 42 -9 -12 -10 -11 -6 8 7 32 -1 27 -17 -10 -16 -37 -21 -23 -6 17 7 17 7 24 0 20 -6 -3 -10 -13 -10 -21 0 -8 -4 -12 -10 -9 -5 3 -19 1 -30 -5 -16 -9 -20 -21 -21 -68 -1 -31 -3 -48 -6 -37 -3 11 -9 24 -14 30 -5 5 -10 23 -10 40 -1 18 -5 6 -11 -30 -7 -42 -6 -61 1 -63 6 -2 11 -12 11 -23 0 -10 5 -19 11 -19 6 0 8 9 4 20 -3 11 -2 20 4 20 5 0 12 -8 14 -17 3 -12 5 -10 6 7 1 20 3 22 11 10 8 -13 10 -12 10 3 0 9 -4 17 -10 17 -6 0 -10 24 -9 53 1 40 3 46 9 27 l7 -25 5 30 c5 29 6 29 13 7 5 -15 13 -21 22 -17 11 4 13 1 9 -11 -3 -8 -6 -22 -6 -30 0 -8 -5 -14 -11 -14 -6 0 -9 9 -6 20 3 11 1 20 -3 20 -12 0 -10 -79 2 -86 6 -4 7 2 3 17 -7 24 -7 24 10 4 14 -17 16 -17 11 -2 -7 21 10 23 18 2 4 -11 -10 -22 -50 -40 -66 -29 -96 -32 -87 -10 3 9 -2 24 -12 35 -10 11 -14 24 -10 32 6 9 5 10 -2 3 -16 -15 -26 -72 -14 -80 7 -3 11 3 11 16 0 27 9 20 15 -11 4 -19 1 -22 -21 -17 -13 2 -27 0 -30 -4 -9 -15 -34 -10 -34 7 0 14 2 15 17 3 15 -13 15 -12 6 5 -6 10 -9 28 -7 40 3 14 0 12 -9 -8 -11 -21 -16 -25 -22 -15 -5 7 -4 14 3 17 7 2 12 16 12 30 0 22 2 24 11 12 8 -12 9 -9 4 10 -4 17 -3 21 3 12 6 -10 11 0 14 33 6 47 29 90 25 46 -1 -11 -6 -21 -11 -21 -5 0 -7 -2 -4 -5 3 -3 -1 -34 -7 -69 -7 -36 -9 -70 -4 -78 6 -9 9 -6 11 12 2 31 5 53 8 60 2 3 4 16 6 30 10 78 17 100 29 88 3 -3 1 -17 -5 -32 -5 -15 -10 -37 -9 -49 1 -30 21 39 22 76 0 20 3 24 12 17 6 -5 15 -7 18 -3 4 3 7 1 7 -4 0 -6 -6 -13 -12 -16 -7 -2 -10 -7 -6 -11 9 -11 48 17 48 34 0 13 -2 13 -11 0 -9 -12 -10 -12 -5 3 8 24 -13 65 -24 48 -5 -10 -9 -9 -13 2 -4 10 0 14 10 13 18 -3 59 34 55 49 -1 6 4 2 12 -8 9 -11 16 -14 19 -7z m-633 -54 c25 4 25 4 3 -7 -13 -7 -23 -21 -23 -31 0 -11 4 -17 9 -13 5 3 12 1 15 -4 4 -5 2 -12 -3 -15 -5 -4 -12 -2 -16 4 -11 18 -20 11 -40 -35 -23 -52 -35 -59 -64 -38 -16 11 -19 18 -12 27 6 7 7 16 3 21 -4 4 3 2 16 -4 13 -7 22 -8 22 -2 0 5 -10 13 -21 16 -17 6 -19 9 -8 16 9 5 10 9 2 9 -9 0 -11 15 -4 38 1 1 0 4 -1 6 -2 2 5 13 15 24 19 20 19 20 50 2 18 -12 42 -17 57 -14z m644 -7 c-3 -5 -10 -7 -15 -3 -5 3 -7 10 -3 15 3 5 10 7 15 3 5 -3 7 -10 3 -15z m-598 -29 c0 -14 -5 -19 -16 -15 -8 3 -4 -4 10 -15 14 -11 21 -20 16 -20 -5 0 -3 -6 3 -14 8 -9 8 -16 2 -20 -5 -4 -9 -16 -8 -27 1 -18 3 -18 13 -5 6 9 14 13 17 9 11 -10 8 -25 -3 -18 -5 3 -10 1 -10 -4 0 -6 -10 -9 -22 -7 -13 2 -28 0 -34 -5 -8 -6 -11 -2 -9 13 4 33 4 34 21 12 13 -16 15 -16 10 -2 -3 10 0 20 5 24 7 4 7 10 1 16 -6 6 -8 17 -5 24 3 8 0 14 -7 14 -6 0 -10 -10 -8 -22 2 -15 -2 -22 -10 -20 -8 1 -11 -2 -8 -7 4 -5 2 -12 -4 -16 -5 -3 -10 -1 -10 4 0 6 -5 11 -12 11 -6 0 -8 -3 -5 -7 4 -3 2 -12 -5 -20 -6 -8 -7 -13 -2 -12 21 4 30 -2 31 -22 1 -15 -2 -19 -13 -15 -9 3 -20 6 -25 6 -6 0 -7 5 -3 12 4 6 3 9 -2 5 -5 -3 -18 1 -29 9 -10 8 -13 14 -7 14 7 0 17 10 23 23 17 37 39 72 40 65 5 -26 4 -34 -6 -40 -7 -5 -6 -8 1 -8 6 0 17 7 24 15 7 8 9 15 5 15 -4 0 -2 7 5 15 7 8 9 15 5 15 -5 0 0 9 10 20 22 24 21 24 21 0z m404 -58 c0 -5 -12 -37 -26 -73 -20 -49 -24 -67 -15 -81 14 -22 14 -28 1 -28 -5 0 -10 7 -10 15 0 8 -4 15 -10 15 -5 0 -10 -7 -10 -16 0 -8 -5 -12 -11 -8 -8 4 -8 9 0 17 6 6 11 19 11 30 0 10 4 15 10 12 5 -3 7 0 4 8 -3 8 -1 18 5 22 6 3 11 15 11 26 0 10 5 19 10 19 6 0 10 11 10 25 0 14 5 25 10 25 6 0 10 -4 10 -8z m221 -1 c6 9 7 1 4 -21 -3 -19 -6 -40 -7 -47 -1 -7 -5 -10 -9 -7 -4 2 -7 23 -6 45 1 23 3 36 5 29 3 -9 7 -9 13 1z m-766 -77 c97 -74 255 -116 435 -115 172 0 291 30 353 88 15 15 27 22 27 17 0 -6 -13 -23 -30 -39 -16 -15 -28 -31 -27 -35 1 -5 -16 -32 -38 -60 -59 -79 -143 -110 -297 -111 -143 -1 -275 35 -371 103 -15 11 -40 43 -55 71 -39 74 -39 74 -1 46 44 -32 125 -67 214 -91 93 -24 284 -35 367 -19 65 12 182 51 175 58 -3 2 -26 -5 -53 -15 -125 -49 -335 -54 -494 -12 -136 35 -281 125 -280 173 1 7 8 3 18 -8 9 -11 35 -34 57 -51z m495 12 c0 -7 -8 -21 -19 -32 -10 -12 -22 -35 -26 -52 -7 -32 -25 -44 -25 -17 0 8 5 15 10 15 6 0 9 3 8 8 -4 13 13 52 23 52 5 0 9 12 9 26 0 14 4 23 10 19 6 -3 10 -12 10 -19z m150 -27 c0 -11 -4 -17 -10 -14 -5 3 -10 15 -10 26 0 11 5 17 10 14 6 -3 10 -15 10 -26z m-242 -26 c-11 -14 -11 -16 2 -11 8 2 17 15 20 29 3 14 9 19 13 13 9 -15 -15 -64 -30 -64 -17 0 -17 -17 -1 -22 7 -3 -10 -4 -37 -3 -33 0 -50 5 -53 15 -3 8 -10 18 -16 22 -6 4 -7 10 -3 14 10 10 37 -28 29 -41 -3 -5 2 -4 12 4 14 12 19 12 25 2 11 -17 33 11 25 33 -3 9 -1 16 5 16 6 0 10 3 10 8 -3 16 3 26 8 14 3 -7 -1 -20 -9 -29z m-110 -28 c9 -17 7 -20 -12 -20 -19 0 -20 3 -11 22 5 12 10 21 11 20 1 -1 6 -11 12 -22z m372 -150 c0 -3 -19 -16 -41 -31 -34 -21 -45 -24 -63 -15 l-21 12 22 -5 c12 -2 23 -1 25 3 2 3 19 14 38 23 41 20 40 19 40 13z"/>

<path d="M1963 1465 c0 -27 2 -38 4 -22 2 15 2 37 0 50 -2 12 -4 0 -4 -28z"/>
<path d="M2346 857 c3 -10 9 -15 12 -12 3 3 0 11 -7 18 -10 9 -11 8 -5 -6z"/>
<path d="M1980 850 c0 -5 5 -10 10 -10 6 0 10 5 10 10 0 6 -4 10 -10 10 -5 0 -10 -4 -10 -10z"/>

<path d="M1997 838 c-10 -11 -16 -23 -12 -26 3 -4 10 0 15 8 6 8 10 10 10 5 0 -6 -5 -16 -12 -23 -9 -9 -9 -12 0 -12 7 0 12 5 12 10 0 19 17 10 28 -16 9 -19 9 -24 1 -18 -8 4 -9 3 -5 -5 4 -6 10 -9 14 -7 4 2 13 -2 19 -10 10 -10 9 -16 -10 -29 -17 -12 -19 -18 -9 -24 10 -6 9 -11 -4 -22 -16 -12 -17 -12 -12 2 3 9 2 22 -3 30 -8 12 -10 12 -8 -1 3 -28 -1 -40 -12 -40 -8 0 -8 4 -1 13 6 7 7 18 3 26 -7 11 -14 10 -35 -5 -26 -20 -33 -34 -16 -34 6 0 10 4 10 9 0 22 25 17 26 -5 1 -13 -2 -21 -7 -18 -5 3 -9 0 -9 -5 0 -16 11 -13 33 7 17 14 19 15 15 1 -4 -9 -1 -16 7 -16 7 0 11 6 8 14 -3 7 0 13 7 13 6 0 8 -6 4 -12 -6 -10 -4 -10 7 0 15 14 29 16 29 4 0 -14 -43 -29 -67 -26 -13 2 -23 -1 -23 -6 0 -6 3 -10 8 -11 4 0 15 -2 25 -4 9 -2 24 3 32 12 8 8 20 11 26 7 8 -4 9 -3 5 4 -11 17 5 14 26 -5 11 -9 18 -11 18 -5 0 7 -5 12 -12 12 -6 0 -8 3 -4 7 4 5 14 -1 22 -11 8 -11 14 -16 14 -10 0 5 5 2 10 -6 6 -10 10 -11 10 -2 0 6 5 12 11 12 5 0 7 -5 3 -12 -4 -7 -3 -8 5 -4 6 4 9 12 5 17 -3 5 0 16 6 25 11 12 14 12 25 -2 10 -15 12 -15 12 -1 0 9 -7 19 -15 22 -8 3 -12 12 -8 22 6 16 6 16 -12 0 -15 -14 -21 -15 -36 -4 -21 15 -31 73 -15 83 6 3 3 11 -8 19 -15 11 -16 15 -3 31 8 10 10 15 3 11 -6 -4 -13 -1 -16 5 -2 7 -8 9 -13 5 -5 -4 -2 -12 5 -16 11 -7 11 -10 0 -15 -11 -5 -11 -7 -1 -12 6 -3 10 -10 7 -15 -4 -5 -12 -3 -20 4 -7 6 -9 17 -5 22 5 6 -1 10 -15 10 l-24 0 26 -27 c15 -16 22 -28 16 -28 -7 0 -21 12 -32 27 -12 14 -24 23 -28 19 -4 -4 -1 -11 6 -15 9 -6 10 -11 2 -15 -10 -7 -13 -2 -15 34 -1 8 -7 16 -14 16 -25 3 -27 5 -12 14 8 5 49 7 92 5 43 -1 78 1 78 6 0 5 -39 9 -87 8 -75 -1 -91 -4 -106 -21z m100 -95 c-3 -3 -13 1 -21 10 -8 8 -12 17 -9 20 3 3 12 -1 20 -9 9 -8 13 -18 10 -21z m43 16 c-12 -8 -12 -12 -2 -16 10 -4 10 -8 1 -19 -9 -11 -8 -14 1 -14 8 0 11 -3 7 -6 -3 -3 6 -16 21 -29 18 -16 29 -20 34 -12 4 6 9 9 12 6 3 -3 -5 -15 -19 -27 -25 -22 -25 -22 -45 -2 -10 10 -22 15 -25 10 -3 -6 -16 -1 -27 10 -16 15 -24 17 -29 8 -5 -8 -7 -3 -6 12 1 21 27 64 27 45 0 -4 12 8 26 25 15 17 29 28 32 25 4 -3 0 -11 -8 -16z"/>

<path d="M2102 720 c-17 -14 -21 -24 -14 -36 6 -11 11 -13 16 -5 4 6 2 11 -4 11 -6 0 -8 4 -5 10 4 6 11 5 20 -3 10 -9 10 -16 1 -27 -9 -12 -8 -13 4 -4 11 9 18 9 27 -1 6 -7 10 -15 7 -17 -2 -3 3 -5 11 -5 17 0 8 14 -32 53 -17 16 -20 23 -11 32 19 19 5 13 -20 -8z"/>
<path d="M2295 850 c-9 -14 24 -25 36 -11 5 6 6 9 3 6 -4 -3 -13 0 -20 6 -8 7 -14 7 -19 -1z"/>
<path d="M2050 830 c0 -5 5 -10 10 -10 6 0 10 5 10 10 0 6 -4 10 -10 10 -5 0 -10 -4 -10 -10z"/>
<path d="M2086 832 c-3 -5 1 -9 9 -9 8 0 12 4 9 9 -3 4 -7 8 -9 8 -2 0 -6 -4 -9 -8z"/>
<path d="M1901 802 c-9 -3 -5 -11 14 -28 16 -13 23 -24 17 -24 -11 0 -9 -56 2 -67 6 -6 55 29 56 40 0 13 -18 7 -24 -8 -3 -8 -11 -15 -18 -15 -9 0 -9 3 2 11 11 8 12 12 3 16 -7 2 -13 9 -13 14 0 6 6 7 13 3 8 -5 7 -2 -2 9 -8 10 -10 21 -6 25 4 4 9 3 12 -3 12 -33 21 -38 36 -24 13 13 12 18 -5 38 -10 13 -22 21 -25 17 -4 -4 -1 -11 7 -16 8 -6 10 -10 5 -10 -6 0 -16 5 -23 12 -9 9 -12 9 -12 0 0 -7 -5 -12 -11 -12 -5 0 -8 4 -4 9 7 12 -6 20 -24 13z m89 -32 c0 -5 -5 -10 -11 -10 -5 0 -7 5 -4 10 3 6 8 10 11 10 2 0 4 -4 4 -10z"/>
<path d="M2010 780 c0 -5 5 -10 10 -10 6 0 10 5 10 10 0 6 -4 10 -10 10 -5 0 -10 -4 -10 -10z"/>
<path d="M2003 745 c-10 -11 -10 -16 0 -22 20 -13 36 -12 48 3 9 11 8 14 -5 14 -9 0 -16 5 -16 10 0 14 -13 12 -27 -5z m31 -13 c3 -5 -1 -9 -9 -9 -8 0 -15 4 -15 9 0 4 4 8 9 8 6 0 12 -4 15 -8z"/>
<path d="M1895 720 c3 -5 10 -10 16 -10 5 0 9 5 9 10 0 6 -7 10 -16 10 -8 0 -12 -4 -9 -10z"/>
<path d="M1881 691 c-9 -6 -10 -11 -2 -15 6 -4 11 -3 11 3 0 6 7 8 17 4 13 -5 12 -8 -8 -15 -13 -5 -31 -16 -41 -25 -10 -9 -26 -13 -38 -10 -11 3 -20 1 -20 -4 0 -4 -7 -6 -15 -3 -8 4 -15 1 -15 -5 0 -6 6 -11 14 -11 8 0 16 -5 18 -11 3 -8 8 -7 18 2 19 18 82 22 92 6 6 -9 11 -8 19 3 8 12 12 12 16 2 4 -10 8 -10 19 -1 9 7 14 8 14 1 0 -6 -6 -12 -12 -15 -7 -2 -9 -8 -5 -13 4 -5 12 -2 17 6 5 8 12 11 17 7 4 -5 2 -12 -6 -16 -10 -6 -9 -11 3 -24 18 -17 21 -32 6 -22 -5 3 -10 1 -10 -5 0 -7 6 -10 13 -7 6 2 11 11 11 20 -1 9 3 14 9 10 6 -3 7 -1 3 6 -4 6 -12 9 -17 6 -5 -4 -9 -2 -9 4 0 5 5 13 10 16 6 4 0 15 -15 27 -15 11 -24 26 -21 34 3 8 0 11 -8 8 -8 -3 -22 5 -33 18 -21 26 -33 30 -52 19z m45 -37 c-3 -8 -2 -12 4 -9 6 4 18 -1 27 -11 16 -16 16 -16 -7 -8 -14 4 -40 8 -59 8 l-34 -1 34 17 c44 23 42 23 35 4z"/>
<path d="M1827 592 c-29 -18 -37 -35 -12 -26 8 4 15 10 15 16 0 5 4 7 9 4 5 -4 12 0 14 6 4 10 6 10 6 0 1 -7 -6 -15 -14 -18 -12 -5 -13 -10 -5 -19 8 -10 6 -15 -9 -20 -12 -3 -21 -11 -21 -16 0 -15 10 -11 42 16 16 14 37 25 46 25 13 0 13 3 4 12 -10 10 -15 10 -22 -2 -5 -8 -10 -10 -10 -5 0 6 -5 3 -10 -5 -6 -9 -10 -10 -10 -3 0 7 7 16 16 21 12 7 13 10 2 20 -10 8 -20 6 -41 -6z"/>
<path d="M1880 600 c0 -5 6 -10 14 -10 8 0 17 -6 19 -12 4 -10 7 -10 14 0 7 9 14 6 31 -12 14 -17 17 -26 9 -30 -9 -5 -9 -8 1 -12 9 -4 8 -10 -7 -23 -12 -10 -18 -21 -15 -24 4 -3 15 4 25 16 10 12 18 17 19 10 0 -6 -6 -13 -12 -16 -7 -2 -9 -8 -5 -13 4 -5 12 -2 17 6 5 8 12 11 17 7 4 -5 2 -11 -4 -15 -7 -5 -9 -13 -3 -21 4 -8 6 -21 3 -28 -5 -12 -7 -12 -14 -2 -12 21 -20 5 -11 -22 9 -23 9 -23 26 10 11 20 23 31 31 27 9 -3 12 0 8 10 -3 8 -12 13 -20 10 -9 -4 -13 -1 -11 6 3 7 9 13 14 13 5 0 14 4 21 8 14 9 6 37 -9 37 -6 0 -8 -6 -5 -13 3 -8 -1 -14 -8 -14 -10 0 -11 5 -4 19 5 10 14 18 19 18 6 0 10 5 10 10 0 18 -16 10 -30 -15 -10 -20 -16 -22 -27 -13 -8 6 -12 17 -9 24 7 18 -40 65 -57 58 -8 -3 -18 -1 -22 5 -8 14 -25 14 -25 1z"/>
<path d="M2060 601 c-8 -6 -11 -13 -7 -18 5 -4 12 -1 17 7 7 10 10 11 10 3 0 -7 5 -13 11 -13 5 0 7 5 4 10 -3 6 1 10 9 10 9 0 16 -4 16 -10 0 -5 -5 -10 -12 -10 -7 0 -5 -7 5 -17 14 -16 14 -19 -1 -33 -14 -13 -15 -12 -9 4 7 16 5 17 -9 5 -11 -9 -12 -15 -5 -17 9 -3 8 -8 -1 -20 -9 -12 -5 -11 10 2 22 19 23 19 45 -5 12 -13 21 -28 19 -33 -2 -5 4 -4 12 3 8 7 20 10 26 6 18 -11 2 49 -17 62 -15 12 -11 18 10 14 5 -1 5 4 2 10 -5 7 -10 8 -18 0 -7 -7 -14 -5 -23 7 -12 15 -15 15 -24 2 -7 -11 -10 -11 -10 -2 0 7 10 17 23 22 25 10 25 10 -28 16 -22 2 -47 0 -55 -5z m122 -84 c-2 -4 -8 -4 -14 -1 -7 4 -8 2 -4 -4 4 -6 14 -8 23 -5 15 6 16 5 3 -9 -14 -14 -17 -14 -37 6 -18 18 -22 39 -14 63 1 1 11 -8 24 -20 13 -12 22 -25 19 -30z"/>
<path d="M2140 530 c0 -5 5 -10 10 -10 6 0 10 5 10 10 0 6 -4 10 -10 10 -5 0 -10 -4 -10 -10z"/>
<path d="M2030 571 c0 -5 7 -12 16 -15 9 -3 14 -12 11 -19 -7 -17 9 -44 20 -34 4 5 1 12 -6 16 -11 7 -11 10 0 15 11 5 11 7 1 12 -6 3 -9 10 -6 16 4 6 10 5 15 -3 4 -7 11 -10 16 -6 12 13 -20 27 -34 15 -9 -7 -13 -7 -13 1 0 6 -4 11 -10 11 -5 0 -10 -4 -10 -9z"/>
<path d="M1765 560 c3 -5 13 -10 21 -10 8 0 14 -5 14 -11 0 -6 -9 -8 -22 -4 -21 6 -22 5 -5 -8 22 -18 22 -28 0 -20 -13 5 -12 2 3 -13 24 -24 74 -26 91 -4 10 12 15 13 32 3 18 -11 20 -10 15 5 -5 13 -4 14 4 3 9 -12 13 -12 26 2 10 10 12 18 6 22 -5 3 -10 1 -10 -4 0 -6 -5 -11 -12 -11 -9 0 -9 3 -1 11 6 6 9 19 6 28 -4 14 -3 14 6 1 5 -8 13 -12 16 -9 3 4 -1 11 -9 18 -11 9 -17 9 -28 -2 -7 -8 -20 -17 -28 -21 -9 -3 -5 -4 8 -2 12 2 22 0 22 -5 0 -15 -29 -22 -43 -10 -10 8 -19 6 -36 -5 -17 -13 -25 -14 -34 -4 -9 9 -8 14 6 24 21 16 23 30 2 23 -8 -4 -17 -2 -20 3 -4 6 -13 10 -21 10 -8 0 -12 -4 -9 -10z m105 -50 c0 -5 -9 -14 -20 -20 -16 -9 -18 -8 -14 5 3 8 10 12 15 9 5 -3 9 0 9 5 0 6 2 11 5 11 3 0 5 -4 5 -10z m-60 -20 c0 -5 -2 -10 -4 -10 -3 0 -8 5 -11 10 -3 6 -1 10 4 10 6 0 11 -4 11 -10z"/>
<path d="M1870 481 c0 -6 7 -11 15 -11 8 0 15 -4 15 -10 0 -5 -7 -7 -15 -4 -8 4 -15 1 -15 -5 0 -13 19 -14 38 -2 11 6 11 10 0 18 -25 19 -38 24 -38 14z"/>
<path d="M2060 480 c0 -5 6 -11 13 -11 6 -1 19 -2 27 -3 8 0 15 -8 14 -16 -1 -9 7 -16 17 -16 23 0 25 14 4 22 -8 4 -12 11 -8 17 3 5 1 7 -5 3 -5 -3 -13 0 -15 6 -4 10 -8 9 -16 -2 -7 -10 -11 -11 -11 -2 0 6 -4 12 -10 12 -5 0 -10 -4 -10 -10z"/>
<path d="M1920 474 c0 -4 8 -12 17 -19 13 -10 15 -16 6 -26 -8 -11 -6 -19 8 -33 16 -16 19 -17 19 -4 0 9 -6 19 -12 21 -17 7 12 29 29 22 7 -2 10 2 7 10 -8 21 -34 28 -28 7 4 -12 0 -11 -14 6 -20 22 -32 28 -32 16z"/>
<path d="M1920 440 c0 -5 5 -10 10 -10 6 0 10 5 10 10 0 6 -4 10 -10 10 -5 0 -10 -4 -10 -10z"/>
<path d="M1825 410 c3 -5 8 -10 11 -10 2 0 4 5 4 10 0 6 -5 10 -11 10 -5 0 -7 -4 -4 -10z"/>
<path d="M1820 386 c0 -3 7 -12 16 -20 8 -9 11 -16 5 -16 -6 0 -11 -4 -11 -9 0 -4 16 -3 35 3 40 12 48 30 10 20 -18 -4 -27 -1 -31 10 -5 14 -24 23 -24 12z"/>
<path d="M1930 331 c0 -5 6 -14 14 -20 10 -9 16 -8 26 4 7 9 10 19 6 22 -4 4 -11 1 -16 -7 -7 -10 -10 -11 -10 -2 0 6 -4 12 -10 12 -5 0 -10 -4 -10 -9z"/>
<path d="M1761 301 c-8 -5 -23 -8 -34 -5 -11 2 -16 0 -13 -4 4 -4 11 -7 14 -7 4 0 13 -4 20 -9 7 -4 16 -5 19 -2 4 3 0 6 -8 6 -8 1 -3 7 11 15 14 8 21 14 15 14 -5 1 -16 -3 -24 -8z"/>
<path d="M1604 892 c16 -18 22 -20 35 -10 13 10 14 10 4 -2 -7 -8 -13 -18 -13 -23 0 -4 6 -5 13 -1 10 6 10 4 0 -7 -18 -19 -16 -34 2 -19 9 7 14 18 12 24 -3 6 0 19 5 30 7 13 7 16 -1 12 -6 -4 -11 -2 -11 5 0 8 -4 8 -15 -1 -12 -10 -18 -10 -32 1 -15 11 -15 10 1 -9z"/>
<path d="M1598 870 c6 -8 12 -18 12 -23 0 -4 -6 -5 -12 -1 -9 5 -9 2 1 -9 11 -14 11 -20 0 -34 -8 -9 -9 -14 -3 -10 7 4 18 0 25 -9 11 -13 11 -15 -2 -12 -8 1 -16 0 -17 -4 -1 -5 0 -8 3 -9 2 0 18 -4 35 -9 17 -5 28 -5 25 0 -2 4 3 7 12 6 9 0 18 6 21 14 4 12 3 13 -10 2 -13 -10 -17 -10 -21 2 -4 9 -2 18 3 21 6 3 15 15 21 27 8 15 8 19 0 14 -6 -4 -11 -2 -11 5 0 7 -10 3 -23 -10 -21 -18 -26 -20 -36 -7 -9 10 -9 15 -1 18 7 2 1 12 -12 23 -13 11 -17 13 -10 5z m68 -59 c-10 -11 -15 -24 -12 -30 14 -21 -10 -17 -27 5 -10 13 -13 24 -7 24 5 0 10 -5 10 -12 0 -7 10 -2 22 10 28 27 38 29 14 3z"/>
<path d="M1744 868 c2 -7 -15 -30 -38 -52 -23 -21 -35 -35 -28 -31 7 4 20 1 28 -6 13 -10 11 -15 -12 -30 -15 -10 -31 -16 -35 -13 -13 8 -22 -17 -10 -29 7 -7 12 -6 17 6 3 9 12 17 19 17 6 0 20 9 30 20 10 11 20 18 23 15 3 -3 -3 -15 -14 -27 -19 -21 -19 -21 1 -14 16 6 15 3 -5 -17 -14 -13 -28 -22 -32 -20 -13 7 -9 -8 7 -23 8 -8 12 -21 8 -29 -4 -11 -1 -13 11 -9 23 9 34 34 30 67 -2 18 2 27 12 27 17 0 18 12 2 28 -6 6 -9 14 -6 18 4 3 13 -7 22 -23 8 -15 15 -22 16 -15 0 7 5 10 12 6 6 -4 8 -3 4 4 -3 6 3 13 14 17 11 3 20 11 20 16 0 6 5 7 12 3 7 -4 8 -3 4 4 -8 13 -36 5 -36 -11 0 -6 -7 -1 -17 12 -15 22 -17 23 -29 7 -8 -11 -14 -13 -19 -7 -3 6 0 11 7 12 7 0 4 4 -7 9 -11 5 -14 9 -6 9 11 1 11 4 1 16 -9 10 -9 15 -1 15 6 0 11 -5 11 -12 0 -9 3 -9 11 -1 6 6 19 9 28 6 9 -3 5 4 -9 15 -13 11 -28 19 -31 16 -4 -2 -10 1 -12 6 -3 6 -4 5 -3 -2z m31 -18 c3 -5 1 -10 -4 -10 -6 0 -11 5 -11 10 0 6 2 10 4 10 3 0 8 -4 11 -10z m-38 -32 c-2 -7 0 -21 5 -31 6 -12 5 -17 -4 -15 -27 6 -35 21 -19 40 18 21 24 23 18 6z m56 -53 c4 -8 1 -17 -5 -21 -7 -4 -8 -3 -4 4 4 7 2 12 -4 12 -6 0 -8 5 -5 10 8 14 12 13 18 -5z m-38 -25 c3 -5 1 -10 -4 -10 -6 0 -11 5 -11 10 0 6 2 10 4 10 3 0 8 -4 11 -10z m-29 -55 c-18 -14 -15 -20 9 -15 6 1 4 -4 -3 -12 -11 -11 -14 -10 -22 2 -7 11 -5 19 7 28 9 6 19 12 22 12 3 0 -3 -7 -13 -15z"/>
<path d="M1813 853 c11 -18 -3 -45 -18 -33 -12 10 -25 4 -25 -13 0 -6 3 -7 7 -4 3 4 14 1 22 -7 15 -13 21 -11 56 20 22 20 34 32 27 29 -7 -4 -19 -1 -27 5 -12 10 -15 10 -15 0 0 -9 -4 -9 -17 1 -9 8 -14 9 -10 2z m47 -20 c-1 -10 -50 -46 -50 -37 0 11 32 44 42 44 4 0 8 -3 8 -7z"/>
<path d="M1678 709 c-2 -5 -10 -11 -18 -13 -8 -1 -26 -8 -40 -16 -14 -8 -29 -13 -33 -12 -5 1 -6 -2 -2 -8 4 -6 15 -4 30 6 13 9 28 14 32 11 4 -3 22 6 38 19 21 17 25 24 13 24 -9 0 -18 -5 -20 -11z"/>
<path d="M1584 699 c-8 -14 14 -19 25 -6 8 10 7 14 -5 14 -8 0 -17 -4 -20 -8z"/>
<path d="M2184 798 c-4 -6 -3 -8 4 -4 5 3 12 1 14 -6 3 -8 6 -9 11 -1 4 6 0 13 -8 17 -8 3 -17 0 -21 -6z"/>
<path d="M2367 653 c-4 -3 -7 -11 -7 -17 0 -6 5 -5 12 2 6 6 9 14 7 17 -3 3 -9 2 -12 -2z"/>
<path d="M2356 593 c-6 -14 -5 -15 5 -6 7 7 10 15 7 18 -3 3 -9 -2 -12 -12z"/>
<path d="M2275 491 c11 -13 19 -25 18 -27 -2 -2 -3 -9 -3 -16 0 -9 3 -9 12 0 10 10 6 18 -17 40 -22 20 -24 21 -10 3z"/>
<path d="M2242 375 c0 -16 2 -22 5 -12 2 9 2 23 0 30 -3 6 -5 -1 -5 -18z"/>
<path d="M2282 340 c0 -14 2 -19 5 -12 2 6 2 18 0 25 -3 6 -5 1 -5 -13z"/>
<path d="M1589 502 c-13 -15 -12 -16 3 -4 15 12 17 11 15 -7 0 -11 -4 -18 -7 -16 -3 2 -12 0 -20 -6 -9 -5 -10 -9 -3 -9 6 0 10 -8 9 -17 -2 -10 3 -23 11 -28 9 -6 11 -18 7 -29 -5 -14 -9 -15 -15 -4 -6 9 -9 9 -9 1 0 -19 21 -27 31 -12 5 8 8 30 8 49 0 26 -2 30 -8 16 -7 -18 -8 -18 -14 -2 -4 10 -1 19 8 22 16 7 21 49 6 58 -5 3 -15 -2 -22 -12z"/>
<path d="M1631 455 l-1 -50 15 29 c9 17 14 37 12 45 -3 10 -6 6 -7 -9 -2 -24 -3 -24 -10 5 -7 26 -8 24 -9 -20z"/>
<path d="M1636 355 c-9 -26 -7 -32 5 -12 6 10 9 21 6 23 -2 3 -7 -2 -11 -11z"/>
</g>
</svg>
