<?xml version="1.0" standalone="no"?>
<!DOCTYPE svg PUBLIC "-//W3C//DTD SVG 20010904//EN"
 "http://www.w3.org/TR/2001/REC-SVG-20010904/DTD/svg10.dtd">
<svg version="1.0" xmlns="http://www.w3.org/2000/svg"
 width="900.000000pt" height="498.000000pt" viewBox="0 0 900.000000 498.000000"
 preserveAspectRatio="xMidYMid meet">
<metadata>
Created by potrace 1.10, written by Peter Selinger 2001-2011
</metadata>
<g transform="translate(0.000000,498.000000) scale(0.100000,-0.100000)"
fill="#000000" stroke="none">
<path d="M3040 4839 c-11 -19 -19 -20 -122 -18 -146 4 -141 13 -136 -196 l3
-160 -230 -5 -230 -5 -5 -1305 c-4 -1145 -7 -1305 -20 -1302 -88 20 -171 23
-543 20 -322 -2 -427 -6 -445 -16 -20 -11 -23 -10 -30 10 -4 13 -7 457 -6 988
2 685 -1 969 -9 978 -8 10 -49 13 -175 11 -122 -1 -166 1 -172 11 -4 7 -5 69
-3 139 l6 126 -47 33 c-50 36 -54 43 -31 62 31 25 17 39 -43 42 -54 3 -57 4
-60 30 -4 30 -30 43 -72 36 -22 -3 -33 -15 -44 -50 -4 -14 -17 -18 -61 -18
-41 0 -55 -4 -55 -14 0 -8 5 -18 10 -21 19 -12 10 -43 -18 -60 -57 -37 -59
-44 -54 -204 3 -114 1 -155 -11 -190 -9 -24 -13 -58 -10 -77 6 -37 4 -39 -47
-24 -61 17 -194 14 -224 -5 l-26 -17 0 -894 c0 -548 4 -903 10 -919 l10 -25
498 0 c347 0 501 3 509 11 6 6 19 9 29 7 18 -3 19 -30 24 -658 l5 -655 35 0
c19 0 67 3 105 7 39 3 64 4 58 1 -17 -6 -17 -43 0 -44 6 0 53 -1 102 -2 l90
-2 -4 -111 c-3 -94 -1 -113 14 -127 16 -16 120 -17 1538 -17 l1522 0 0 -77 0
-78 1198 0 1199 0 1 310 2 310 57 2 c61 3 82 -9 47 -27 -47 -26 0 -33 218 -37
244 -4 268 1 216 43 -18 14 -33 32 -33 40 0 16 39 34 74 34 34 0 56 21 62 61
5 28 2 37 -11 43 -22 8 -45 -10 -45 -35 0 -24 -15 -32 -50 -24 l-30 7 0 104
c0 57 -4 104 -9 104 -15 0 13 50 32 56 22 7 22 16 -4 48 -31 39 -22 61 26 61
l40 0 -3 -126 c-3 -103 0 -128 12 -138 13 -11 20 -8 41 13 20 20 23 29 16 49
-11 29 -12 100 -11 750 0 274 -3 503 -6 509 -4 6 0 14 7 19 8 5 265 9 571 9
337 0 559 4 563 9 3 6 5 389 5 853 0 780 -1 844 -16 855 -11 8 -22 9 -28 4 -6
-5 -36 -11 -66 -13 l-55 -3 -1 72 c0 53 -5 77 -17 91 -9 10 -17 25 -17 33 0
23 -37 49 -69 49 -33 0 -48 -14 -53 -50 l-3 -25 -177 -3 c-115 -1 -178 1 -178
8 0 6 -87 11 -237 12 l-237 3 -6 25 c-5 21 -12 25 -48 28 -39 3 -42 2 -42 -23
0 -42 30 -40 -523 -36 -258 2 -402 0 -410 -7 -6 -6 -74 -12 -150 -14 -116 -2
-137 -1 -138 12 -1 8 0 122 1 252 l2 238 -28 11 c-18 6 -93 9 -197 7 -136 -2
-170 -6 -178 -18 -6 -9 -9 -107 -8 -240 0 -124 0 -233 0 -242 -1 -9 -11 -18
-23 -20 -22 -3 -23 -8 -26 -111 l-3 -107 -222 2 -222 3 4 183 c2 135 0 186 -9
197 -18 22 -408 22 -416 0 -3 -8 -7 -124 -7 -257 -2 -238 -2 -243 -23 -246
-11 -2 -26 3 -32 10 -12 15 -17 156 -7 210 6 31 4 38 -14 48 -12 6 -31 8 -41
5 -23 -7 -37 -49 -23 -68 6 -6 9 -48 9 -91 l-1 -79 -40 -12 c-31 -9 -39 -16
-37 -31 1 -10 5 -35 8 -55 l6 -36 -62 -6 c-88 -10 -150 -9 -150 2 0 5 19 9 43
9 80 1 85 3 90 32 4 15 9 39 12 52 5 21 1 27 -24 38 -17 7 -31 16 -31 21 0 12
-67 11 -75 -1 -3 -6 -17 -7 -30 -4 -31 8 -39 -19 -30 -96 8 -72 16 -69 -180
-73 l-140 -2 -3 -894 c-2 -705 1 -897 10 -909 11 -12 10 -16 0 -20 -10 -3 -12
-66 -12 -295 2 -255 0 -292 -14 -303 -9 -6 -16 -25 -16 -41 0 -45 -11 -47 -45
-8 -18 22 -51 45 -85 58 l-55 22 -1 58 c-3 98 -13 143 -38 166 -21 20 -30 22
-83 16 -32 -4 -63 -12 -70 -17 -11 -8 -58 -16 -228 -37 -38 -5 -94 -17 -123
-26 l-54 -18 3 -86 3 -85 -32 -19 c-22 -13 -32 -26 -32 -43 0 -30 -28 -45 -72
-37 -21 3 -38 1 -42 -6 -4 -6 -18 -11 -31 -11 -29 0 -65 -36 -65 -64 1 -23 32
-66 48 -66 5 0 15 -7 22 -15 7 -8 20 -15 30 -15 10 0 21 -7 24 -16 5 -13 17
-16 63 -12 48 4 66 1 110 -22 30 -14 50 -29 47 -33 -4 -4 -35 -7 -68 -7 -35 0
-73 -7 -90 -15 -38 -20 -39 -20 -82 20 -23 22 -46 35 -58 33 -18 -3 -21 -10
-21 -52 0 -30 -5 -51 -13 -54 -19 -6 -16 -166 4 -183 10 -8 14 -22 10 -41 -3
-16 0 -32 8 -40 45 -44 96 -88 101 -88 17 0 44 48 45 77 0 42 17 51 32 16 7
-15 17 -31 22 -34 5 -4 6 -23 3 -42 -5 -32 -2 -39 41 -76 66 -59 90 -55 102
19 5 32 8 35 50 41 25 4 58 12 73 18 16 6 44 11 63 11 l34 0 0 -82 c0 -46 -4
-89 -9 -96 -6 -11 -142 -13 -701 -13 -381 1 -695 3 -697 5 -10 9 -3 1520 6
1529 7 7 16 5 27 -4 14 -12 114 -14 588 -16 531 -2 571 -3 583 -19 9 -12 11
-30 6 -54 -7 -39 -7 -35 -5 -146 1 -52 7 -87 16 -100 14 -18 15 -18 33 -1 16
15 18 36 18 157 0 92 4 143 12 151 8 8 92 12 282 13 242 1 272 3 288 18 9 10
14 20 11 24 -20 19 -158 23 -846 23 -420 -1 -766 1 -768 4 -3 3 -5 319 -5 703
1 782 -5 724 72 724 21 0 44 3 53 6 12 5 18 -2 22 -25 4 -17 12 -35 18 -40 8
-7 86 -7 227 0 118 6 299 9 403 6 l189 -5 -6 50 c-4 28 -2 59 4 69 7 14 5 26
-7 44 -15 23 -15 27 -1 43 12 13 13 21 5 36 -8 13 -9 86 -5 227 5 174 4 209
-9 219 -8 7 -14 19 -14 26 0 11 -25 14 -125 14 -111 0 -127 -2 -144 -19 -19
-19 -20 -19 -26 -1 -5 17 -19 19 -118 22 -106 3 -113 2 -132 -19 -25 -27 -95
-32 -115 -8 -16 19 -44 19 -60 0 -7 -9 -21 -13 -31 -10 -11 4 -26 -2 -40 -16
-21 -21 -22 -26 -17 -211 l5 -188 -24 -6 c-21 -6 -132 2 -139 9 -2 1 1 20 7
42 5 22 8 175 8 339 -2 342 -7 326 87 326 56 0 64 -7 64 -59 0 -51 24 -61 120
-50 47 5 112 15 145 21 71 13 329 16 469 5 l99 -8 -7 50 c-4 33 -2 57 6 70 10
17 9 23 -7 41 -21 24 -25 22 -35 -22 -5 -20 -8 40 -9 152 0 127 3 180 10 168
5 -10 8 -66 6 -130 -5 -140 2 -165 31 -117 10 16 11 24 1 35 -9 11 -11 67 -6
224 3 116 2 210 -2 210 -4 0 -13 11 -19 25 l-12 25 -126 -3 c-107 -4 -128 -7
-136 -21 -9 -16 -11 -16 -25 3 -13 19 -24 21 -128 21 -105 0 -115 -2 -125 -21z
m248 -74 c9 -20 19 -25 47 -25 19 0 35 4 35 8 0 5 6 17 14 27 14 19 15 19 26
-7 21 -44 61 -44 74 0 7 20 13 23 54 20 l47 -3 3 -43 c3 -42 3 -42 -30 -41
-18 1 -73 -1 -123 -4 -49 -3 -139 -2 -200 2 -60 5 -114 7 -120 4 -6 -2 -10
-96 -10 -256 l0 -252 -75 0 -75 0 0 40 c0 38 -2 40 -29 40 -36 0 -44 -17 -14
-30 13 -6 24 -17 26 -26 2 -13 -7 -18 -40 -21 -55 -6 -65 -2 -84 35 -13 24
-14 31 -2 38 7 5 16 9 19 9 4 0 7 42 6 93 0 50 0 163 1 249 l2 157 102 4 c57
1 155 4 219 5 115 2 116 2 127 -23z m153 -184 c20 -25 33 -134 24 -203 -5 -34
-15 -59 -32 -76 -22 -22 -30 -24 -104 -20 -107 4 -109 8 -109 157 0 64 4 122
9 130 13 20 99 41 151 37 29 -3 50 -11 61 -25z m2899 -13 c0 -7 1 -107 3 -223
2 -115 1 -218 -1 -227 -3 -13 -14 -18 -43 -18 -21 0 -40 3 -42 8 -3 4 0 36 5
71 11 73 6 81 -55 81 -25 0 -40 -5 -44 -15 -7 -21 2 -29 35 -30 37 0 42 -42 9
-80 -22 -27 -28 -28 -98 -26 -41 1 -75 4 -77 6 -2 2 -4 370 -2 458 0 4 70 7
155 7 117 0 155 -3 155 -12z m-3555 -226 c-1 -35 -6 -57 -15 -63 -9 -6 -45 -7
-86 -4 -69 6 -72 6 -93 -21 -20 -26 -21 -36 -21 -329 0 -166 5 -326 10 -355 6
-29 8 -55 6 -57 -2 -2 -47 -5 -101 -6 l-97 -2 0 445 c1 245 1 446 2 448 0 1
89 1 198 0 l197 -3 0 -53z m-1995 -132 c13 -8 12 -13 -8 -32 -20 -20 -32 -23
-104 -22 -73 0 -83 3 -100 24 -19 23 -19 24 -1 31 27 11 196 10 213 -1z m4630
-771 c0 -677 1 -778 14 -789 12 -9 76 -12 250 -11 l235 2 16 -36 17 -35 142
-2 c77 -1 238 -1 356 1 189 3 217 1 229 -13 12 -14 85 -16 751 -16 662 0 739
2 751 16 11 14 43 15 255 13 134 -2 246 0 250 4 4 4 7 53 5 108 l-3 100 58 -3
57 -3 -1 -235 -1 -235 -577 -3 -576 -2 6 -53 c3 -28 7 -176 8 -327 3 -259 2
-275 -15 -278 -10 -2 -30 -1 -44 3 l-26 6 5 124 c6 134 0 153 -42 140 -20 -6
-21 -13 -19 -120 1 -120 -2 -135 -30 -135 -9 0 -25 -6 -34 -13 -15 -10 -16
-16 -5 -40 10 -21 18 -27 36 -24 22 4 42 -16 42 -42 0 -11 -76 -8 -137 5 -27
5 -30 30 -7 62 15 23 15 25 -22 58 -37 32 -84 46 -84 24 0 -5 -13 -10 -29 -10
-55 0 -63 -8 -55 -56 7 -49 13 -46 -84 -44 -112 3 -102 77 -102 -752 l0 -718
-250 0 -250 0 -2 303 -3 302 -194 1 c-157 2 -196 5 -208 17 -13 13 -14 18 -1
36 8 12 12 35 10 57 l-4 36 -44 -6 c-36 -5 -45 -2 -54 14 -14 26 -13 50 3 50
18 0 73 60 82 88 3 12 3 47 0 77 -9 65 -38 105 -78 105 -31 0 -35 17 -9 36 13
10 15 17 6 31 -17 28 -107 30 -161 3 -39 -19 -43 -25 -43 -58 0 -20 -3 -47 -6
-59 -10 -36 33 -47 85 -22 22 10 50 19 62 19 14 0 19 5 16 15 -4 8 -2 17 3 20
6 4 10 0 10 -7 0 -7 13 -19 30 -26 22 -10 31 -22 36 -48 4 -20 3 -39 -2 -44
-5 -5 -35 -10 -67 -12 -75 -4 -74 -22 3 -26 83 -4 82 -27 -1 -36 -34 -3 -68
-11 -75 -17 -8 -6 -38 -12 -66 -12 -46 -1 -53 1 -53 18 0 18 6 20 53 17 44 -3
52 -1 52 13 0 15 -8 17 -50 13 -56 -6 -76 8 -86 59 -5 25 -2 33 15 42 12 7 21
18 21 25 0 20 -87 96 -109 96 -11 0 -23 4 -26 10 -3 5 -15 10 -26 10 -18 0
-19 8 -19 103 l0 103 -31 23 c-27 20 -38 22 -87 16 -32 -4 -62 -11 -69 -16 -6
-6 -42 -14 -80 -18 -37 -5 -83 -15 -100 -22 -21 -8 -36 -10 -40 -4 -5 6 -6
165 -3 355 4 272 2 350 -8 368 l-13 23 -416 -1 -417 -2 1 289 c1 158 2 291 2
295 1 8 213 5 227 -4 6 -4 109 -8 230 -9 l219 -1 3 24 c2 18 -4 27 -23 36 -30
14 -31 23 -5 47 28 25 70 13 70 -21 0 -16 5 -24 13 -21 6 2 11 15 9 27 -1 13
5 33 13 46 21 32 20 84 -2 84 -15 0 -14 2 2 19 16 19 17 53 16 475 -1 296 2
457 9 461 7 4 7 12 0 25 -5 10 -10 75 -10 145 l0 126 150 -3 151 -3 -1 -776z
m2250 706 c0 -8 -7 -15 -15 -15 -8 0 -15 7 -15 15 0 8 7 15 15 15 8 0 15 -7
15 -15z m948 -18 c3 -12 -3 -17 -22 -17 -28 0 -29 1 -20 25 8 20 38 15 42 -8z
m-7763 -37 c45 -42 17 -50 -176 -50 -181 0 -203 6 -174 48 19 27 43 30 197 28
120 -1 128 -2 153 -26z m5887 -97 c8 -176 2 -338 -14 -338 -10 0 -14 44 -16
210 -1 115 0 215 2 222 14 35 23 3 28 -94z m421 78 c21 -22 28 -169 9 -176
-33 -12 -42 -5 -42 35 0 27 -5 43 -15 46 -8 4 -15 10 -15 15 0 17 -40 49 -60
49 -25 0 -26 -18 -2 -27 23 -9 62 -51 62 -68 0 -21 -11 -45 -21 -45 -5 0 -9
10 -9 23 0 14 -14 36 -36 55 -30 27 -44 32 -85 32 -35 0 -51 4 -55 15 -8 19
-43 20 -50 1 -3 -8 -14 -16 -25 -19 -23 -6 -26 -42 -4 -51 8 -3 15 -15 15 -26
0 -28 13 -25 42 11 24 28 30 30 79 27 51 -3 55 -5 82 -46 l29 -44 -18 -36
c-28 -54 -38 -62 -89 -69 -45 -6 -48 -5 -86 37 -26 28 -39 52 -39 70 0 16 -7
30 -15 34 -8 3 -15 12 -15 20 0 7 -7 17 -16 20 -12 4 -14 19 -12 63 4 72 2 72
215 71 137 0 164 -3 176 -17z m625 3 c-24 -25 -4 -65 31 -62 l26 3 3 -132 3
-133 -30 0 c-16 0 -35 -2 -43 -5 -10 -4 -13 21 -11 132 2 150 -1 173 -23 173
-8 0 -14 5 -14 10 0 6 7 10 15 10 8 0 15 5 15 10 0 6 10 10 22 10 21 0 21 -1
6 -16z m-1588 -20 c0 -8 -7 -31 -15 -51 -8 -19 -15 -46 -15 -59 0 -23 -3 -24
-64 -24 -44 0 -67 -5 -76 -15 -7 -8 -26 -15 -43 -15 -30 0 -30 0 -23 46 3 26
6 66 6 90 l0 43 103 3 c115 3 127 2 127 -18z m269 12 c8 -10 9 -62 4 -191 l-8
-178 -240 2 c-132 1 -243 6 -248 10 -4 4 -8 32 -10 62 l-2 54 103 0 104 0 14
40 c7 22 14 48 14 58 0 20 -4 19 126 17 116 -2 131 6 116 62 l-8 33 -102 3
c-76 2 -102 6 -102 16 0 23 12 26 120 26 79 0 111 -4 119 -14z m982 -3 c0 -10
1 -99 1 -198 l2 -180 -100 0 -99 0 3 97 c4 97 4 98 -23 110 -20 9 -25 17 -21
32 3 12 6 51 6 89 l0 67 115 0 c103 0 115 -2 116 -17z m246 -27 l33 -36 2
-130 c1 -71 2 -142 2 -157 1 -28 1 -28 -73 -31 -41 -2 -78 1 -83 6 -4 4 -4 52
2 106 7 64 7 127 0 183 -5 47 -7 90 -3 96 3 5 24 7 47 4 30 -4 50 -15 73 -41z
m418 32 c4 -4 8 -248 5 -375 0 -10 -30 -13 -118 -13 l-118 0 2 198 c1 108 3
197 3 197 159 0 221 -2 226 -7z m-1435 -172 c0 -96 -3 -181 -6 -190 -9 -23
-129 -23 -138 0 -8 21 -8 349 1 357 3 4 37 7 75 7 l68 0 0 -174z m1977 107
l-2 -58 -192 4 -193 4 0 -50 c0 -61 1 -61 147 -54 83 5 105 9 115 24 11 15 25
18 68 15 l55 -3 -2 -84 c-1 -46 -3 -85 -5 -86 -8 -7 -425 -9 -436 -2 -9 6 -12
50 -10 178 l2 169 227 0 228 0 -2 -57z m-1108 -113 l0 -140 -29 0 -29 0 -3
123 c-4 153 -3 157 33 157 l29 0 -1 -140z m-1204 105 c0 -11 -79 -19 -102 -11
-8 3 -11 11 -8 16 8 14 110 9 110 -5z m540 6 c3 -6 -3 -15 -14 -20 -27 -15
-31 -14 -31 9 0 21 33 29 45 11z m-6033 -71 c0 -38 1 -76 2 -82 1 -9 -19 -15
-57 -18 -31 -3 -57 -9 -57 -15 0 -5 30 -12 67 -15 61 -4 68 -7 71 -27 l3 -23
-195 0 c-107 0 -197 4 -200 9 -3 4 3 16 12 25 14 12 42 17 112 18 58 2 95 7
97 14 5 16 -25 26 -45 15 -9 -5 -46 -6 -82 -2 l-65 6 -3 83 -3 82 171 0 170 0
2 -70z m7593 -21 c11 -17 -2 -23 -66 -27 -44 -3 -64 -1 -69 9 -5 7 -6 17 -4
21 8 12 132 10 139 -3z m-5159 -34 c12 -19 25 -25 50 -25 27 0 37 5 46 25 15
32 21 32 35 -5 15 -41 47 -40 69 1 14 29 18 30 52 24 48 -9 54 -16 50 -56 l-3
-34 -240 0 -239 0 2 -245 c2 -135 -1 -251 -6 -258 -6 -9 -30 -12 -78 -10 l-69
3 0 40 c0 38 -2 40 -29 40 -16 0 -31 -6 -33 -12 -3 -7 2 -13 11 -13 17 0 39
-34 29 -44 -11 -11 -43 -6 -43 7 0 6 -5 4 -11 -6 -8 -14 -18 -17 -42 -11 -47
10 -52 15 -29 33 19 14 22 30 28 156 7 158 7 326 -2 368 l-6 27 94 1 c51 1
127 5 168 9 155 14 178 13 196 -15z m5515 -510 l0 -520 -55 -3 -56 -3 0 91 c0
71 -3 92 -15 96 -8 4 -15 16 -15 29 0 27 -17 35 -76 35 -42 0 -44 -1 -44 -30
l0 -29 -172 -3 c-129 -2 -176 0 -184 10 -8 9 -71 12 -247 12 l-236 0 -3 28
c-3 24 -8 27 -45 30 -39 3 -42 1 -45 -25 l-3 -28 -454 -3 c-292 -1 -459 -6
-467 -12 -7 -6 -75 -12 -155 -13 l-144 -2 0 255 0 255 -189 3 c-136 2 -192 -1
-203 -10 -12 -10 -14 -52 -12 -248 1 -130 -1 -242 -5 -248 -4 -7 -15 -12 -25
-12 -27 0 -31 -29 -24 -182 l6 -138 -221 0 c-171 0 -222 3 -222 13 0 6 0 260
-1 562 l-1 550 219 0 218 0 1 -73 c0 -59 4 -75 20 -87 16 -12 79 -14 377 -15
308 0 358 -2 363 -15 5 -13 98 -15 745 -15 648 0 740 2 745 15 5 13 44 15 260
15 l254 0 0 120 0 121 56 -3 55 -3 0 -520z m-1586 405 l0 -85 -121 -3 c-116
-2 -122 -2 -147 22 -31 29 -26 36 19 29 58 -10 124 32 116 72 -3 18 0 25 12
25 9 0 16 7 16 16 0 12 10 14 53 12 l52 -3 0 -85z m-389 33 c-5 -24 1 -33 39
-63 25 -19 44 -39 42 -45 -2 -5 -33 -10 -68 -10 l-64 0 -3 52 c-4 61 10 93 39
93 17 0 20 -5 15 -27z m-5628 -28 c9 -3 12 -108 12 -479 0 -370 -3 -475 -12
-478 -7 -2 -74 -3 -148 -3 l-135 0 3 105 4 104 -44 37 c-41 36 -42 39 -32 68
7 16 9 32 6 35 -3 3 -29 6 -59 6 -52 0 -53 1 -53 29 0 25 -5 30 -35 35 -42 8
-73 -6 -77 -36 -3 -20 -10 -23 -53 -26 -61 -4 -70 -11 -53 -47 11 -25 10 -29
-17 -48 -59 -44 -59 -43 -60 -229 0 -149 -3 -178 -19 -209 l-19 -37 -100 4
c-55 2 -103 7 -106 10 -3 3 -7 218 -8 477 -2 399 0 475 13 494 13 21 21 22
102 20 71 -2 93 2 116 16 26 17 29 18 46 2 10 -9 23 -14 29 -11 5 3 19 -7 31
-24 20 -29 24 -30 93 -28 46 1 78 7 89 16 10 8 24 12 32 9 9 -4 22 3 31 16
l16 22 29 -34 c32 -37 54 -37 70 1 6 13 14 30 19 38 30 54 40 80 35 94 -3 9
-10 16 -15 16 -9 0 -13 33 -4 41 5 6 254 0 273 -6z m3765 -31 c-4 -12 -8 -13
-14 -3 -9 15 -2 32 11 24 5 -3 6 -13 3 -21z m95 -201 c2 -188 2 -192 -19 -198
-39 -13 -49 12 -51 128 l-1 107 -32 0 -33 0 4 -97 c2 -57 -1 -102 -7 -109 -6
-7 -25 -16 -42 -20 -46 -9 -48 -12 -31 -39 10 -16 14 -34 10 -51 -6 -21 -11
-25 -39 -22 -38 4 -48 35 -23 73 15 23 14 24 -32 55 -32 21 -53 29 -67 24 -11
-3 -35 -8 -53 -9 -18 -2 -36 -6 -39 -9 -4 -3 -2 -35 3 -71 10 -62 9 -66 -13
-80 -29 -20 -239 -22 -245 -2 -2 6 -4 91 -3 187 l1 175 113 3 c81 2 119 7 136
18 20 13 56 15 202 14 232 -3 233 -3 233 14 0 8 -6 16 -14 19 -8 3 -20 15 -26
26 -8 17 -6 25 10 41 12 12 29 20 38 18 15 -3 17 -24 20 -195z m-126 147 l26
-30 -39 0 c-41 0 -57 16 -45 45 9 23 29 18 58 -15z m-4073 14 c35 -7 37 -12
17 -40 -13 -17 -28 -19 -178 -19 -182 0 -218 6 -218 35 0 13 9 20 28 23 45 7
317 7 351 1z m2569 -14 l32 -20 0 -125 0 -125 -32 -21 c-27 -17 -45 -20 -101
-16 -101 7 -107 15 -107 149 0 60 5 118 10 129 26 47 140 64 198 29z m4352 1
c0 -6 15 -11 33 -13 17 -2 31 -7 30 -13 -4 -17 -50 -17 -67 0 -18 18 -21 35
-6 35 6 0 10 -4 10 -9z m-4195 -150 c2 -76 -1 -154 -5 -173 -5 -20 -8 34 -9
146 -1 99 2 176 5 173 4 -4 8 -69 9 -146z m3965 123 c0 -11 -9 -14 -37 -12
-52 4 -56 28 -4 28 30 0 41 -4 41 -16z m-6940 -54 c0 -5 -9 -10 -20 -10 -11 0
-20 5 -20 10 0 6 9 10 20 10 11 0 20 -4 20 -10z m5733 -350 l2 -235 -50 0
c-40 0 -49 3 -46 15 32 119 25 143 -43 138 -33 -2 -41 -7 -41 -23 0 -13 7 -21
20 -21 11 -1 26 -2 34 -3 10 -1 12 -10 8 -37 -10 -61 -25 -70 -113 -67 -42 1
-78 4 -81 7 -3 3 -6 366 -3 456 0 3 70 5 155 5 l155 0 3 -235z m-3762 170 c-2
-14 -5 -371 -7 -794 -2 -423 -6 -772 -10 -775 -5 -6 -167 -21 -172 -17 -2 3
-4 1560 -2 1609 0 4 44 6 98 5 l97 -3 -4 -25z m207 1 c2 -13 1 -38 -2 -56 -6
-30 -10 -33 -52 -39 -67 -9 -98 9 -102 58 -5 64 -1 67 80 64 68 -3 73 -5 76
-27z m2177 -130 c-9 -16 -25 -3 -18 15 4 10 9 12 15 6 6 -6 7 -15 3 -21z m93
-155 c1 -83 7 -155 13 -162 7 -8 7 -14 -1 -19 -5 -3 -10 -17 -10 -30 0 -38
-53 -44 -64 -7 -5 19 -10 135 -7 198 1 33 5 43 21 47 11 3 20 10 20 16 0 6 -9
19 -20 28 -22 19 -27 68 -7 77 6 2 21 4 32 3 19 -2 20 -10 23 -151z m-140 132
c19 -19 15 -48 -7 -48 -24 0 -45 25 -37 45 7 18 27 20 44 3z m-153 -28 c3 -6
-1 -13 -10 -16 -19 -8 -30 0 -20 15 8 14 22 14 30 1z m165 -95 c0 -8 6 -15 14
-15 8 0 18 -5 22 -11 5 -8 0 -10 -17 -6 l-24 6 0 -97 0 -97 -45 -10 c-45 -10
-46 -11 -33 -35 7 -14 12 -36 11 -50 -3 -21 -8 -25 -38 -25 -31 0 -35 3 -35
25 1 14 4 37 8 53 6 23 4 29 -17 37 -13 5 -27 14 -31 19 -8 14 -72 14 -80 1
-4 -6 -13 -5 -25 2 -29 18 -35 3 -32 -71 l2 -67 -122 4 c-68 2 -128 5 -134 7
-7 2 -10 57 -8 161 1 88 2 163 3 167 0 4 53 7 117 6 63 -1 118 2 121 5 4 3 82
6 175 6 143 0 168 -2 168 -15z m-4150 -25 c7 -4 10 -16 8 -26 -3 -17 -13 -19
-108 -19 -100 0 -105 1 -108 22 -3 17 3 22 25 26 46 7 171 5 183 -3z m6890
-65 c0 -8 -7 -15 -15 -15 -8 0 -15 7 -15 15 0 8 7 15 15 15 8 0 15 -7 15 -15z
m-6875 -26 c53 -13 98 -55 75 -69 -8 -5 -93 -10 -188 -10 -140 0 -174 3 -178
14 -10 25 14 54 53 64 52 14 185 14 238 1z m7830 1 c4 -6 -7 -10 -25 -10 -18
0 -29 4 -25 10 3 6 15 10 25 10 10 0 22 -4 25 -10z m-1881 -246 c-1 -182 -3
-219 -15 -219 -12 0 -14 37 -17 210 -1 115 0 216 3 223 3 8 10 12 17 10 9 -3
12 -62 12 -224z m1098 211 c-1 -5 -15 -10 -30 -10 -23 0 -27 -4 -27 -30 0 -27
4 -30 33 -33 l33 -3 -3 -132 -3 -132 -40 -2 -41 -3 3 129 c4 140 -5 181 -37
181 -11 0 -20 5 -20 11 0 6 9 9 20 6 11 -3 23 -1 26 5 15 24 92 36 86 13z
m-1371 -205 c-2 -102 -4 -186 -5 -187 -1 -1 -114 -3 -251 -5 -217 -3 -250 -1
-250 12 0 12 19 16 102 18 75 2 104 7 114 18 21 26 -3 34 -109 37 -55 2 -104
5 -107 9 -3 3 -2 68 2 144 l8 139 108 3 c122 3 129 -1 103 -63 -9 -21 -16 -48
-16 -61 0 -23 -3 -24 -65 -24 -53 0 -66 -3 -75 -19 -28 -53 -4 -77 85 -83 52
-3 53 -2 80 72 l16 45 103 -3 c87 -3 106 -1 120 13 18 19 14 73 -8 87 -6 4
-47 7 -91 7 -105 -1 -105 -1 -105 15 0 21 8 22 132 16 l113 -5 -4 -185z m453
185 c3 -8 14 -15 24 -15 11 0 25 7 32 15 16 19 158 21 182 3 22 -17 30 -165
10 -173 -32 -12 -42 -5 -42 29 0 18 -7 39 -15 46 -8 7 -15 19 -15 26 0 8 -6
14 -14 14 -8 0 -16 7 -20 15 -3 8 -16 15 -29 15 -14 0 -30 -7 -37 -15 -7 -8
-27 -15 -46 -15 -18 0 -39 7 -48 15 -19 19 -45 19 -52 0 -3 -8 -14 -17 -24
-20 -26 -8 -34 -37 -16 -51 9 -6 16 -19 16 -28 0 -25 19 -19 47 14 21 25 32
30 69 30 36 0 50 -5 69 -26 14 -15 25 -33 25 -40 0 -8 5 -14 10 -14 30 0 -19
-96 -57 -111 -44 -16 -91 -11 -113 14 -12 12 -27 29 -35 38 -8 9 -15 29 -15
46 0 18 -6 33 -15 37 -8 3 -15 12 -15 20 0 7 -7 16 -15 20 -11 4 -15 21 -15
60 0 62 1 62 96 65 38 1 53 -3 58 -14z m521 5 c4 -6 7 -95 8 -198 l2 -187
-100 0 -100 0 3 91 c3 74 1 94 -13 107 -9 10 -20 17 -23 17 -6 0 -7 36 -2 162
0 4 46 9 103 11 56 1 105 4 109 5 4 1 10 -3 13 -8z m221 -12 c62 -48 63 -53
64 -188 1 -69 5 -134 9 -145 14 -34 -6 -45 -85 -45 -40 0 -75 4 -78 8 -3 5 -1
50 5 100 7 60 7 121 0 179 -6 60 -6 92 1 101 16 19 52 14 84 -10z m450 10 c2
-3 5 -90 5 -194 l2 -189 -120 -3 -119 -3 1 193 c0 106 3 195 7 198 8 6 217 4
224 -2z m-1441 -193 l0 -190 -62 2 c-34 0 -67 4 -72 8 -12 7 -16 357 -4 369 4
4 37 6 73 4 l65 -3 0 -190z m1981 113 l-1 -73 -56 -3 c-45 -2 -58 1 -74 18
-16 18 -30 20 -137 20 l-118 0 0 -50 c0 -38 4 -52 19 -60 26 -13 136 -12 186
2 22 6 72 12 110 12 l70 1 -2 -74 c-1 -40 -4 -75 -5 -76 -8 -8 -425 -8 -436
-1 -10 6 -13 46 -11 174 2 92 4 170 7 175 2 4 104 7 227 7 l223 0 -2 -72z
m-1108 -98 c0 -131 -1 -140 -20 -146 -11 -3 -25 -1 -30 4 -8 8 -13 177 -9 261
1 9 21 17 48 20 8 1 11 -38 11 -139z m-1210 104 c1 -5 -20 -10 -48 -12 -44 -3
-60 4 -46 19 9 9 91 3 94 -7z m552 2 c0 -7 -8 -16 -17 -20 -10 -3 -23 -9 -30
-12 -9 -4 -9 1 0 20 13 27 47 36 47 12z m187 -12 c15 -16 23 -35 21 -50 -3
-28 -21 -33 -26 -9 -4 20 -38 55 -52 55 -5 0 -10 7 -10 15 0 24 40 17 67 -11z
m-6227 -38 c0 -31 -5 -58 -12 -62 -7 -5 -5 -11 8 -21 19 -14 19 -15 -1 -29
-11 -9 -35 -14 -55 -12 -19 2 -36 -1 -38 -6 -1 -6 21 -11 49 -13 54 -3 79 -16
79 -39 0 -16 -10 -16 -239 -15 -79 0 -148 4 -153 9 -16 16 27 41 77 44 66 4
64 22 -3 26 -44 3 -53 6 -50 20 3 14 18 17 98 18 52 0 113 2 135 3 l40 3 -45
10 c-50 12 -68 12 -123 2 -20 -3 -53 -3 -72 0 -35 7 -35 7 -35 61 l0 55 170 0
170 0 0 -54z m4118 17 c-4 -22 -22 -20 -26 1 -2 10 3 16 13 16 10 0 15 -7 13
-17z m-50 -35 c20 -20 14 -38 -12 -38 -28 0 -40 14 -32 35 7 18 28 19 44 3z
m3528 -20 c12 -19 -28 -38 -82 -38 -38 0 -53 4 -58 16 -3 9 -4 20 0 25 8 13
131 11 140 -3z m-1231 -138 l0 -85 -110 -3 c-60 -2 -120 0 -132 3 -37 9 -28
33 15 41 20 3 52 17 70 31 26 19 31 29 26 49 -4 17 -2 24 9 24 8 0 18 7 21 16
4 11 18 14 53 12 l48 -3 0 -85z m-6129 60 l124 0 0 -449 c0 -283 -4 -452 -10
-456 -5 -3 -20 0 -32 7 -18 10 -128 13 -487 15 -321 1 -467 5 -475 13 -14 14
-17 639 -3 658 6 8 38 12 96 12 68 0 93 4 119 20 39 24 60 27 42 5 -10 -13
-10 -19 5 -35 10 -11 26 -20 35 -20 9 0 25 -9 35 -20 15 -17 31 -20 96 -20 43
0 81 5 84 10 3 6 16 10 29 10 12 0 27 5 33 11 12 12 53 -4 53 -21 0 -6 11 -10
26 -10 19 0 28 7 35 30 6 17 15 30 20 30 5 0 9 10 9 22 0 12 7 29 16 39 15 17
15 21 -5 62 -32 66 -25 104 17 91 8 -2 70 -4 138 -4z m5736 -33 c-3 -20 1 -27
13 -27 9 0 19 -9 22 -20 4 -16 14 -20 47 -21 22 -1 31 -4 20 -6 -12 -2 -24
-13 -27 -24 -5 -18 -12 -20 -64 -17 l-58 3 -3 52 c-3 59 11 96 36 91 12 -2 16
-11 14 -31z m-5946 -100 c4 -4 -6 -22 -23 -39 -32 -31 -32 -32 -128 -29 -62 1
-102 -2 -111 -10 -11 -9 -22 -8 -50 6 -19 9 -38 23 -41 30 -2 8 -13 17 -24 20
-26 8 -24 23 4 28 38 8 365 2 373 -6z m6674 -32 c0 -16 -64 -22 -74 -6 -9 14
5 21 41 21 23 0 33 -5 33 -15z m289 -1 c2 -2 2 -6 -1 -9 -8 -8 -68 6 -68 16 0
8 59 1 69 -7z m-2703 -476 c2 -2 4 -154 4 -338 l2 -334 -44 -14 c-74 -25 -71
-20 -69 -114 l2 -87 -30 -16 c-17 -8 -33 -26 -37 -39 -7 -30 -26 -39 -84 -40
l-45 -1 3 353 c3 279 1 356 -9 369 -12 13 -42 15 -226 11 -225 -4 -255 -10
-220 -46 15 -15 43 -17 207 -20 138 -2 190 -6 190 -15 0 -7 2 -162 3 -344 2
-259 -1 -334 -10 -338 -17 -6 -16 -75 2 -99 14 -18 60 -46 76 -46 17 0 9 21
-21 50 -16 16 -30 37 -30 47 0 14 5 12 28 -10 31 -29 48 -34 55 -14 2 6 8 8
13 4 5 -4 2 -12 -5 -16 -35 -22 4 -30 127 -26 90 2 134 -1 152 -10 16 -8 45
-11 77 -8 l52 5 -1 -85 c-1 -88 7 -121 23 -96 5 8 9 25 9 39 0 40 11 48 81 55
l65 7 18 -40 c27 -60 20 -76 -39 -83 -28 -4 -63 -12 -78 -18 -16 -6 -39 -8
-52 -5 -13 3 -37 -2 -55 -11 -29 -15 -34 -15 -55 -1 -31 20 -32 20 -38 -4 -4
-16 -14 -20 -49 -20 -37 0 -49 5 -77 34 -19 19 -40 32 -47 29 -20 -8 -17 -43
4 -44 10 0 12 -3 4 -6 -18 -7 -42 -57 -42 -88 0 -28 -24 -35 -34 -9 -3 9 -6
49 -6 89 0 94 -12 87 193 117 14 2 22 -7 30 -31 22 -64 37 -50 37 36 0 90 -10
114 -38 96 -11 -6 -23 -8 -28 -4 -5 5 -62 11 -127 14 -91 5 -117 3 -114 -6 2
-7 28 -13 68 -14 63 -2 168 -40 152 -56 -3 -4 -35 -7 -70 -7 -39 0 -76 -6 -94
-16 -28 -14 -33 -14 -55 1 -14 9 -34 25 -45 36 -37 37 -58 23 -66 -44 -15
-146 -15 -208 0 -231 9 -13 13 -33 10 -46 -5 -18 5 -32 48 -71 30 -27 59 -49
65 -49 12 0 28 34 38 82 7 31 36 39 36 10 0 -10 7 -27 15 -39 10 -14 13 -32 9
-48 -5 -21 1 -32 37 -65 24 -21 51 -39 60 -40 26 0 40 24 33 58 -6 28 -4 32
22 37 16 3 49 11 74 17 25 6 63 12 85 12 35 1 40 -2 37 -19 -2 -11 -7 -54 -10
-95 l-7 -74 -280 -1 c-154 0 -287 -2 -295 -5 -13 -4 -15 29 -18 255 -2 252 -3
260 -24 283 -21 21 -28 23 -86 16 -59 -6 -64 -5 -69 15 -11 42 -103 19 -103
-25 0 -8 -4 -12 -10 -9 -15 9 -12 36 6 50 14 9 14 16 5 33 -10 19 -9 23 6 29
10 4 35 23 56 42 34 32 37 40 37 87 0 29 -4 56 -10 59 -5 3 -10 15 -10 25 0
31 -44 68 -74 63 -29 -6 -35 11 -10 25 9 5 14 18 12 33 -3 22 -7 24 -55 24
-29 -1 -53 2 -54 5 -2 25 -5 831 -3 833 5 4 785 -1 790 -5z m-2816 -1057 c1
-420 -1 -766 -4 -768 -7 -7 -638 -4 -645 3 -12 12 -18 169 -7 177 6 5 51 6 99
4 73 -4 90 -2 94 11 4 9 -3 22 -15 33 -12 9 -22 29 -22 43 0 24 4 26 40 26 52
0 93 36 88 78 -4 37 -38 37 -56 0 -10 -21 -20 -28 -43 -28 l-29 0 0 130 c0
107 3 132 15 136 8 4 15 16 15 29 0 13 -7 25 -15 29 -8 3 -15 17 -15 31 0 22
4 25 39 25 53 0 93 38 89 83 -2 24 -8 33 -25 35 -17 3 -23 -2 -23 -15 0 -27
-20 -43 -52 -43 l-28 0 -1 83 c-1 45 0 95 1 110 1 16 -6 37 -16 48 -16 18 -16
19 7 19 13 0 30 4 38 9 17 11 7 41 -13 41 -17 0 -26 22 -19 48 4 15 16 21 56
25 58 5 79 26 75 72 -4 38 -37 41 -54 6 -15 -30 -37 -43 -58 -35 -13 5 -16 26
-16 134 0 123 -1 128 -22 133 -41 11 -46 -6 -44 -127 l3 -114 -36 -6 c-66 -11
-108 -6 -134 14 -27 21 -82 27 -92 9 -4 -6 -19 -7 -36 -4 l-29 7 0 -57 0 -56
-77 3 -78 3 0 187 c0 102 3 190 8 194 4 4 22 3 40 -4 50 -17 908 -15 950 3 18
7 35 10 39 7 4 -4 8 -351 8 -771z m4988 547 c-6 -18 -28 -21 -28 -4 0 9 7 16
16 16 9 0 14 -5 12 -12z m356 -15 c3 -10 4 -97 3 -193 -2 -191 -2 -191 -63
-176 -24 6 -24 7 -24 132 l0 125 -27 -3 -28 -3 -5 -120 -5 -120 -59 -8 c-53
-8 -61 -6 -96 18 -34 24 -42 25 -101 18 l-64 -8 3 -55 c2 -30 8 -58 15 -62 23
-15 -17 -28 -78 -26 l-60 3 -3 208 c-2 161 0 208 10 211 7 3 32 7 56 9 36 4
43 3 38 -10 -15 -39 8 -44 218 -42 110 1 207 4 213 6 20 8 15 31 -7 43 -27 14
-26 48 3 60 35 14 55 11 61 -7z m-6008 -91 c6 -4 16 -17 23 -29 7 -13 21 -23
34 -23 26 0 38 -8 53 -35 11 -20 8 -20 -145 -22 -111 -1 -151 1 -138 8 10 6
39 9 65 7 44 -3 47 -1 55 27 23 76 29 83 53 67z m2354 -69 c6 -209 7 -198 -19
-201 -17 -3 -31 6 -53 32 -29 35 -31 36 -81 30 -28 -4 -62 -13 -76 -20 -14 -8
-54 -14 -89 -14 -35 0 -75 -6 -90 -14 -15 -8 -39 -12 -54 -9 -26 5 -27 7 -22
52 4 25 13 51 22 56 8 6 23 17 33 26 13 13 30 16 81 12 48 -4 72 -1 96 11 17
9 55 16 84 16 29 0 64 7 78 14 27 15 90 21 90 9z m1555 -98 c0 -118 -12 -130
-70 -71 -32 34 -37 35 -82 29 -26 -3 -57 -11 -68 -16 -11 -6 -56 -14 -100 -17
-44 -4 -95 -13 -112 -21 -21 -8 -36 -10 -42 -4 -15 16 -1 116 18 123 9 3 20
11 24 19 6 10 25 11 76 7 52 -5 74 -3 99 10 17 9 55 16 84 16 29 0 64 7 78 14
14 8 41 14 60 13 l35 -2 0 -100z m-4165 31 c6 -18 19 -19 186 -20 l179 -1 -2
-25 c-1 -14 -4 -69 -5 -122 -2 -53 -6 -100 -10 -103 -3 -4 -33 -9 -65 -12 -52
-5 -63 -2 -98 21 -27 18 -46 25 -60 20 -11 -3 -37 -8 -57 -11 -36 -5 -37 -6
-40 -52 l-3 -46 -70 4 c-38 1 -73 5 -77 8 -4 2 -8 82 -7 178 0 194 -6 180 78
180 34 0 45 -4 51 -19z m3009 -115 c9 -6 -2 -11 -33 -15 -50 -8 -76 -33 -76
-74 0 -13 -4 -20 -10 -17 -16 10 -13 85 4 85 7 0 19 7 26 15 13 16 67 20 89 6z
m1546 -1 c4 -6 -11 -10 -37 -10 -31 0 -39 3 -28 10 20 13 57 13 65 0z m-2030
-26 c14 -15 25 -35 25 -45 0 -30 18 -31 32 -2 13 27 16 28 89 27 58 -1 81 -6
97 -20 31 -26 29 -48 -4 -41 -20 3 -33 -2 -49 -19 -21 -22 -27 -24 -65 -15
-23 5 -44 12 -47 14 -3 3 -24 -5 -48 -19 -35 -19 -58 -24 -114 -24 l-71 0 0
48 c0 26 -5 53 -11 59 -21 21 -2 43 38 44 21 1 49 5 63 9 38 12 39 12 65 -16z
m1558 -7 c13 -18 26 -41 28 -50 5 -25 23 -26 27 -2 8 41 23 48 94 42 42 -4 77
-13 93 -24 37 -27 31 -43 -15 -43 -34 0 -42 -4 -50 -26 -8 -20 -14 -24 -23
-16 -7 6 -35 14 -63 17 -45 6 -54 4 -80 -19 l-29 -25 30 -25 c22 -17 35 -22
47 -15 9 5 33 9 52 9 l36 0 0 -87 c0 -91 12 -135 23 -91 4 12 7 33 7 46 0 25
22 29 40 7 16 -19 39 -19 54 -1 7 9 36 16 81 18 l70 3 0 -35 c0 -41 -28 -60
-92 -60 -23 0 -54 -5 -70 -11 -15 -6 -52 -13 -80 -14 -60 -3 -90 -20 -72 -41
12 -15 3 -38 -12 -29 -5 4 -9 15 -9 25 0 11 -9 24 -20 30 -17 9 -20 22 -21 83
-2 118 -4 122 -77 125 -44 2 -69 -2 -86 -14 -24 -15 -25 -14 -40 14 -8 16 -12
32 -9 36 4 3 30 6 59 6 29 0 59 3 68 6 31 12 4 24 -55 24 l-59 0 0 35 c0 20
-7 47 -16 60 -23 36 -12 55 33 56 21 0 47 4 58 9 36 15 52 11 78 -23z m383 -9
c-3 -13 -6 -31 -6 -41 0 -10 -4 -15 -10 -12 -11 7 -14 58 -3 68 14 15 25 6 19
-15z m-2148 -32 c17 -24 22 -45 20 -73 -3 -38 -3 -38 -56 -44 -29 -4 -61 -13
-70 -21 -44 -38 -82 -28 -82 22 0 15 -7 44 -16 65 -23 56 -15 65 58 66 35 0
72 4 83 9 33 14 39 12 63 -24z m1581 -61 c1 -44 -8 -51 -68 -58 -35 -4 -62
-14 -77 -28 -28 -27 -64 -18 -64 15 0 13 -7 40 -15 59 -8 20 -15 48 -15 62 0
24 2 25 68 26 37 1 78 4 92 8 20 6 30 2 52 -23 16 -19 27 -43 27 -61z m2157
70 c12 -19 22 -23 40 -19 22 6 24 3 24 -30 0 -40 -24 -51 -35 -16 -6 19 -8 19
-31 3 -19 -12 -30 -13 -48 -5 -13 6 -32 9 -42 8 -11 -2 -13 -1 -6 1 6 3 12 13
12 24 0 23 34 59 55 59 8 0 22 -11 31 -25z m-3028 -12 c-2 -13 5 -19 24 -21
27 -3 34 -15 39 -62 3 -36 -2 -39 -63 -42 -38 -2 -63 -8 -66 -15 -3 -10 13
-13 57 -13 33 0 63 -5 66 -10 10 -16 -14 -22 -111 -29 -18 -1 -21 -7 -19 -38
2 -26 8 -37 20 -39 54 -8 62 -34 9 -34 -19 0 -42 -7 -50 -15 -10 -10 -35 -15
-68 -15 -29 0 -74 -7 -99 -16 -66 -22 -76 -16 -70 43 7 62 15 69 51 47 27 -15
33 -16 48 -3 9 8 42 16 72 19 34 3 57 10 60 19 3 10 -8 12 -49 10 -49 -4 -54
-2 -54 16 0 17 7 20 50 20 28 0 50 5 50 10 0 6 -22 10 -48 10 -47 0 -49 2 -67
42 -15 35 -16 44 -5 59 11 16 17 16 54 6 36 -11 45 -10 78 7 21 11 46 22 55
25 11 3 15 11 12 21 -4 10 0 15 10 15 11 0 16 -7 14 -17z m2878 -19 c-5 -13
-10 -14 -18 -6 -6 6 -8 18 -4 28 5 13 10 14 18 6 6 -6 8 -18 4 -28z m-3972
-40 c23 -9 20 -31 -5 -39 -25 -8 -44 7 -36 29 7 17 16 19 41 10z m143 -28 c19
-42 13 -63 -23 -72 -56 -14 -90 82 -34 97 14 4 28 7 33 8 4 1 15 -14 24 -33z
m1430 17 c2 -6 -6 -17 -18 -23 -17 -10 -24 -9 -36 3 -9 8 -12 20 -8 27 9 14
57 9 62 -7z m126 -26 c10 -43 -3 -67 -37 -67 -35 0 -48 16 -50 56 -1 32 3 39
24 45 42 12 54 6 63 -34z m-875 -5 c2 -15 -2 -22 -12 -22 -11 0 -16 9 -16 26
0 31 23 28 28 -4z m1554 -24 c-15 -15 -27 14 -17 40 6 15 8 15 18 -6 7 -16 7
-26 -1 -34z m-2406 -28 c8 0 14 7 14 15 0 8 4 15 9 15 15 0 23 -18 11 -25 -5
-3 -10 -13 -10 -20 0 -12 23 -14 127 -11 151 4 163 1 163 -30 0 -24 -2 -24
-67 -19 -38 2 -103 7 -146 10 -78 5 -79 5 -123 51 -48 50 -61 79 -18 39 15
-14 33 -25 40 -25z m4042 36 c89 -1 165 -6 169 -10 8 -8 6 -223 -2 -236 -3 -6
-16 -10 -28 -10 -42 0 -51 -14 -33 -49 14 -25 21 -30 40 -25 19 4 26 1 31 -16
4 -12 5 -23 3 -25 -2 -2 -68 -6 -148 -8 -80 -2 -113 -3 -75 0 95 5 101 7 83
36 -12 17 -13 28 -5 46 10 20 7 27 -23 52 -35 29 -74 37 -85 19 -3 -5 -22 -10
-41 -10 -20 0 -35 -5 -35 -12 -1 -7 -2 -29 -3 -48 l-1 -35 -62 -3 -63 -3 0
176 0 177 58 -6 c31 -3 130 -8 220 -10z m-5671 -15 c10 -11 31 -21 48 -23 31
-3 42 -23 26 -46 -7 -12 -14 -11 -39 2 -19 10 -33 12 -37 6 -3 -6 -19 -10 -36
-10 -27 0 -29 2 -29 39 0 52 34 68 67 32z m2257 13 c18 -7 22 -49 5 -60 -6 -3
-16 -1 -22 5 -16 16 -79 13 -106 -5 -19 -14 -25 -14 -32 -3 -5 8 -9 20 -9 27
0 6 0 15 0 20 0 4 26 10 57 13 32 3 66 6 75 7 9 1 23 -1 32 -4z m136 -101 c0
-49 3 -98 6 -110 5 -17 0 -25 -19 -34 -18 -8 -25 -19 -24 -35 1 -12 -2 -23 -8
-23 -5 -1 -10 8 -10 19 0 11 -8 25 -17 32 -13 10 -17 34 -20 113 -1 55 1 106
5 113 5 6 26 12 48 12 l39 0 0 -87z m96 50 c22 -29 16 -39 -21 -39 -37 0 -41
6 -25 37 13 24 29 24 46 2z m1558 -5 c7 -29 -8 -44 -33 -32 -15 7 -17 14 -10
32 11 28 35 28 43 0z m-1982 -125 c2 -60 1 -112 -3 -116 -4 -5 -24 -11 -46
-14 l-40 -5 -6 108 c-4 71 -2 112 5 121 6 7 27 13 48 13 l38 0 4 -107z m-2337
62 l0 -30 177 4 178 3 -2 -125 -2 -125 -59 -7 c-58 -7 -58 -7 -38 -26 12 -11
21 -23 21 -27 0 -4 15 -12 32 -17 19 -6 38 -21 45 -35 7 -13 11 -25 10 -26 -1
-1 -19 1 -39 4 -26 3 -38 9 -39 21 -1 15 -2 15 -6 0 -5 -21 -45 -29 -142 -29
-53 0 -71 3 -61 10 8 5 39 10 67 10 49 0 53 2 59 28 3 15 10 37 15 50 10 26 5
42 -15 42 -8 0 -19 7 -26 15 -10 12 -28 15 -79 11 l-66 -4 -3 -57 -3 -57 -72
7 c-40 4 -75 9 -79 11 -4 3 -7 87 -7 189 l-1 184 53 4 c80 5 82 5 82 -28z
m2446 25 c29 0 39 -4 39 -16 0 -12 -10 -14 -52 -12 -43 2 -54 7 -56 22 -3 14
0 17 13 12 9 -3 34 -6 56 -6z m1609 -5 c0 -19 -41 -29 -85 -21 -53 10 -42 25
23 29 31 2 58 4 60 5 1 1 2 -5 2 -13z m-1513 -105 c5 -33 7 -62 5 -65 -3 -3
-22 -5 -42 -5 -21 0 -57 -7 -81 -15 -49 -18 -73 -13 -66 12 3 10 8 39 12 66 6
46 7 47 43 48 20 1 51 5 67 9 17 4 35 8 41 9 6 0 16 -26 21 -59z m2021 32 c3
-9 -3 -13 -19 -10 -12 1 -24 9 -27 16 -3 9 3 13 19 10 12 -1 24 -9 27 -16z
m-2354 -74 c3 -17 6 -43 6 -59 0 -27 -2 -29 -43 -29 -35 0 -49 6 -72 30 -16
17 -37 30 -47 30 -15 0 -18 -8 -18 -46 0 -27 -6 -51 -15 -60 -8 -9 -15 -27
-15 -41 0 -15 -5 -23 -12 -21 -19 6 -23 181 -6 196 7 6 51 16 98 22 47 6 87
13 88 15 11 10 31 -10 36 -37z m2399 30 c2 -7 -2 -21 -11 -31 -12 -14 -13 -22
-4 -43 19 -41 15 -82 -10 -95 -12 -6 -63 -14 -112 -17 -53 -3 -99 -11 -111
-18 -11 -8 -43 -14 -72 -14 -29 0 -72 -6 -95 -14 -24 -8 -70 -17 -102 -20 -33
-4 -65 -11 -72 -17 -6 -5 -40 -12 -75 -15 -35 -2 -90 -10 -123 -16 -56 -11
-60 -11 -77 11 -44 54 -7 111 72 111 31 0 66 8 134 32 17 6 74 14 127 19 54 5
107 13 117 19 11 5 37 10 58 10 22 0 48 7 59 15 12 9 42 14 79 15 39 0 69 6
83 16 13 9 43 16 67 16 41 0 45 2 45 24 0 25 15 33 23 12z m-1495 -21 c2 -10
-3 -17 -12 -17 -10 0 -16 9 -16 21 0 24 23 21 28 -4z m1556 14 c8 -13 -4 -42
-15 -35 -12 7 -12 44 0 44 6 0 12 -4 15 -9z m-2768 -63 c18 -35 28 -184 13
-194 -17 -10 -49 7 -55 32 -3 13 -10 24 -15 24 -15 0 -11 157 4 163 26 11 37
6 53 -25z m1139 -3 c10 -23 14 -47 10 -65 -5 -25 -13 -30 -56 -39 -28 -6 -76
-11 -108 -11 -35 0 -65 -6 -77 -15 -12 -9 -42 -14 -79 -15 -34 0 -66 -5 -71
-10 -6 -6 -48 -15 -94 -21 -46 -5 -93 -15 -104 -21 -12 -6 -46 -12 -76 -14
-30 -1 -81 -8 -112 -14 -46 -10 -61 -10 -73 0 -16 13 -20 76 -6 98 4 7 41 18
82 23 40 6 82 15 92 21 10 5 21 7 25 4 3 -3 12 0 21 8 10 8 54 16 115 20 55 3
104 10 110 16 5 5 28 10 51 10 22 1 51 7 65 15 14 8 52 15 85 15 36 0 68 6 79
15 11 8 39 15 62 15 38 0 43 -3 59 -35z m416 13 c6 -12 12 -62 13 -112 1 -87
0 -91 -21 -94 -13 -2 -23 1 -23 6 0 5 -9 19 -20 32 -17 19 -20 37 -20 107 l0
83 30 0 c20 0 33 -7 41 -22z m-193 -10 c7 -10 9 -398 2 -478 0 -8 -803 -1
-811 7 -4 4 -9 48 -11 98 -3 87 -2 90 22 102 14 7 45 13 70 13 25 0 67 7 94
15 27 8 67 15 88 15 22 0 48 5 59 11 11 6 50 14 87 19 37 5 79 12 93 15 21 6
32 0 64 -34 22 -23 47 -41 57 -41 16 0 18 8 16 68 -3 65 -2 67 22 70 43 6 50
26 30 82 l-18 50 63 0 c38 0 67 -5 73 -12z m2642 -33 c0 -8 -7 -15 -15 -15 -8
0 -15 7 -15 15 0 8 7 15 15 15 8 0 15 -7 15 -15z m-3602 -38 c2 -10 -3 -17
-12 -17 -10 0 -16 9 -16 21 0 24 23 21 28 -4z m1552 8 c0 -8 -4 -15 -9 -15
-13 0 -22 16 -14 24 11 11 23 6 23 -9z m-182 -25 c4 0 8 -44 10 -98 2 -88 1
-98 -18 -110 -18 -11 -23 -9 -45 15 -13 16 -25 36 -25 46 0 10 -4 27 -10 37
-15 28 10 120 32 120 10 0 18 5 18 11 0 6 7 3 16 -5 8 -9 18 -16 22 -16z
m-1544 -92 c7 -94 0 -118 -33 -118 -41 0 -68 72 -63 170 2 41 33 62 68 47 19
-8 22 -20 28 -99z m2908 -181 c2 -150 0 -275 -3 -280 -3 -4 -387 -6 -855 -5
l-849 3 0 49 0 49 315 -2 c173 -1 320 2 327 7 8 5 13 49 15 137 l3 130 60 8
c33 4 88 14 122 22 34 8 77 15 96 15 20 0 48 5 64 11 15 6 55 14 88 19 33 5
72 12 87 15 22 6 33 0 67 -35 59 -61 76 -53 76 35 0 65 1 70 21 68 12 -1 28 5
37 15 14 15 34 17 171 14 l155 -3 3 -272z"/>
<path d="M6910 4061 c0 -14 35 -23 64 -15 41 10 30 24 -19 24 -25 0 -45 -4
-45 -9z"/>
<path d="M6897 3913 c-13 -12 -7 -41 12 -64 l19 -24 27 28 c27 26 27 28 10 47
-18 19 -55 27 -68 13z"/>
<path d="M670 3901 c0 -17 5 -31 10 -31 6 0 10 11 10 24 0 14 -4 28 -10 31 -6
4 -10 -7 -10 -24z"/>
<path d="M6897 2833 c-11 -11 -8 -58 5 -71 19 -19 41 -14 61 14 18 24 18 26 1
45 -17 19 -54 26 -67 12z"/>
<path d="M667 2744 c-9 -10 2 -24 19 -24 8 0 14 7 14 15 0 15 -21 21 -33 9z"/>
<path d="M1902 1728 c-18 -18 -15 -94 4 -113 16 -15 19 -15 42 10 26 28 26 27
-7 94 -10 20 -24 24 -39 9z"/>
<path d="M1900 1291 c-18 -34 -12 -99 9 -111 16 -8 23 -5 40 16 22 28 28 54
12 54 -5 0 -11 14 -14 30 -7 34 -31 40 -47 11z"/>
<path d="M1902 858 c-13 -13 -16 -75 -6 -102 9 -22 36 -20 57 4 16 19 16 25 3
63 -15 44 -33 56 -54 35z"/>
<path d="M8507 1823 c-12 -12 -7 -50 8 -63 30 -25 82 25 60 59 -7 12 -58 15
-68 4z"/>
</g>
</svg>
