<?xml version="1.0" standalone="no"?>
<!DOCTYPE svg PUBLIC "-//W3C//DTD SVG 20010904//EN"
 "http://www.w3.org/TR/2001/REC-SVG-20010904/DTD/svg10.dtd">
<svg version="1.0" xmlns="http://www.w3.org/2000/svg"
 width="450.000000pt" height="249.000000pt" viewBox="0 0 450.000000 249.000000"
 preserveAspectRatio="xMidYMid meet">
<metadata>
Created by potrace 1.10, written by Peter Selinger 2001-2011
</metadata>
<g transform="translate(0.000000,249.000000) scale(0.100000,-0.100000)"
fill="#000000" stroke="none">
<path d="M1530 2420 c0 -6 -28 -10 -65 -10 l-65 0 0 -90 0 -90 -115 0 -115 0 0 -1045 0 -1045 -170 0 -170 0 0 50 0 50 51 0 c36 0 49 4 47 12 -3 8 -20 11 -48 9 -42 -3 -43 -2 -25 16 13 13 20 14 23 5 5 -17 29 -15 36 3 3 8 14 15 24 15 21 0 42 18 42 37 0 7 -7 13 -15 13 -8 0 -15 -7 -15 -15 0 -8 -7 -15 -16 -15 -9 0 -23 -8 -30 -17 -12 -17 -13 -16 -11 4 0 12 5 19 9 17 4 -3 8 24 8 60 0 50 -3 66 -14 66 -10 0 -14 -15 -15 -57 0 -31 -5 -60 -12 -63 -6 -4 -27 -3 -48 2 -75 19 -101 15 -101 -17 0 -22 -4 -25 -40 -25 l-40 0 0 98 0 97 40 0 c22 1 40 -3 40 -7 0 -4 -5 -8 -11 -8 -5 0 -8 -3 -6 -7 3 -5 57 -7 121 -5 99 3 114 5 104 17 -31 34 -38 45 -38 57 1 8 5 7 14 -4 7 -10 20 -18 29 -18 19 0 47 27 47 46 0 21 -21 17 -27 -5 -3 -11 -12 -18 -21 -16 -13 1 -17 14 -19 56 -1 30 -2 60 -2 67 -1 8 -7 12 -13 10 -18 -6 -22 -108 -5 -108 8 0 7 -4 -3 -10 -19 -12 -87 -13 -94 -1 -3 5 -22 9 -41 8 -29 -1 -35 -5 -35 -23 0 -36 25 -47 110 -48 44 -1 80 -4 80 -8 0 -5 -40 -8 -89 -8 -81 0 -90 2 -96 20 -5 16 -15 20 -46 20 l-39 0 0 95 c0 80 2 93 15 89 20 -8 65 4 65 16 0 6 -18 10 -40 10 l-40 0 -2 601 -3 602 -87 -2 -88 -2 0 75 c0 66 -3 77 -20 86 -15 8 -19 17 -15 31 5 16 1 19 -24 19 -21 0 -31 5 -31 15 0 9 -9 15 -25 15 -16 0 -25 -6 -25 -15 0 -10 -10 -15 -31 -15 -25 0 -30 -3 -25 -17 4 -9 -1 -25 -13 -37 -16 -18 -20 -39 -23 -131 l-3 -111 -63 4 c-40 3 -67 0 -77 -8 -13 -11 -15 -76 -15 -466 l0 -454 266 0 c208 0 265 3 261 13 -3 9 -62 12 -250 12 l-247 0 0 173 0 172 58 0 c46 0 60 4 70 20 11 18 23 20 122 20 67 0 110 -4 110 -10 0 -5 -8 -10 -17 -10 -15 0 -16 -2 -3 -10 10 -7 -16 -10 -83 -10 -63 0 -96 4 -92 10 9 15 -4 12 -21 -5 -14 -13 -13 -15 5 -15 12 0 21 -4 21 -10 0 -14 69 -13 110 2 26 9 35 9 38 0 7 -21 28 -13 41 14 7 16 9 44 6 68 l-7 41 76 0 76 0 0 -562 0 -563 48 0 c27 0 52 3 56 7 4 4 27 6 51 4 42 -2 45 -1 45 22 0 20 4 24 20 20 23 -6 27 -31 5 -39 -8 -4 -12 -11 -9 -16 4 -6 -1 -8 -12 -5 -41 12 -97 12 -102 -1 -2 -8 11 -12 47 -12 l50 0 3 -63 3 -62 768 -3 769 -2 -4 -38 -3 -37 599 0 598 0 -1 153 -2 152 113 0 c77 0 108 3 98 10 -13 9 -7 14 13 11 4 0 7 8 7 19 0 17 -7 20 -43 20 -24 0 -48 5 -53 10 -6 6 -24 7 -41 4 -25 -5 -31 -11 -30 -30 1 -12 -1 -23 -5 -23 -60 -5 -58 -8 -58 87 l0 88 143 -4 c114 -3 140 -2 130 8 -12 13 -61 20 -151 22 -23 1 -37 5 -31 9 7 4 9 14 6 23 -5 12 0 16 18 16 14 0 25 -5 25 -11 0 -5 -4 -7 -10 -4 -5 3 -10 -1 -10 -9 0 -20 26 -21 34 -1 9 24 36 18 36 -7 0 -18 2 -20 9 -9 8 13 12 13 26 1 15 -12 19 -12 30 3 7 9 20 17 29 17 13 0 16 -12 16 -71 0 -47 4 -69 11 -67 8 3 11 102 10 341 l-1 337 285 0 285 0 0 430 c0 237 -4 430 -8 430 -5 0 -12 -3 -15 -7 -4 -3 -18 -8 -32 -9 -23 -2 -25 0 -25 42 0 24 -4 44 -10 44 -5 0 -10 7 -10 15 0 10 -10 15 -30 15 -21 0 -30 -5 -30 -17 0 -14 -14 -15 -137 -10 -75 4 -169 7 -210 7 -58 0 -73 3 -73 15 0 8 -9 15 -20 15 -11 0 -20 -7 -20 -15 0 -13 -28 -15 -192 -15 -106 0 -244 -3 -305 -7 l-113 -6 0 125 c0 145 5 138 -100 138 -105 0 -100 7 -100 -135 0 -100 -3 -124 -15 -129 -17 -6 -21 -91 -5 -101 6 -4 10 13 10 44 l0 51 60 0 60 0 -6 -27 c-13 -62 -14 -63 -50 -63 -19 0 -34 -3 -34 -7 0 -5 -62 -8 -137 -8 l-138 0 0 100 0 100 -105 0 -105 0 1 -127 c2 -119 0 -128 -17 -128 -15 0 -19 8 -20 43 -1 23 0 52 0 64 2 25 -14 39 -25 21 -4 -6 -6 -36 -5 -65 l2 -53 -36 0 c-20 0 -45 5 -55 10 -11 6 -31 8 -45 4 -21 -5 -25 -12 -25 -45 l0 -39 -80 0 -80 0 0 -592 c0 -458 -3 -601 -13 -629 l-13 -37 -21 24 c-12 14 -33 24 -47 24 -25 0 -26 3 -26 54 0 81 -6 83 -157 54 l-128 -24 3 -46 c2 -38 -1 -46 -18 -51 -11 -3 -20 -12 -20 -21 0 -9 -6 -16 -12 -16 -7 0 -30 -5 -50 -11 -27 -7 -38 -16 -38 -29 0 -25 44 -58 86 -65 19 -3 50 -7 69 -10 21 -4 35 -2 35 5 0 5 -15 10 -32 10 -86 1 -169 44 -139 72 8 7 11 8 8 2 -4 -6 3 -20 14 -30 16 -14 37 -18 90 -19 67 0 69 -1 69 -25 0 -24 -5 -27 -67 -36 -61 -10 -70 -9 -93 9 l-25 19 -3 -24 c-2 -12 -8 -36 -14 -51 -8 -21 -8 -38 2 -70 23 -73 80 -117 80 -62 0 14 4 25 9 25 10 0 27 -39 23 -53 -3 -11 51 -56 60 -50 5 2 8 13 8 23 0 24 4 26 65 34 l50 7 -3 -50 -4 -51 -354 0 -354 0 0 800 0 800 54 0 54 0 -2 -405 -1 -405 -47 0 c-54 0 -65 -15 -16 -22 18 -3 155 -4 305 -3 l273 2 0 -89 c0 -67 3 -89 13 -85 8 2 12 30 13 88 l2 84 110 -3 c116 -4 192 4 192 19 0 5 -170 9 -410 9 l-410 0 0 360 0 360 39 0 c29 0 40 -5 43 -17 3 -14 24 -16 203 -14 110 1 202 4 204 7 6 6 1 314 -5 340 -5 19 -12 21 -70 20 -44 -1 -64 -5 -64 -13 0 -9 16 -13 49 -13 85 0 81 7 79 -164 l-2 -151 -3 133 -4 132 -117 0 -117 0 3 -130 3 -130 -40 0 c-37 0 -41 2 -41 25 0 16 -6 25 -15 25 -9 0 -15 -9 -15 -25 0 -20 -5 -25 -24 -25 -13 0 -26 7 -29 14 -4 11 -16 13 -41 9 -34 -5 -36 -4 -36 24 0 16 -5 34 -12 41 -6 6 -8 15 -3 19 4 5 10 2 12 -4 3 -8 22 -13 44 -13 38 0 39 -1 39 -35 0 -19 5 -35 10 -35 6 0 10 53 10 139 l0 138 121 8 c84 5 119 10 116 18 -5 16 -125 16 -131 0 -3 -7 -16 -9 -38 -4 -18 4 -44 5 -58 1 -24 -6 -25 -8 -28 -108 l-3 -102 -39 0 -40 0 0 173 c0 96 2 176 5 178 2 3 20 3 39 1 26 -3 36 -9 38 -26 3 -21 5 -21 203 -17 110 2 202 5 204 7 6 6 1 316 -5 337 -4 14 -17 17 -70 17 -36 0 -64 -4 -64 -10 0 -5 15 -10 34 -10 18 0 48 -3 65 -6 l31 -6 -2 -152 -2 -151 -3 133 -4 132 -117 0 -117 0 3 -130 4 -130 -41 0 c-32 0 -40 4 -43 20 -4 27 -22 27 -26 0 -2 -12 -11 -20 -23 -20 -11 0 -17 5 -14 10 3 6 -4 10 -17 11 l-23 0 23 11 c19 10 23 19 22 52 -1 23 -1 80 -1 129 l1 87 104 0 c57 0 111 3 120 6 35 13 13 24 -49 24 -37 0 -65 -4 -65 -10z m231 -97 c1 -15 1 -78 0 -140 l-1 -63 -85 0 -85 0 0 105 0 105 85 0 c47 0 85 -3 86 -7z m1419 -143 l0 -120 -29 0 c-29 0 -29 1 -20 32 5 18 9 34 9 35 0 2 -15 2 -32 2 -24 -1 -27 -3 -10 -6 22 -4 27 -18 16 -47 -4 -11 -19 -16 -50 -16 l-44 0 0 120 0 120 80 0 80 0 0 -120z m-1780 -4 c0 -35 0 -35 -50 -38 l-51 -3 0 -187 -1 -188 -54 0 -54 0 0 225 0 225 105 0 105 0 0 -34z m67 -68 c-3 -7 -5 -2 -5 12 0 14 2 19 5 13 2 -7 2 -19 0 -25z m1253 -383 l0 -395 130 0 c109 0 129 -2 124 -15 -9 -22 27 -26 209 -23 126 2 168 0 172 -9 6 -17 735 -19 735 -3 0 6 50 10 130 10 l130 0 0 53 c0 53 0 54 30 54 l30 0 0 -124 0 -123 -287 0 -288 0 0 -162 c0 -146 -2 -161 -17 -164 -12 -1 -18 4 -18 16 0 10 -4 22 -10 25 -5 3 -10 12 -10 18 0 8 3 8 9 -1 5 -8 8 4 9 32 0 33 -4 46 -14 46 -15 0 -15 0 -17 -75 l-2 -50 -45 2 c-25 2 -61 4 -80 5 -32 2 -35 1 -32 -24 2 -25 0 -27 -45 -30 l-48 -3 -3 -362 -2 -363 -125 0 -124 0 -3 153 -3 152 -99 0 -100 1 0 34 c-1 24 -5 34 -15 32 -7 -1 -19 3 -27 9 -12 10 -10 15 11 35 26 24 31 56 15 99 -8 21 -14 25 -37 20 -26 -6 -27 -5 -9 9 29 24 14 47 -26 39 -44 -8 -58 -20 -58 -50 l0 -25 -31 26 c-17 14 -39 26 -50 26 -16 0 -19 7 -19 54 0 85 -2 85 -182 50 l-28 -6 0 187 0 186 -212 -3 -213 -3 0 152 0 153 173 -7 c156 -6 172 -5 172 10 0 10 -7 17 -15 17 -9 0 -12 6 -9 15 4 8 15 15 25 15 10 0 19 -7 19 -15 0 -8 4 -15 8 -15 10 0 11 22 12 408 l1 302 80 0 79 0 0 -395z m-2310 370 c0 -12 -14 -15 -65 -15 -51 0 -65 3 -65 15 0 12 14 15 65 15 51 0 65 -3 65 -15z m1298 -12 c-54 -2 -142 -2 -195 0 -54 1 -10 3 97 3 107 0 151 -2 98 -3z m2132 -3 c0 -5 -4 -10 -10 -10 -5 0 -10 5 -10 10 0 6 5 10 10 10 6 0 10 -4 10 -10z m480 -10 c0 -5 -9 -10 -20 -10 -11 0 -20 5 -20 10 0 6 9 10 20 10 11 0 20 -4 20 -10z m-3922 -7 c-26 -2 -71 -2 -100 0 -29 2 -8 3 47 3 55 0 79 -1 53 -3z m2984 -118 c2 -87 0 -115 -9 -115 -10 0 -13 30 -13 115 0 65 4 115 9 115 6 0 11 -52 13 -115z m391 108 c-7 -2 -19 -2 -25 0 -7 3 -2 5 12 5 14 0 19 -2 13 -5z m157 -3 c0 -5 -5 -9 -12 -7 -6 1 -14 -7 -16 -17 -3 -14 0 -17 12 -13 14 6 16 -4 16 -68 0 -45 -4 -77 -12 -81 -7 -5 -8 -3 -3 6 6 10 4 12 -8 7 -15 -6 -17 4 -17 88 0 88 1 95 20 95 11 0 20 -4 20 -10z m-3482 -11 c-5 -16 -190 -17 -196 -1 -3 9 23 12 98 12 70 0 101 -3 98 -11z m2796 -91 l1 -98 -127 0 -128 0 0 36 c0 32 2 35 28 33 61 -5 72 0 79 31 5 30 6 30 69 30 57 0 64 2 64 20 0 18 -7 20 -60 20 -49 0 -58 3 -53 15 4 12 19 15 66 13 l60 -3 1 -97z m106 2 l0 -100 -40 0 -40 0 0 100 0 100 40 0 40 0 0 -100z m245 50 c0 -33 -4 -50 -12 -50 -7 0 -13 8 -13 18 0 38 -51 67 -112 63 -20 -1 -58 -35 -58 -52 0 -7 9 0 21 15 26 33 88 37 119 6 21 -21 26 -65 10 -90 -7 -11 -8 -7 -4 15 8 41 -26 85 -65 85 -41 0 -75 -41 -67 -80 3 -19 2 -29 -4 -25 -6 3 -7 -1 -4 -10 4 -9 19 -22 35 -31 38 -19 37 -24 -10 -24 l-38 0 0 105 0 105 101 0 101 0 0 -50z m135 -55 l0 -105 -50 0 -50 0 0 55 c0 30 -4 55 -10 55 -5 0 -10 23 -10 50 l0 50 60 0 60 0 0 -105z m110 90 c7 -8 17 -15 22 -15 6 0 5 7 -2 15 -10 12 -10 15 3 15 12 0 15 -18 16 -105 l2 -105 -46 0 -45 0 0 105 c0 96 2 105 19 105 10 0 24 -7 31 -15z m230 -90 l0 -105 -49 0 c-26 0 -69 -3 -95 -6 -40 -6 -46 -5 -40 10 3 9 11 13 18 9 32 -21 36 -12 36 93 l0 104 65 0 65 0 0 -105z m17 -52 c-2 -32 -3 -8 -3 52 0 61 1 87 3 58 2 -29 2 -78 0 -110z m-309 62 c2 -51 -1 -82 -9 -89 -9 -8 -10 -7 -4 3 6 11 4 13 -8 8 -15 -6 -17 3 -17 72 0 43 3 81 7 85 18 18 28 -7 31 -79z m562 51 l0 -34 -100 5 -100 5 0 -26 c0 -25 2 -26 65 -26 37 0 65 4 65 10 0 6 16 10 35 10 l35 0 0 -50 0 -50 -120 0 -120 0 0 95 0 95 120 0 120 0 0 -34z m-3898 -41 l3 -45 -42 0 -43 0 -2 43 -1 42 -6 -45 -5 -45 -6 45 -7 45 -1 -42 -2 -43 -40 0 -40 0 0 45 0 45 94 0 94 0 4 -45z m2774 33 c3 -4 -20 -8 -50 -8 -33 0 -56 4 -56 10 0 13 98 11 106 -2z m289 -4 c23 -9 37 -51 25 -74 -16 -30 -45 -42 -74 -30 -39 14 -31 1 9 -16 41 -17 48 -17 40 -3 -4 6 0 9 11 7 11 -2 25 9 38 29 13 20 29 32 44 33 20 0 22 -5 22 -50 l0 -50 -57 0 c-40 0 -71 7 -99 22 -40 21 -41 24 -40 66 2 58 34 84 81 66z m729 -30 c32 -12 15 -24 -34 -24 -38 0 -50 4 -50 15 0 16 52 21 84 9z m-1161 -21 c-7 -2 -21 -2 -30 0 -10 3 -4 5 12 5 17 0 24 -2 18 -5z m1337 -258 l0 -265 -30 0 c-29 0 -30 1 -30 50 0 28 -4 50 -10 50 -5 0 -10 7 -10 15 0 10 -10 15 -30 15 -21 0 -30 -5 -30 -17 0 -14 -14 -15 -137 -10 -75 4 -169 7 -210 7 -58 0 -73 3 -73 15 0 19 -26 20 -37 1 -6 -10 -71 -14 -310 -19 l-303 -5 0 124 0 124 -100 0 -100 0 0 -124 c0 -104 -3 -125 -16 -130 -13 -5 -15 -20 -12 -86 l3 -80 -112 0 -112 0 -3 285 -3 285 115 0 115 0 0 -37 0 -38 185 -3 c113 -1 187 -6 191 -13 7 -12 444 -13 787 -3 l212 7 0 59 c0 58 0 58 30 58 l30 0 0 -265z m-4079 213 c0 -9 2 -9 6 1 5 11 7 11 14 0 6 -10 9 -11 9 -1 0 8 16 12 45 12 36 0 45 -3 45 -17 0 -16 -12 -18 -105 -18 -58 0 -105 0 -105 1 0 1 3 9 6 18 8 20 84 23 85 4z m279 -243 l0 -245 -75 0 -75 0 0 53 c0 41 -5 58 -20 72 -13 11 -18 25 -15 37 5 15 2 17 -24 12 -27 -6 -31 -4 -31 15 0 16 -6 21 -25 21 -19 0 -25 -5 -25 -21 0 -16 -5 -20 -27 -17 -23 2 -27 -1 -25 -16 2 -10 -5 -24 -16 -32 -17 -12 -20 -28 -24 -118 -2 -58 -6 -106 -8 -108 -3 -2 -31 -2 -62 0 l-58 4 0 249 0 249 64 0 c49 0 65 4 70 16 3 9 4 20 0 25 -3 5 44 9 110 9 64 0 116 -2 116 -4 0 -2 -3 -12 -6 -21 -6 -13 -22 -16 -103 -15 -124 2 -121 2 -87 -15 34 -18 71 -19 116 -4 26 9 34 9 41 -2 16 -24 51 29 45 69 l-5 32 75 0 74 0 0 -245z m1876 218 c-10 -10 -19 5 -10 18 6 11 8 11 12 0 2 -7 1 -15 -2 -18z m-106 6 c0 -5 -4 -8 -9 -4 -5 3 -11 -3 -13 -12 -3 -16 -5 -15 -16 5 -12 20 -11 22 13 22 14 0 25 -5 25 -11z m50 -11 c0 -10 -7 -18 -15 -18 -8 0 -15 8 -15 18 0 10 7 19 15 19 8 0 15 -9 15 -19z m-670 -93 l0 -105 -87 0 -88 0 2 92 c1 51 2 99 3 106 0 8 24 12 85 12 l85 0 0 -105z m705 85 c3 -5 -1 -10 -9 -10 -9 0 -16 5 -16 10 0 6 4 10 9 10 6 0 13 -4 16 -10z m74 -85 c-1 -53 -5 -97 -8 -100 -18 -11 -31 17 -32 68 -2 53 -12 78 -26 63 -4 -3 -6 -29 -4 -58 1 -33 -2 -54 -11 -59 -19 -12 -66 -11 -73 2 -4 5 -21 9 -38 7 -29 -3 -32 -7 -37 -43 l-5 -40 -65 -3 -65 -3 0 95 0 94 135 7 c74 4 152 8 173 9 20 0 36 5 34 10 -2 5 -47 8 -100 7 -66 -2 -97 1 -97 9 0 7 8 9 21 5 13 -5 25 -2 31 6 7 11 11 11 15 2 7 -20 113 -17 113 2 0 8 9 15 20 15 19 0 20 -6 19 -95z m1241 65 c0 -5 -9 -10 -20 -10 -11 0 -20 5 -20 10 0 6 9 10 20 10 11 0 20 -4 20 -10z m-3467 -37 c-7 -2 -19 -2 -25 0 -7 3 -2 5 12 5 14 0 19 -2 13 -5z m2867 -163 l0 -120 -30 0 c-28 0 -29 2 -20 26 15 39 13 44 -22 43 -24 -1 -27 -3 -10 -6 22 -4 27 -18 16 -47 -4 -11 -19 -16 -50 -16 l-44 0 0 120 0 120 80 0 80 0 0 -120z m-692 35 c0 -14 -4 -25 -9 -25 -10 0 -11 12 -3 34 9 22 12 20 12 -9z m-1021 -17 c-3 -7 -5 -2 -5 12 0 14 2 19 5 13 2 -7 2 -19 0 -25z m911 3 c3 -8 0 -11 -6 -7 -6 3 -13 0 -15 -6 -4 -10 -8 -9 -16 2 -16 22 -13 27 11 26 12 0 23 -7 26 -15z m52 -11 c0 -11 -7 -20 -15 -20 -8 0 -15 9 -15 20 0 11 7 20 15 20 8 0 15 -9 15 -20z m109 -90 c-1 -90 -3 -100 -20 -100 -15 0 -19 8 -20 43 -1 23 0 52 1 65 1 14 -4 22 -14 22 -13 0 -16 -12 -16 -60 0 -46 -3 -60 -15 -61 -50 -3 -65 -2 -77 8 -7 6 -25 9 -40 6 -23 -4 -28 -11 -28 -34 0 -20 5 -29 16 -29 11 0 15 6 11 20 -4 16 0 20 19 20 16 0 24 -6 24 -17 0 -15 -2 -16 -10 -3 -8 13 -10 13 -10 -2 0 -9 -9 -20 -20 -23 -11 -3 -20 -11 -20 -16 0 -6 -7 -3 -16 6 -13 12 -31 16 -71 13 l-55 -3 0 83 0 83 139 6 c76 4 153 7 171 7 17 0 32 1 32 2 0 12 -14 34 -22 34 -5 0 -6 -4 -3 -10 4 -6 -27 -10 -84 -10 -68 0 -91 3 -91 13 0 8 13 13 35 13 19 0 35 -4 35 -8 0 -16 76 -7 105 12 17 11 33 20 38 20 4 0 6 -45 6 -100z m-74 80 c3 -5 -1 -10 -9 -10 -9 0 -16 5 -16 10 0 6 4 10 9 10 6 0 13 -4 16 -10z m-757 -7 c-54 -2 -142 -2 -195 0 -54 1 -10 3 97 3 107 0 151 -2 98 -3z m-1298 -73 c0 -6 -28 -10 -65 -10 -37 0 -65 4 -65 10 0 6 28 10 65 10 37 0 65 -4 65 -10z m3910 -30 c0 -5 -9 -10 -20 -10 -11 0 -20 5 -20 10 0 6 9 10 20 10 11 0 20 -4 20 -10z m-3922 -7 c-27 -2 -69 -2 -95 0 -27 2 -5 3 47 3 52 0 74 -1 48 -3z m3099 -13 l91 0 4 -50 c2 -35 -1 -50 -9 -50 -7 0 -13 7 -13 15 0 30 -47 65 -86 65 -35 0 -84 -30 -84 -51 0 -5 11 3 25 16 62 63 173 -12 125 -85 -7 -11 -8 -6 -4 17 5 25 1 37 -19 57 -30 30 -56 33 -86 9 -30 -24 -45 -93 -26 -111 10 -8 12 -8 5 0 -18 21 -11 32 10 13 10 -9 18 -22 17 -27 -1 -6 4 -13 12 -16 9 -3 11 0 6 8 -6 10 -1 12 23 7 26 -5 35 -2 56 24 14 17 26 35 26 40 0 5 11 9 25 9 23 0 25 -3 25 -50 l0 -50 -116 1 -117 1 6 56 c2 32 1 80 -3 107 -6 41 -8 29 -9 -62 l-1 -113 180 0 c99 0 180 4 180 8 0 4 9 8 20 8 11 0 20 -4 20 -8 0 -4 25 -8 55 -8 45 0 55 3 56 18 0 10 3 12 6 5 7 -20 19 -15 19 7 0 13 -5 19 -13 16 -10 -4 -13 17 -13 91 l0 96 38 -7 c20 -3 61 -6 90 -6 l52 0 0 -105 0 -105 -65 0 -65 0 0 104 c0 99 -1 104 -20 99 -21 -5 -28 -33 -9 -33 5 0 7 5 3 12 -5 7 -3 8 5 3 9 -5 12 -33 11 -89 -1 -44 -2 -86 -1 -93 1 -8 27 -13 79 -15 42 -2 -79 -4 -270 -6 -191 -1 -355 1 -363 4 -12 5 -15 28 -15 121 0 115 0 115 23 109 12 -3 63 -6 114 -6z m281 -2 c-3 -7 -11 -13 -18 -13 -7 0 -15 6 -17 13 -3 7 4 12 17 12 13 0 20 -5 18 -12z m102 -14 c0 -18 -4 -18 -24 5 -17 19 -17 19 3 14 12 -3 21 -12 21 -19z m-3430 1 c0 -12 -18 -15 -100 -15 -82 0 -100 3 -100 15 0 12 18 15 100 15 82 0 100 -3 100 -15z m2654 -12 c-13 -62 -14 -63 -50 -63 -31 0 -35 -3 -32 -22 2 -18 11 -24 35 -26 28 -3 32 0 38 27 6 29 8 30 68 33 56 3 62 5 65 26 3 21 0 22 -52 22 -38 0 -56 4 -56 13 0 9 17 11 62 9 l63 -3 0 -95 0 -94 -127 0 c-79 0 -128 4 -128 10 0 6 25 10 55 10 30 0 55 5 55 10 0 6 -25 10 -55 10 l-55 0 0 75 0 74 58 4 c31 2 58 4 60 5 1 1 0 -10 -4 -25z m626 -78 l0 -105 -50 0 -50 0 0 55 c0 30 -4 55 -10 55 -5 0 -10 23 -10 50 l0 50 60 0 60 0 0 -105z m123 77 c25 -26 27 -35 27 -105 l0 -77 -45 0 -45 0 0 105 c0 95 2 105 18 105 10 0 30 -13 45 -28z m-503 -77 l0 -95 -40 0 -40 0 0 95 0 95 40 0 40 0 0 -95z m737 -57 c-2 -29 -3 -6 -3 52 0 58 1 81 3 53 2 -29 2 -77 0 -105z m253 112 c0 -39 -1 -40 -34 -40 -19 0 -38 5 -41 10 -3 6 -33 10 -66 10 -57 0 -59 -1 -59 -26 l0 -26 100 4 100 4 0 -43 0 -43 -120 0 -120 0 0 95 0 95 120 0 120 0 0 -40z m-560 -53 c0 -66 -2 -73 -20 -73 -18 0 -20 7 -20 73 0 66 2 73 20 73 18 0 20 -7 20 -73z m-3335 29 c0 -20 -4 -32 -10 -28 -5 3 -4 -2 4 -11 12 -15 10 -17 -29 -17 -50 0 -48 -11 2 -14 22 -1 34 -7 36 -19 3 -14 -4 -17 -42 -17 l-46 0 -2 68 -2 67 -6 -70 -6 -70 -4 70 c-2 39 -5 58 -7 43 -4 -25 -9 -28 -41 -28 -25 0 -33 -3 -23 -9 8 -5 24 -8 37 -6 21 2 24 -2 24 -31 0 -34 -1 -34 -45 -34 -46 0 -51 4 -36 29 6 8 19 12 35 9 15 -3 29 -1 32 3 3 5 -11 9 -30 9 -36 0 -36 0 -36 45 l0 45 98 0 97 0 0 -34z m2041 22 c-6 -29 -19 -48 -32 -48 -8 0 -14 5 -14 10 0 6 6 10 14 10 7 0 16 9 19 20 6 22 17 28 13 8z m724 0 c0 -5 -2 -8 -5 -8 -3 0 -25 0 -50 0 -26 0 -45 5 -45 11 0 7 19 9 50 7 28 -2 50 -6 50 -10z m-780 -25 c0 -14 -6 -23 -15 -23 -9 0 -15 9 -15 23 0 14 6 24 15 24 9 0 15 -10 15 -24z m1084 3 c26 -25 29 -78 6 -99 -10 -9 -11 -9 -6 0 5 9 -1 11 -22 7 -22 -5 -35 -1 -51 15 -26 26 -27 55 -1 81 26 26 46 25 74 -4z m736 -26 c11 -7 -2 -10 -42 -10 -32 0 -58 4 -58 10 0 13 80 13 100 0z m-1183 -7 c-9 -2 -14 -9 -11 -15 4 -6 1 -9 -6 -6 -27 9 -22 28 7 27 17 -1 21 -3 10 -6z m-2754 -140 c-7 -2 -19 -2 -25 0 -7 3 -2 5 12 5 14 0 19 -2 13 -5z m2265 -377 l2 -175 -27 -3 c-25 -3 -28 -7 -31 -46 -4 -48 -32 -85 -74 -96 l-28 -6 0 185 0 185 -114 0 c-116 0 -162 -13 -83 -23 23 -3 72 -4 109 -2 l68 3 2 -176 3 -177 57 2 c49 1 57 -1 62 -20 7 -26 0 -37 -24 -37 -12 0 -20 8 -22 23 -3 24 -24 25 -22 1 2 -19 -12 -18 -20 1 -3 8 -11 15 -18 15 -7 0 -3 -10 10 -23 19 -19 33 -22 93 -22 65 0 70 -1 65 -20 -2 -11 -1 -41 3 -68 8 -46 7 -47 -19 -47 -15 0 -33 7 -40 15 -18 21 -30 19 -30 -7 -1 -13 -7 -36 -14 -53 -13 -29 -13 -29 -17 32 l-4 62 60 15 c42 10 51 14 30 15 -16 0 -48 -4 -70 -9 -34 -8 -43 -6 -62 12 l-22 21 -8 -29 c-8 -30 -9 -105 -2 -139 5 -25 55 -69 69 -60 5 3 10 15 10 26 0 32 19 21 26 -15 10 -58 62 -90 73 -47 6 20 16 26 63 36 55 11 56 10 46 -8 -5 -11 -8 -35 -5 -53 l6 -34 -155 0 -154 0 0 129 c0 140 -7 158 -55 149 -14 -3 -30 1 -36 8 -6 8 -15 11 -21 8 -5 -3 -15 0 -23 6 -12 10 -10 15 10 35 27 24 33 71 15 105 -8 15 -18 18 -48 14 l-37 -5 34 16 c26 12 31 18 22 29 -6 7 -21 11 -34 9 l-22 -4 0 213 0 213 200 -2 200 -2 3 -175z m1100 -76 c3 -7 0 -10 -6 -6 -6 3 -13 0 -15 -6 -4 -10 -8 -9 -16 2 -7 10 -6 17 2 22 15 10 30 5 35 -12z m112 7 c0 -17 -20 -37 -37 -37 -7 0 -13 5 -13 11 0 6 7 9 15 5 10 -4 15 1 15 14 0 11 5 20 10 20 6 0 10 -6 10 -13z m-60 -16 c0 -15 -7 -19 -29 -19 -27 1 -27 2 -12 19 20 25 41 24 41 0z m110 -96 c0 -88 -1 -95 -20 -95 -17 0 -20 7 -21 43 -2 57 1 80 12 93 6 7 4 16 -6 24 -18 15 -11 30 16 30 17 0 19 -8 19 -95z m-125 62 l80 -3 -92 -2 c-81 -2 -92 0 -86 14 3 9 8 12 12 5 4 -5 42 -12 86 -14z m-117 -9 c-2 -10 23 -13 102 -13 58 1 97 -1 88 -3 -20 -4 -21 -6 -19 -74 0 -31 -4 -48 -12 -49 -6 0 -23 -2 -37 -4 -14 -1 -30 1 -36 6 -6 5 -26 8 -45 6 -31 -3 -34 -5 -33 -35 2 -30 0 -32 -32 -32 l-34 0 0 105 0 105 30 0 c19 0 29 -5 28 -12z m-1591 -24 c-3 -3 -12 -4 -19 -1 -8 3 -5 6 6 6 11 1 17 -2 13 -5z m-44 -11 c-7 -2 -19 -2 -25 0 -7 3 -2 5 12 5 14 0 19 -2 13 -5z m807 -2 c22 -5 25 -11 26 -53 0 -52 -19 -71 -41 -42 -12 17 -46 17 -167 -3 -37 -5 -38 -5 -38 25 0 27 4 32 33 37 98 17 168 34 127 30 -32 -3 -39 -1 -25 5 23 10 49 10 85 1z m1020 -1 c0 -5 -5 -10 -11 -10 -5 0 -7 5 -4 10 3 6 8 10 11 10 2 0 4 -4 4 -10z m-1770 -51 c0 -52 -22 -73 -45 -42 -11 15 -21 16 -102 5 -118 -16 -113 -16 -113 17 0 27 3 30 51 36 33 5 47 10 38 15 -7 5 6 7 32 4 25 -2 37 -1 27 3 -10 5 9 8 47 9 l65 0 0 -47z m-200 31 c-8 -5 -26 -9 -40 -9 -23 1 -23 2 5 9 43 11 52 11 35 0z m743 -7 c-19 -4 -23 -11 -25 -46 -1 -39 -2 -39 -5 -9 -6 46 2 62 29 61 l23 -2 -22 -4z m-595 -76 c6 -6 13 -24 17 -38 6 -24 3 -27 -30 -33 -20 -4 -43 -10 -51 -13 -10 -4 -14 3 -14 23 0 16 -5 36 -10 44 -7 12 -3 16 18 21 44 11 59 10 70 -4z m242 3 c-8 -5 -23 -10 -32 -10 -12 0 -18 -8 -19 -22 -1 -18 -2 -19 -6 -5 -8 32 5 47 39 47 25 0 29 -3 18 -10z m545 -20 c22 -42 20 -45 -34 -56 -48 -10 -49 -10 -54 15 -2 14 -7 34 -11 43 -6 13 -1 17 21 21 57 8 63 7 78 -23z m235 20 c-8 -5 -23 -10 -32 -10 -11 0 -18 -8 -18 -20 0 -11 -4 -20 -10 -20 -17 0 -11 38 8 49 23 14 73 15 52 1z m796 -15 c-3 -20 -16 -31 -16 -13 0 13 8 28 16 28 1 0 1 -7 0 -15z m-1916 -14 c5 -11 10 -29 10 -40 0 -16 -6 -21 -29 -21 -16 0 -34 -7 -41 -15 -21 -26 -37 -17 -44 24 -5 33 -10 39 -26 36 -11 -2 -20 1 -20 7 0 5 7 8 15 4 8 -3 15 -1 15 4 0 8 29 14 87 18 13 1 27 -6 33 -17z m221 -1 l24 -19 -27 -1 c-17 0 -28 -5 -28 -14 0 -21 -57 2 -63 25 -9 33 58 39 94 9z m558 -11 c16 -45 14 -49 -18 -49 -16 0 -36 -7 -45 -15 -24 -24 -33 -18 -45 32 -8 31 -15 43 -20 34 -6 -9 -11 -10 -15 -2 -4 6 3 13 16 15 13 3 32 7 43 9 57 12 73 8 84 -24z m206 19 c30 -13 33 -28 6 -28 -11 0 -21 -5 -23 -11 -5 -15 -55 -1 -63 19 -11 29 34 41 80 20z m-602 -40 c4 -12 5 -23 3 -25 -1 -1 -35 -9 -74 -16 -58 -11 -72 -11 -72 -1 0 7 -3 19 -6 28 -5 13 1 16 29 16 20 0 39 5 42 10 3 6 21 10 39 10 26 0 35 -5 39 -22z m776 0 c5 -13 8 -24 7 -25 -2 -2 -34 -9 -73 -16 l-70 -13 -11 28 c-10 28 -10 28 29 28 21 0 39 5 39 10 0 6 16 10 35 10 28 0 38 -5 44 -22z m-1287 -12 c16 -24 8 -46 -17 -46 -20 0 -25 5 -25 26 0 16 -5 24 -12 21 -7 -2 -12 -13 -10 -23 3 -18 3 -18 -15 -1 -15 15 -16 19 -4 27 20 12 74 10 83 -4z m1126 -42 c0 -19 -4 -31 -9 -28 -6 3 -9 13 -7 22 1 10 -1 23 -5 30 -5 6 -5 17 -1 23 10 17 22 -8 22 -47z m-777 34 c0 -7 3 -25 5 -40 5 -30 -10 -38 -20 -11 -4 9 -1 20 6 25 10 6 10 8 1 8 -7 0 -13 7 -13 15 0 18 20 20 21 3z m-1301 -9 c0 -5 -4 -7 -10 -4 -6 3 -7 -1 -4 -9 3 -9 1 -16 -5 -16 -6 0 -11 8 -11 18 0 14 -2 15 -10 2 -5 -8 -10 -10 -10 -4 0 6 3 14 7 17 10 11 43 8 43 -4z m1957 5 c-3 -3 -12 -4 -19 -1 -8 3 -5 6 6 6 11 1 17 -2 13 -5z m-1897 -24 c0 -13 -7 -20 -20 -20 -13 0 -20 7 -20 20 0 13 7 20 20 20 13 0 20 -7 20 -20z m1212 -5 c3 -14 1 -25 -3 -25 -5 0 -9 11 -9 25 0 14 2 25 4 25 2 0 6 -11 8 -25z m-84 3 c-3 -8 -21 -12 -49 -11 l-44 2 35 -9 c19 -5 40 -8 47 -5 7 2 12 -14 15 -45 3 -48 3 -48 -32 -54 -63 -10 -66 -9 -62 28 3 30 8 35 45 44 l42 11 -50 -4 c-27 -2 -41 -1 -31 2 14 4 16 7 6 13 -8 5 -15 16 -16 24 -2 13 8 16 48 16 35 0 48 -4 46 -12z m60 -45 c-3 -51 -6 -58 -25 -61 -22 -3 -23 0 -23 57 0 59 1 61 25 61 25 0 26 -2 23 -57z m222 47 c0 -5 -7 -10 -15 -10 -8 0 -15 -8 -15 -17 0 -15 -2 -15 -9 -4 -7 11 -19 12 -60 4 -28 -6 -51 -6 -51 -2 0 9 5 10 90 28 62 12 60 12 60 1z m558 -47 c-3 -51 -6 -58 -25 -61 -22 -3 -23 0 -23 52 0 31 -4 56 -10 56 -5 0 -10 -9 -10 -20 0 -14 -7 -20 -22 -20 -43 0 -68 12 -68 31 0 17 8 19 80 19 l81 0 -3 -57z m25 37 c-3 -11 -7 -20 -9 -20 -2 0 -4 9 -4 20 0 11 4 20 9 20 5 0 7 -9 4 -20z m192 10 c-3 -5 -13 -10 -20 -10 -9 0 -12 -6 -9 -17 5 -15 4 -15 -4 -3 -9 12 -20 12 -62 4 -36 -8 -50 -8 -47 0 3 9 58 22 140 35 5 0 5 -3 2 -9z m-2155 -10 c0 -5 -4 -10 -10 -10 -5 0 -10 5 -10 10 0 6 5 10 10 10 6 0 10 -4 10 -10z m990 -71 c0 -57 -1 -60 -22 -57 -20 3 -23 10 -26 61 -3 55 -2 57 23 57 24 0 25 -2 25 -61z m778 4 c-3 -50 -6 -58 -23 -58 -17 0 -20 8 -23 58 -3 56 -2 57 23 57 25 0 26 -1 23 -57z m-467 20 c-6 -24 -14 -28 -69 -38 l-62 -12 0 34 c0 33 8 41 26 24 7 -7 77 4 111 18 1 1 -2 -11 -6 -26z m779 3 c0 -27 -9 -31 -82 -42 l-48 -6 0 31 c0 32 8 39 26 21 6 -6 25 -4 54 5 25 7 46 14 48 14 1 1 2 -10 2 -23z m-273 8 c-3 -3 -12 -4 -19 -1 -8 3 -5 6 6 6 11 1 17 -2 13 -5z m-450 -68 c-5 -12 -14 -15 -34 -10 -16 4 -32 11 -37 15 -14 13 21 11 46 -2 18 -10 20 -9 15 6 -4 9 -7 19 -7 21 0 2 -7 4 -15 4 -8 0 -15 8 -15 17 0 14 5 13 26 -9 17 -16 24 -32 21 -42z m513 41 c0 -13 5 -28 10 -33 7 -7 -7 -14 -45 -21 l-55 -10 0 38 c0 33 3 38 28 42 58 9 62 8 62 -16z m270 -34 c0 -20 -23 -25 -56 -12 -22 9 -25 13 -12 16 9 2 26 -1 37 -7 28 -14 28 5 1 22 -11 7 -20 19 -20 27 0 10 8 7 25 -9 14 -13 25 -30 25 -37z m-1351 -45 c-11 -41 -11 -47 1 -28 8 12 10 11 10 -6 0 -12 -7 -27 -15 -34 -13 -11 -18 -10 -30 6 -19 25 -19 38 0 30 8 -3 15 -1 15 4 0 6 -7 10 -15 10 -17 0 -22 55 -5 65 5 3 7 13 4 23 -4 11 3 7 19 -10 22 -24 24 -32 16 -60z m141 53 c0 -11 3 -26 6 -35 8 -21 -48 -22 -66 -1 -20 24 -27 18 -33 -26 -9 -71 -27 -71 -27 -1 0 66 -5 61 65 75 43 10 55 7 55 -12z m630 4 c20 -24 6 -28 -15 -5 -10 11 -13 20 -8 20 6 0 16 -7 23 -15z m-174 -35 c0 -22 -4 -40 -9 -40 -4 0 -6 18 -5 40 4 52 16 52 14 0z m780 2 c0 -23 -6 -39 -12 -39 -7 0 -10 9 -7 21 3 12 5 29 5 39 -1 9 3 17 7 17 5 0 8 -17 7 -38z m-875 4 c19 -7 43 -16 53 -20 10 -3 17 -8 14 -11 -5 -5 -138 34 -138 40 0 10 38 5 71 -9z m255 -1 c4 -8 10 -13 14 -10 5 3 8 -15 8 -40 -1 -52 -15 -67 -35 -40 -17 25 -17 39 3 31 8 -3 12 -2 9 4 -3 6 -13 10 -21 10 -16 0 -17 5 -8 38 7 25 22 29 30 7z m531 -2 c29 -9 53 -20 53 -24 0 -7 -118 25 -128 35 -10 11 21 6 75 -11z m-927 3 c0 -2 -9 -6 -20 -9 -11 -3 -18 -1 -14 4 5 9 34 13 34 5z m126 -22 c47 -14 82 -29 80 -33 -3 -4 -37 3 -77 16 -39 12 -78 23 -85 23 -7 0 -16 5 -19 10 -9 15 10 12 101 -16z m194 -99 l0 -125 -209 0 -209 0 -4 54 -3 53 138 25 c132 23 138 24 154 6 24 -27 38 -22 38 15 0 21 4 31 13 29 17 -3 27 25 13 42 -15 18 -4 26 36 26 l33 0 0 -125z m457 119 c-3 -3 -12 -4 -19 -1 -8 3 -5 6 6 6 11 1 17 -2 13 -5z m132 -22 c36 -10 67 -24 69 -31 3 -8 -2 -9 -20 -2 -12 6 -56 20 -95 31 -40 11 -73 23 -73 27 0 7 40 -1 119 -25z m741 17 c0 -5 -4 -7 -10 -4 -5 3 -10 -1 -10 -9 0 -23 -17 -20 -23 4 -4 16 0 20 19 20 13 0 24 -5 24 -11z m50 -11 c0 -19 -25 -25 -35 -8 -8 14 1 27 20 27 8 0 15 -9 15 -19z m-1965 -18 c14 -16 16 -23 7 -32 -15 -15 -16 -32 -2 -23 6 4 10 -6 10 -23 0 -18 -6 -32 -16 -36 -9 -4 -18 -5 -19 -4 -12 16 -25 52 -25 72 0 26 21 48 28 28 2 -7 8 -9 14 -6 7 4 1 14 -13 25 -13 10 -19 19 -13 19 6 0 19 -9 29 -20z m278 -7 c53 -15 97 -31 97 -36 0 -4 -9 -5 -20 -2 -12 4 -27 2 -33 -4 -9 -7 -42 -1 -113 21 -54 17 -94 33 -87 35 6 2 50 -8 98 -22 48 -15 89 -25 91 -22 2 2 -30 14 -71 26 -41 12 -75 24 -75 26 0 8 12 6 113 -22z m75 5 c74 -21 112 -38 82 -38 -24 1 -197 58 -177 59 10 1 53 -9 95 -21z m435 -53 c-1 -57 -18 -79 -39 -51 -16 23 -19 82 -4 91 6 3 13 -1 16 -9 3 -9 10 -13 16 -10 5 3 0 14 -12 24 -27 23 -26 36 3 17 18 -12 22 -23 20 -62z m270 48 c53 -15 97 -31 97 -36 0 -5 -10 -7 -22 -4 -12 4 -27 2 -34 -4 -11 -9 -85 9 -178 44 -53 20 -9 18 50 -1 33 -11 75 -22 94 -26 19 -3 2 6 -39 19 -69 23 -96 35 -75 35 5 0 53 -12 107 -27z m70 6 c70 -21 107 -40 77 -39 -25 1 -186 58 -167 59 11 1 51 -9 90 -20z m-1043 1 c-12 -8 -12 -10 5 -10 32 -1 179 -46 169 -52 -7 -5 -127 26 -182 47 -15 6 -7 25 11 25 7 0 6 -4 -3 -10z m790 6 c0 -2 -9 -6 -20 -9 -11 -3 -18 -1 -14 4 5 9 34 13 34 5z m-745 -48 c73 -21 81 -25 74 -33 -3 -2 -27 2 -54 11 -28 8 -67 19 -87 25 -21 5 -38 15 -38 20 0 7 7 8 18 4 9 -4 49 -16 87 -27z m784 -3 c41 -12 69 -25 63 -28 -6 -4 -21 -3 -34 3 -13 5 -49 17 -80 25 -32 9 -58 21 -58 27 0 6 7 7 18 3 9 -4 50 -18 91 -30z m42 13 c44 -11 79 -25 79 -29 0 -7 -40 3 -145 36 -67 22 -18 16 66 -7z m509 -118 l0 -140 -430 0 -430 0 0 28 0 27 165 -3 165 -3 0 69 0 69 138 25 c133 24 138 24 158 6 29 -26 34 -23 34 18 0 28 3 35 15 30 8 -3 15 -1 15 4 0 6 37 10 85 10 l85 0 0 -140z m-2440 111 c0 -5 -7 -14 -15 -21 -12 -10 -15 -9 -15 4 0 10 -4 14 -10 11 -5 -3 -10 -1 -10 4 0 6 11 11 25 11 14 0 25 -4 25 -9z m1078 -21 c28 -8 52 -17 52 -22 0 -10 2 -11 -59 8 -29 8 -55 13 -58 11 -2 -3 9 -8 26 -12 17 -4 31 -10 31 -15 0 -4 -8 -6 -19 -3 -10 3 -22 0 -25 -6 -14 -22 -26 -10 -26 25 0 25 4 35 13 31 6 -2 36 -10 65 -17z m372 4 c0 -8 -5 -12 -10 -9 -6 4 -8 11 -5 16 9 14 15 11 15 -7z m406 -5 c24 -6 44 -15 44 -20 0 -5 -6 -6 -14 -3 -8 3 -24 1 -35 -5 -27 -15 -71 5 -71 32 0 14 5 17 16 13 9 -4 36 -11 60 -17z m371 -6 c-3 -3 -11 -2 -17 2 -9 6 -9 10 1 16 14 8 27 -7 16 -18z m-1340 -30 c-3 -3 -10 -2 -16 2 -7 4 -7 10 2 20 10 11 13 11 15 -2 2 -8 1 -17 -1 -20z m777 12 c-4 -8 -10 -12 -15 -9 -11 6 -2 24 11 24 5 0 7 -7 4 -15z m136 -15 c0 -5 -4 -10 -10 -10 -5 0 -10 5 -10 10 0 6 5 10 10 10 6 0 10 -4 10 -10z m-810 -41 c0 -18 -2 -20 -15 -9 -13 11 -13 15 -3 21 18 12 18 12 18 -12z m777 -5 c-2 -2 -12 -1 -22 3 -18 6 -18 7 1 13 17 7 33 -5 21 -16z"/>
<path d="M3457 1964 c-14 -14 -7 -35 11 -32 9 2 17 10 17 17 0 16 -18 25 -28 15z m18 -14 c3 -5 1 -10 -4 -10 -6 0 -11 5 -11 10 0 6 2 10 4 10 3 0 8 -4 11 -10z"/>
<path d="M370 1402 c0 -11 39 -12 45 -1 4 5 -5 9 -19 9 -14 0 -26 -4 -26 -8z"/>
<path d="M3453 1414 c-8 -20 8 -36 26 -25 15 10 8 41 -9 41 -6 0 -13 -7 -17 -16z m22 -3 c3 -5 1 -12 -5 -16 -5 -3 -10 1 -10 9 0 18 6 21 15 7z"/>
<path d="M2385 540 c-11 -17 20 -50 60 -64 52 -19 125 -29 125 -18 0 5 -27 12 -60 15 -68 8 -112 32 -106 60 4 18 -9 24 -19 7z"/>
<path d="M1771 644 c0 -11 3 -14 6 -6 3 7 2 16 -1 19 -3 4 -6 -2 -5 -13z"/>
<path d="M2671 496 c11 -9 69 -14 69 -6 0 6 -16 10 -37 10 -20 0 -34 -2 -32 -4z"/>
<path d="M1646 395 c4 -8 10 -15 15 -15 4 0 6 7 3 15 -4 8 -10 15 -15 15 -4 0 -6 -7 -3 -15z"/>
<path d="M2595 280 c11 -5 27 -9 35 -9 9 0 8 4 -5 9 -11 5 -27 9 -35 9 -9 0 -8 -4 5 -9z"/>
<path d="M1640 2386 c0 -17 52 -16 58 2 2 8 -7 12 -27 12 -19 0 -31 -5 -31 -14z"/>
<path d="M1710 2385 c0 -8 9 -15 20 -15 11 0 20 7 20 15 0 8 -9 15 -20 15 -11 0 -20 -7 -20 -15z"/>
<path d="M1640 1940 c0 -5 14 -10 30 -10 17 0 30 5 30 10 0 6 -13 10 -30 10 -16 0 -30 -4 -30 -10z"/>
<path d="M1710 1941 c0 -5 9 -11 20 -14 13 -3 20 0 20 9 0 8 -9 14 -20 14 -11 0 -20 -4 -20 -9z"/>
<path d="M663 933 c-45 -17 13 -23 242 -23 231 0 287 6 239 24 -19 7 -463 7 -481 -1z"/>
<path d="M4260 906 c0 -9 7 -16 16 -16 17 0 14 22 -4 28 -7 2 -12 -3 -12 -12z"/>
<path d="M887 883 c-10 -21 -6 -103 6 -103 8 0 7 -4 -3 -10 -20 -13 -83 -13 -96 0 -6 6 -25 7 -42 4 -24 -5 -32 -12 -32 -28 0 -39 13 -45 100 -49 l85 -3 -95 -1 c-64 0 -95 -4 -98 -12 -3 -9 24 -12 107 -10 96 3 111 5 106 19 -12 28 -10 34 10 38 34 6 60 52 30 52 -8 0 -15 -7 -15 -16 0 -9 -7 -14 -17 -12 -14 3 -18 15 -20 58 -1 30 -2 61 -2 68 -1 13 -17 17 -24 5z m-110 -160 c-16 -16 -17 -16 -17 0 0 10 -4 15 -10 12 -5 -3 -10 -1 -10 5 0 7 7 10 15 6 8 -3 15 0 15 6 0 9 3 9 12 0 9 -9 8 -16 -5 -29z m133 16 c0 -5 -4 -9 -10 -9 -5 0 -10 7 -10 16 0 8 5 12 10 9 6 -3 10 -10 10 -16z m-60 -9 c0 -13 -7 -20 -20 -20 -13 0 -20 7 -20 20 0 13 7 20 20 20 13 0 20 -7 20 -20z m30 -10 c0 -5 -4 -10 -10 -10 -5 0 -10 5 -10 10 0 6 5 10 10 10 6 0 10 -4 10 -10z"/>
<path d="M950 840 c0 -31 9 -37 27 -19 14 14 5 49 -13 49 -9 0 -14 -11 -14 -30z"/>
<path d="M956 653 c-9 -9 -7 -51 3 -57 5 -3 14 1 20 8 8 10 9 16 1 21 -6 3 -8 10 -5 15 7 11 -10 22 -19 13z"/>
<path d="M3769 513 c-4 -33 5 -109 13 -114 15 -9 14 -14 -1 -33 -13 -15 -13 -19 0 -27 9 -5 -23 -9 -88 -9 -62 0 -103 -4 -103 -10 0 -6 45 -10 115 -10 70 0 115 4 115 10 0 6 -4 10 -10 10 -5 0 -10 9 -10 19 0 14 8 21 28 23 19 2 28 9 30 26 2 12 -1 22 -7 22 -6 0 -11 -7 -11 -15 0 -8 -9 -15 -20 -15 -17 0 -20 7 -22 43 0 23 0 52 1 65 1 14 -4 22 -14 22 -8 0 -15 -3 -16 -7z"/>
<path d="M957 434 c-4 -4 -7 -18 -7 -31 0 -25 24 -32 33 -9 7 17 -15 50 -26 40z"/>
</g>
</svg>
