<?xml version="1.0" standalone="no"?>
<!DOCTYPE svg PUBLIC "-//W3C//DTD SVG 20010904//EN"
 "http://www.w3.org/TR/2001/REC-SVG-20010904/DTD/svg10.dtd">
<svg version="1.0" xmlns="http://www.w3.org/2000/svg"
 width="702.000000pt" height="408.000000pt" viewBox="0 0 702.000000 408.000000"
 preserveAspectRatio="xMidYMid meet">
<metadata>
Created by potrace 1.16, written by Peter Selinger 2001-2019
</metadata>
<g transform="translate(0.000000,408.000000) scale(0.100000,-0.100000)"
fill="#000000" stroke="none">
<path d="M4654 4007 c-3 -9 -13 -13 -25 -10 -10 3 -19 4 -19 2 -1 -30 -41
-433 -43 -436 -3 -2 -17 1 -32 7 -15 6 -39 9 -53 8 -15 -1 -51 7 -81 18 l-54
19 7 106 7 107 -62 21 c-76 25 -88 26 -136 4 -71 -32 -73 -36 -73 -140 0 -82
-3 -97 -20 -111 -26 -22 -41 -181 -19 -198 8 -6 67 -30 131 -55 75 -28 118
-50 121 -60 3 -11 46 -33 117 -60 72 -28 115 -50 118 -61 3 -13 12 -15 38 -11
19 3 34 2 34 -3 -1 -11 -164 -104 -182 -104 -7 0 -123 45 -258 100 -135 55
-251 100 -258 100 -7 0 -178 -80 -381 -178 l-367 -178 -69 33 c-38 18 -76 33
-83 33 -10 0 -12 -17 -10 -71 l3 -71 -337 -164 -337 -163 -158 91 c-87 50
-385 221 -663 381 -278 160 -590 339 -693 399 -174 100 -207 116 -207 103 0
-2 18 -81 40 -175 22 -94 40 -176 40 -183 -1 -31 -20 29 -50 155 -17 76 -35
140 -40 143 -10 6 -310 -95 -310 -106 0 -4 55 -42 122 -85 96 -60 250 -158
265 -168 1 -1 43 -173 93 -381 54 -227 89 -391 86 -407 -3 -16 10 -91 29 -169
27 -115 39 -146 62 -170 36 -36 59 -36 133 1 l60 30 30 -22 c31 -23 35 -33 65
-170 9 -43 21 -78 26 -78 5 0 19 -11 31 -25 28 -32 40 -31 117 10 l65 35 36
-25 37 -25 216 116 c123 67 218 124 219 133 4 17 -37 313 -46 337 -3 8 -3 14
-1 14 3 0 56 -33 118 -73 l113 -74 18 -164 c9 -90 20 -174 23 -186 4 -18 1
-23 -14 -23 -26 0 -62 -40 -73 -82 -6 -20 -20 -40 -35 -48 -14 -7 -25 -17 -25
-22 0 -5 -19 1 -42 13 -40 21 -43 21 -74 4 -35 -19 -55 -53 -48 -82 4 -14 -4
-23 -31 -36 -21 -10 -35 -23 -33 -31 2 -8 83 -73 180 -146 l177 -131 96 58
c52 31 95 63 95 69 0 6 -7 17 -15 24 -8 7 -15 19 -15 27 0 10 10 6 35 -12 19
-15 39 -24 45 -20 5 3 10 3 10 -1 0 -3 20 -203 45 -443 25 -240 46 -449 47
-464 3 -24 -7 -35 -71 -82 l-73 -53 -419 350 c-231 193 -422 348 -425 345 -3
-3 -1 -29 5 -58 6 -29 8 -56 3 -61 -4 -4 -95 67 -202 158 -122 104 -196 161
-198 152 -1 -8 12 -78 31 -156 l34 -141 -28 22 c-15 12 -79 68 -142 124 l-114
103 -149 -81 c-95 -53 -152 -78 -159 -73 -55 41 -73 49 -114 49 l-45 1 -23 77
c-17 56 -30 81 -49 94 -15 9 -39 29 -54 45 -32 32 -83 37 -153 16 -51 -15
-117 -77 -117 -108 0 -13 -5 -39 -12 -57 -11 -30 -9 -44 20 -127 22 -61 31
-101 27 -118 -16 -64 72 -141 175 -153 56 -6 59 -9 66 -38 5 -18 7 -52 5 -76
-3 -41 0 -46 49 -92 53 -50 88 -63 165 -63 30 0 55 10 102 42 72 49 88 68 104
131 l12 47 204 118 c169 98 206 116 218 106 9 -7 18 -10 22 -6 3 3 -10 71 -29
151 -19 80 -32 144 -27 143 4 -2 73 -58 152 -126 114 -98 146 -130 151 -155 5
-22 2 -33 -9 -40 -19 -10 -19 -41 0 -57 16 -13 21 -60 6 -60 -5 0 -12 -11 -15
-25 -9 -37 -78 -79 -116 -71 -31 6 -70 -10 -70 -29 0 -6 -9 -16 -21 -23 -14
-9 -19 -20 -16 -34 4 -13 -1 -26 -14 -37 -19 -16 -18 -17 35 -70 l54 -54 35
22 35 21 5 -22 c4 -15 0 -26 -14 -36 -20 -14 -19 -16 32 -68 29 -30 59 -54 67
-54 7 0 32 13 55 28 60 41 67 44 67 34 0 -5 -12 -14 -26 -21 -20 -9 -25 -17
-21 -33 4 -14 -1 -27 -16 -39 -14 -11 -18 -21 -12 -27 6 -5 33 -30 62 -56 l52
-47 143 97 c191 129 180 116 135 162 -20 21 -37 41 -37 46 0 4 14 21 30 36 19
18 30 38 30 55 0 22 -3 25 -13 16 -8 -6 -17 -8 -20 -4 -4 3 -7 -3 -7 -15 0
-12 -4 -22 -10 -22 -13 0 -30 34 -30 59 0 11 -6 26 -14 34 -8 8 -18 31 -22 52
-4 22 -18 47 -35 62 -15 14 -26 30 -23 37 2 6 -5 29 -16 51 -11 21 -20 50 -20
63 l0 24 38 -30 c117 -94 113 -89 117 -179 3 -87 8 -103 31 -103 18 0 19 46 1
80 -15 29 -29 90 -21 90 3 0 112 -89 242 -198 130 -109 243 -202 250 -206 14
-8 172 99 172 117 0 7 -4 50 -10 97 -5 47 -26 240 -45 430 -19 190 -37 361
-40 381 -5 35 -3 37 58 74 89 55 100 65 84 83 -10 13 -9 14 9 2 20 -12 29 -9
95 30 41 23 82 50 92 58 16 14 16 17 1 33 -9 10 -13 26 -10 37 6 18 3 20 -32
15 -45 -6 -51 5 -42 72 4 30 7 35 12 22 11 -26 46 -18 66 16 16 27 16 29 0 41
-10 7 -18 22 -18 32 0 10 -7 28 -15 38 -8 11 -15 38 -15 61 l0 42 146 81 c81
46 148 81 150 80 1 -2 5 -95 9 -207 6 -147 5 -205 -4 -210 -8 -5 -9 -54 -3
-178 8 -186 9 -188 74 -229 l38 -24 0 -89 c0 -49 3 -96 6 -105 8 -20 32 -21
54 -1 14 13 44 -4 296 -173 277 -185 279 -187 284 -226 8 -61 30 -67 86 -23
26 20 52 37 57 37 5 0 26 -13 46 -29 58 -45 76 -52 96 -37 16 11 19 35 26 167
7 157 5 301 -5 317 -6 10 41 792 48 800 3 2 88 -40 190 -93 185 -97 186 -98
186 -131 0 -34 26 -68 61 -79 17 -6 17 -7 -2 -26 -21 -21 -25 -55 -7 -61 8 -3
6 -14 -8 -36 -15 -27 -16 -36 -6 -52 6 -11 12 -40 12 -65 0 -48 16 -59 40 -30
7 8 20 15 29 15 9 -1 156 -79 326 -174 l310 -173 0 -39 c0 -52 19 -51 78 4 46
41 87 106 87 136 0 8 12 24 26 35 46 36 64 82 62 163 -1 90 -9 113 -56 161
l-36 37 20 21 21 21 182 -92 c191 -95 211 -99 211 -46 0 11 36 172 79 356 l79
335 57 50 c50 45 55 52 41 64 -9 7 -16 19 -16 26 0 13 59 67 179 165 l53 44
-7 -34 c-8 -38 -35 -84 -43 -75 -3 2 -11 0 -19 -7 -11 -9 -11 -14 2 -28 21
-23 4 -70 -24 -70 -33 0 -51 -11 -51 -31 0 -13 -7 -19 -21 -19 -29 0 -59 -18
-59 -35 0 -8 -14 -30 -31 -50 -19 -21 -28 -40 -23 -45 5 -4 35 -20 66 -33 l57
-25 58 50 c32 28 62 54 67 59 6 5 5 17 -3 31 -14 28 -11 55 11 87 12 16 14 29
8 41 -5 9 -5 22 1 31 5 7 9 32 9 54 0 54 16 109 38 128 17 15 24 14 97 -14 44
-17 81 -32 82 -33 4 -4 -36 -130 -49 -154 -6 -13 -18 -20 -25 -18 -20 8 -29
-25 -10 -35 25 -15 0 -69 -33 -69 -26 0 -52 -12 -51 -24 3 -19 -2 -24 -29 -30
-20 -3 -34 -14 -40 -30 -5 -14 -23 -37 -40 -52 -16 -15 -30 -33 -30 -39 0 -19
128 -67 148 -56 9 5 42 35 72 66 49 50 53 57 37 66 -18 11 -16 44 7 84 6 11
12 31 13 45 7 76 14 121 29 178 14 50 20 62 33 56 9 -3 21 -8 27 -11 7 -2 46
25 88 62 60 53 78 74 87 108 6 23 20 69 30 102 10 33 19 64 19 68 0 4 -18 16
-41 25 l-40 17 105 85 c58 47 105 88 106 92 0 3 -49 23 -110 43 -96 32 -110
39 -110 59 0 20 -20 29 -212 93 -120 39 -216 66 -219 61 -3 -5 -18 -61 -34
-124 -18 -77 -31 -114 -41 -114 -7 0 -11 6 -9 13 2 6 30 122 61 257 31 135 58
246 59 248 4 5 245 -71 245 -77 -1 -3 -59 -46 -131 -94 -72 -49 -128 -91 -126
-94 6 -6 277 179 280 191 1 5 -99 40 -223 78 -124 38 -378 116 -565 173 -187
57 -518 158 -735 225 -475 145 -438 136 -446 117z m131 -47 c-7 -11 -108 23
-113 38 -2 7 20 3 57 -9 34 -12 59 -25 56 -29z m-135 6 c0 -24 -31 -372 -36
-393 -7 -38 -34 -29 -28 10 5 37 34 371 34 392 0 9 6 12 15 9 8 -4 15 -11 15
-18z m82 -15 c5 -4 -1 -94 -12 -201 -11 -107 -20 -203 -20 -213 0 -17 -5 -19
-32 -13 -17 3 -34 8 -37 11 -2 3 4 102 14 220 l19 216 30 -7 c17 -3 34 -9 38
-13z m708 -180 c305 -93 594 -181 643 -196 48 -14 87 -30 87 -36 0 -5 -6 -9
-12 -9 -7 0 -177 51 -378 113 -201 63 -503 156 -672 208 -177 54 -308 99 -308
106 0 9 11 8 43 -2 23 -8 292 -91 597 -184z m-660 145 c0 -39 -41 -410 -46
-415 -2 -3 -9 0 -14 5 -7 7 -3 77 10 204 11 107 20 202 20 212 0 10 7 18 15
18 9 0 15 -9 15 -24z m686 -190 c638 -197 659 -205 656 -227 -2 -13 -11 -55
-20 -93 l-17 -68 -171 -109 -170 -109 -55 19 c-30 10 -53 23 -53 27 1 5 10 56
19 112 9 57 13 107 9 112 -5 4 -45 19 -88 34 l-79 26 -54 -31 c-30 -17 -58
-41 -62 -53 -4 -11 -14 -63 -21 -113 -7 -51 -16 -93 -19 -93 -26 -2 -41 -35
-56 -125 -8 -54 -12 -101 -8 -105 4 -4 79 -33 165 -66 122 -46 158 -63 158
-77 0 -10 12 -22 28 -28 217 -80 310 -121 305 -136 -5 -12 -1 -14 24 -9 42 10
127 -25 131 -53 3 -18 7 -19 23 -10 11 6 25 9 30 7 18 -6 -161 -140 -180 -135
-23 7 -1172 475 -1177 480 -4 4 15 170 21 175 2 2 13 -2 26 -8 12 -7 36 -14
53 -15 17 -2 73 -20 125 -39 l94 -36 77 45 c43 25 83 51 88 58 8 10 32 157 32
193 0 6 -42 26 -92 44 -51 18 -106 41 -123 50 -16 10 -99 41 -183 71 l-153 53
5 36 c3 19 13 107 21 195 15 153 22 205 28 205 2 0 300 -92 663 -204z m-1330
87 c-4 -4 14 -15 41 -24 47 -15 48 -16 54 -65 l6 -49 1 47 c2 46 3 48 46 68
25 11 49 20 54 20 8 0 7 -60 -4 -167 -4 -41 -10 -53 -25 -58 -11 -4 -18 -9
-15 -12 3 -3 16 2 30 10 22 15 28 15 70 1 25 -9 46 -18 46 -20 0 -2 -27 -17
-61 -34 -40 -21 -68 -29 -82 -24 -21 6 -21 5 -3 -8 16 -12 18 -25 15 -91 -3
-41 -7 -78 -10 -82 -3 -3 -14 -2 -24 1 -16 7 -17 17 -12 101 5 76 4 93 -8 93
-27 0 -26 19 2 35 15 9 19 13 8 10 -46 -16 -56 -17 -83 -6 -30 13 -57 57 -38
64 6 2 8 7 5 11 -3 3 -14 -1 -25 -9 -16 -12 -17 -16 -4 -24 17 -12 7 -26 -11
-16 -16 11 -4 215 14 227 15 10 23 10 13 1z m-51 -233 c-3 -5 1 -10 10 -10 8
0 18 -7 21 -15 8 -19 -15 -87 -27 -79 -5 3 -6 10 -3 16 5 7 1 9 -9 5 -14 -5
-17 1 -17 37 0 38 6 49 28 55 2 1 0 -3 -3 -9z m451 -25 c30 -12 35 -19 30 -37
-3 -13 -6 -40 -6 -60 0 -24 -5 -38 -12 -38 -7 0 -55 16 -107 35 -52 19 -95 34
-96 33 -1 -2 -7 -50 -12 -108 -10 -101 -10 -103 -11 -35 -1 39 1 87 5 109 6
36 10 40 86 77 45 21 82 39 84 39 2 0 20 -7 39 -15z m-331 -25 c47 -20 47 -21
41 -58 -3 -20 -6 -56 -6 -79 0 -28 -4 -43 -12 -43 -14 0 -145 50 -165 63 -24
15 -13 26 25 24 36 -2 37 -1 35 32 -1 19 2 29 6 23 5 -9 82 -42 97 -42 2 0 4
11 4 24 0 20 -8 27 -50 41 -28 9 -48 21 -44 26 8 13 16 12 69 -11z m399 -64
c-7 -67 -10 -74 -24 -60 -5 5 -6 37 -3 71 4 47 9 60 20 56 11 -4 12 -19 7 -67z
m1664 53 c39 -12 72 -25 72 -28 0 -18 -118 -503 -124 -508 -17 -17 -11 20 40
236 30 129 54 240 54 247 0 7 -29 22 -65 34 -36 12 -65 26 -65 31 0 13 6 12
88 -12z m-1604 -9 c28 -10 33 -41 20 -109 -5 -26 -10 -30 -27 -25 -13 4 -17 2
-13 -5 5 -7 1 -9 -8 -5 -9 3 -14 10 -11 14 3 5 1 10 -3 12 -11 4 -2 128 9 128
4 0 19 -4 33 -10z m1480 -78 c-9 -40 -20 -72 -25 -72 -12 0 -11 10 7 92 10 42
20 66 25 61 6 -6 3 -38 -7 -81z m-1968 63 c10 -8 14 -15 8 -15 -5 0 -19 7 -30
15 -10 8 -14 15 -8 15 5 0 19 -7 30 -15z m2060 -6 c25 -6 43 -16 42 -21 -5
-14 -128 -90 -128 -79 0 26 25 111 32 111 5 0 29 -5 54 -11z m-1505 -40 c-3
-30 -19 -54 -29 -44 -2 2 -1 22 3 45 8 50 32 49 26 -1z m322 -79 c4 -3 -27
-24 -69 -47 l-76 -40 -81 30 c-45 17 -84 32 -87 34 -2 2 2 13 9 25 7 12 9 24
4 29 -5 5 -7 24 -5 43 l4 35 147 -51 c80 -28 149 -54 154 -58z m-4247 -17
l168 -98 43 -205 c45 -219 48 -240 34 -225 -5 6 -26 89 -46 185 -21 96 -40
178 -44 182 -3 4 -60 -13 -126 -37 -66 -24 -123 -40 -126 -37 -6 6 -79 308
-79 325 0 4 2 7 4 7 2 0 80 -44 172 -97z m5434 -142 c-28 -118 -52 -217 -55
-219 -4 -4 -95 27 -107 37 -8 7 58 322 70 332 4 4 36 26 72 49 44 28 66 37 68
28 1 -7 -20 -109 -48 -227z m-755 207 c-11 -6 -32 -20 -47 -30 -16 -11 -28
-16 -28 -11 0 9 70 52 85 52 6 0 1 -5 -10 -11z m-1003 -36 c10 -21 14 -40 9
-45 -27 -27 -79 29 -60 65 15 28 32 21 51 -20z m47 -12 c0 -10 -3 -8 -9 5 -12
27 -12 43 0 25 5 -8 9 -22 9 -30z m18 8 c-3 -8 -6 -5 -6 6 -1 11 2 17 5 13 3
-3 4 -12 1 -19z m-3919 -121 c38 -159 39 -171 12 -164 -22 6 -331 199 -326
204 5 5 259 91 272 92 5 1 25 -59 42 -132z m4089 114 c0 -11 -5 -18 -9 -15 -4
3 -5 11 -1 19 7 21 12 19 10 -4z m933 15 c0 -3 -4 -8 -10 -11 -5 -3 -10 -1
-10 4 0 6 5 11 10 11 6 0 10 -2 10 -4z m-1060 -20 c0 -3 -4 -8 -10 -11 -5 -3
-10 -1 -10 4 0 6 5 11 10 11 6 0 10 -2 10 -4z m893 -25 c46 -16 67 -28 68 -39
0 -12 3 -10 9 6 5 12 14 22 20 22 6 0 8 4 5 10 -4 6 1 7 11 3 10 -4 15 -2 11
4 -3 5 -1 10 6 10 7 0 21 4 31 9 15 6 18 4 14 -7 -3 -8 -13 -60 -23 -116 l-18
-103 -46 -29 c-29 -19 -48 -26 -52 -19 -4 7 -8 6 -11 -2 -3 -10 -11 -10 -41
-1 -29 10 -36 17 -32 31 4 11 -1 20 -12 24 -15 6 -15 9 -3 16 8 5 12 11 9 14
-3 3 -14 -1 -25 -8 -19 -15 -19 -15 1 -30 26 -19 15 -29 -19 -17 -31 12 -31
19 -9 152 10 62 20 98 27 96 6 -2 41 -14 79 -26z m-810 -64 c-3 -34 -10 -69
-15 -77 -6 -10 -7 4 -4 40 3 30 6 68 6 83 0 16 4 26 9 23 5 -3 7 -34 4 -69z
m517 34 c41 -16 74 -32 73 -37 -2 -5 -31 -24 -66 -43 l-63 -35 -99 36 -99 35
75 41 c41 23 81 39 89 37 8 -3 49 -18 90 -34z m-641 12 c-1 -10 -4 -27 -7 -39
-7 -20 -9 -20 -42 -5 -32 13 -33 15 -12 19 12 2 28 12 35 23 15 24 27 25 26 2z
m1571 7 c0 -17 -61 -284 -65 -289 -17 -16 -13 25 14 149 17 77 31 143 31 145
0 3 5 5 10 5 6 0 10 -5 10 -10z m-1531 -10 c13 -6 17 -17 14 -35 -7 -36 -23
-31 -24 8 l-2 32 -7 -35 -7 -35 -2 38 c-1 40 1 42 28 27z m57 -6 c-3 -9 -6
-36 -6 -60 0 -34 -4 -44 -16 -44 -13 0 -15 8 -9 53 8 58 12 67 27 67 5 0 7 -7
4 -16z m74 6 c0 -6 -6 -19 -12 -30 -11 -17 -10 -22 2 -30 11 -7 12 -14 4 -27
-17 -28 -38 -30 -31 -2 4 13 7 41 7 62 0 26 4 37 15 37 8 0 15 -5 15 -10z
m-270 -25 c13 -14 38 -29 56 -35 23 -8 34 -18 34 -31 0 -10 -2 -19 -5 -19 -12
0 -171 63 -182 72 -17 14 -6 29 14 21 9 -4 14 -2 11 3 -4 5 6 10 22 11 18 1
35 -6 50 -22z m1604 -115 l-29 -131 -26 6 c-14 3 -60 19 -101 34 -48 18 -87
26 -109 24 -28 -4 -13 9 91 77 69 45 141 92 160 105 19 12 37 21 38 20 2 -2
-9 -62 -24 -135z m-1188 95 c45 -18 36 -57 -21 -90 -50 -30 -52 -30 -58 -7 -3
9 -5 2 -6 -15 0 -18 1 -33 3 -33 2 0 24 11 47 25 24 14 47 25 50 25 6 0 0 -91
-7 -99 -5 -5 -83 27 -97 41 -7 6 -12 27 -10 47 1 20 -1 26 -3 13 -10 -42 -29
-17 -27 33 2 56 24 80 34 37 6 -24 7 -23 8 11 1 36 2 37 29 31 15 -4 41 -12
58 -19z m-276 -70 c-14 -16 -40 -9 -40 11 0 21 44 36 48 17 2 -8 -2 -20 -8
-28z m529 -31 c5 -4 -16 -155 -23 -161 -5 -6 -173 54 -189 67 -4 3 -2 42 4 86
l12 81 96 -36 c53 -19 98 -36 100 -37z m-3768 -135 c568 -327 781 -449 872
-501 48 -28 87 -52 87 -55 0 -2 -38 -22 -85 -43 -47 -22 -88 -45 -91 -53 -2
-7 2 -67 11 -132 8 -65 13 -120 11 -122 -2 -3 -53 27 -113 65 -59 38 -193 123
-298 189 -245 155 -659 416 -662 418 -1 0 -20 88 -42 195 -23 107 -43 206 -46
219 -5 18 -2 22 8 18 8 -3 165 -92 348 -198z m2796 107 c128 -52 239 -98 247
-103 11 -6 -5 -19 -59 -47 l-73 -40 -197 84 -198 84 -291 -146 -291 -146 -53
27 -53 27 268 129 c147 72 311 151 363 177 52 26 97 47 100 47 3 1 110 -41
237 -93z m2291 20 c51 -17 82 -33 82 -42 0 -8 -1 -14 -3 -14 -7 0 -178 59
-187 65 -13 8 -2 28 14 22 6 -2 48 -16 94 -31z m-5449 -146 c18 -89 32 -163
29 -165 -3 -4 -283 166 -294 179 -1 0 -5 15 -8 32 l-7 31 113 41 c62 22 118
41 123 41 6 1 25 -71 44 -159z m3711 146 c0 -3 -4 -8 -10 -11 -5 -3 -10 -1
-10 4 0 6 5 11 10 11 6 0 10 -2 10 -4z m1728 -40 c45 -15 82 -32 82 -38 0 -5
-7 -33 -14 -61 -8 -29 -20 -71 -26 -94 l-11 -42 -87 31 c-48 17 -90 34 -94 37
-7 6 -1 32 33 164 6 23 15 37 22 34 7 -2 49 -16 95 -31z m-1768 -7 c0 -15 5
-19 15 -15 11 4 15 -1 15 -19 0 -20 -13 -33 -55 -60 -30 -19 -57 -35 -62 -35
-13 0 -123 45 -123 50 1 9 174 99 193 99 11 1 17 -6 17 -20z m685 0 c-4 -5 0
-9 7 -9 8 0 23 -6 33 -14 17 -12 17 -17 5 -45 -11 -28 -17 -31 -40 -26 -53 12
-69 -50 -17 -68 34 -11 57 5 57 40 0 19 3 23 13 16 6 -6 34 -18 60 -28 42 -16
50 -16 58 -4 15 23 10 37 -14 43 -56 14 -100 37 -89 48 8 8 29 4 72 -12 59
-22 62 -24 56 -52 -3 -15 -11 -58 -18 -93 -7 -39 -16 -64 -22 -61 -6 2 -59 22
-117 45 l-106 41 14 86 c13 81 28 118 46 107 4 -2 5 -9 2 -14z m336 9 c22 -6
39 -15 39 -19 0 -4 -21 -19 -47 -34 -41 -24 -44 -29 -30 -40 29 -21 7 -24 -46
-5 -96 33 -94 29 -25 71 35 22 65 39 67 39 2 0 21 -5 42 -12z m962 -30 c68
-24 94 -37 89 -45 -10 -16 -202 45 -202 64 0 18 3 17 113 -19z m-2510 -100
c53 -22 99 -44 102 -48 2 -4 -48 -36 -113 -70 -64 -35 -202 -110 -307 -167
-104 -57 -190 -103 -191 -103 -2 0 -4 15 -6 33 -3 31 -9 35 -158 108 l-155 77
284 140 285 140 80 -35 c45 -19 125 -53 179 -75z m614 104 c9 -6 4 -13 -17
-26 l-30 -17 0 25 c0 27 21 34 47 18z m1023 -7 c0 -10 -91 -56 -102 -53 -16 6
60 57 85 57 9 1 17 -1 17 -4z m151 -29 c52 -19 94 -38 94 -42 0 -5 -4 -31 -8
-57 -7 -40 -11 -47 -25 -42 -9 4 -64 24 -122 45 -58 21 -118 43 -134 49 l-29
12 54 34 c30 19 59 35 65 35 6 0 54 -15 105 -34z m-5218 4 c3 -11 1 -20 -4
-20 -5 0 -9 2 -9 4 0 2 -3 11 -6 20 -3 9 -2 16 4 16 5 0 12 -9 15 -20z m4083
3 c-2 -10 -8 -51 -11 -90 -4 -40 -9 -73 -11 -73 -3 0 -20 7 -39 14 -32 14 -35
18 -35 58 0 51 4 57 50 86 43 26 53 27 46 5z m1841 -14 c62 -20 93 -36 93 -45
0 -15 -50 -196 -56 -203 -5 -6 -104 30 -104 38 0 4 -18 13 -40 20 -22 6 -40
17 -40 24 0 21 44 197 49 197 3 0 48 -14 98 -31z m-1164 -36 c18 -6 24 -23 7
-23 -5 0 -21 5 -35 12 -28 12 -35 34 -7 23 9 -4 25 -10 35 -12z m-4659 -381
c48 -206 85 -376 83 -379 -3 -2 -8 4 -11 14 -11 37 -176 735 -176 746 0 45 28
-57 104 -381z m3706 356 l45 -19 -73 -41 -73 -40 -59 22 c-33 12 -60 25 -60
29 0 4 30 23 68 44 71 39 73 39 152 5z m170 -2 c0 -45 -10 -50 -57 -31 l-38
16 40 24 c53 31 55 31 55 -9z m680 14 c12 -8 11 -10 -5 -10 -12 0 -26 -5 -33
-12 -16 -16 -15 -1 1 17 15 17 18 18 37 5z m277 -4 c8 -7 -29 -186 -38 -186
-24 0 -59 25 -55 39 3 9 10 49 17 89 l13 74 30 -6 c16 -4 31 -8 33 -10z m198
-42 c85 -31 155 -60 155 -65 0 -12 9 -15 -160 46 -84 31 -153 54 -154 53 -4
-6 -36 -187 -35 -195 4 -24 -1 -37 -12 -26 -19 19 25 238 48 243 1 0 72 -25
158 -56z m215 51 c0 -24 -24 -105 -31 -105 -11 0 -11 -1 2 60 6 27 15 50 20
50 5 0 9 -2 9 -5z m786 -25 c49 -17 95 -32 103 -35 8 -3 -26 -38 -90 -90 -86
-71 -108 -85 -129 -80 -14 4 -28 9 -31 13 -6 6 49 222 55 222 1 0 42 -14 92
-30z m-5976 -60 c47 -28 103 -64 125 -78 22 -15 41 -27 42 -27 8 -3 72 -330
66 -336 -5 -4 -43 -22 -85 -39 -52 -22 -78 -38 -78 -49 0 -9 18 -92 40 -186
27 -115 46 -174 58 -183 15 -11 15 -14 2 -22 -29 -19 -36 -9 -59 83 -12 52
-29 101 -38 110 -15 15 -58 185 -168 662 -14 61 -29 119 -32 130 -5 18 -4 18
18 4 13 -9 62 -40 109 -69z m5271 63 c30 -11 49 -24 49 -33 -1 -62 -45 -91
-102 -67 l-35 15 10 51 c6 28 15 51 20 51 5 0 31 -8 58 -17z m-1506 -43 l47
-20 -7 -67 c-4 -38 -8 -69 -9 -70 -3 -3 -226 92 -226 97 0 6 131 79 142 80 3
0 27 -9 53 -20z m1581 -36 c-4 -18 -11 -34 -16 -34 -13 0 -12 6 1 55 14 46 24
31 15 -21z m33 -22 c-15 -65 -34 -69 -24 -6 9 61 16 77 27 66 5 -5 4 -30 -3
-60z m-3149 -33 c-30 -15 -58 -28 -62 -29 -5 0 -8 27 -8 60 l0 60 62 -31 62
-31 -54 -29z m2654 66 c-9 -14 -18 -25 -20 -25 -2 0 2 11 8 25 6 14 15 25 20
25 5 0 1 -11 -8 -25z m-1423 -7 c30 -12 57 -24 61 -27 4 -3 -149 -93 -339
-200 -312 -174 -348 -192 -370 -182 -36 16 -41 14 -45 -21 -3 -29 -14 -37
-214 -149 l-211 -118 -68 36 -67 36 53 28 c30 16 297 162 594 323 297 162 543
295 546 295 4 1 31 -9 60 -21z m2056 -13 l81 -28 -15 -51 c-8 -28 -17 -53 -19
-55 -3 -4 -155 47 -173 58 -7 5 -7 19 0 46 16 63 18 67 32 63 6 -3 49 -17 94
-33z m-587 9 c0 -8 13 -28 28 -44 l28 -28 -42 -9 c-31 -7 -42 -7 -41 1 1 6 -3
10 -9 9 -11 -2 -10 59 1 77 10 16 35 11 35 -6z m58 -28 c6 -28 -17 -17 -34 16
l-17 32 24 -16 c13 -8 25 -23 27 -32z m-1114 20 l33 -14 -8 -53 c-4 -30 -8
-62 -8 -71 -1 -15 -4 -15 -42 0 -39 15 -41 17 -35 51 3 20 6 51 6 69 0 36 6
38 54 18z m1146 -34 c0 -21 7 -30 29 -39 28 -10 29 -13 21 -48 -5 -20 -10 -39
-13 -41 -7 -7 -116 36 -123 48 -5 8 -1 9 10 5 19 -8 76 18 76 34 0 6 -3 8 -7
6 -5 -3 -8 12 -8 33 0 21 3 36 8 33 4 -2 7 -16 7 -31z m34 7 c-8 -14 -24 -10
-24 6 0 9 6 12 15 9 8 -4 12 -10 9 -15z m106 11 c0 -5 -5 -10 -11 -10 -5 0 -7
5 -4 10 3 6 8 10 11 10 2 0 4 -4 4 -10z m-540 -287 c250 -102 464 -189 476
-193 16 -6 35 3 90 46 38 30 77 60 87 65 17 10 18 8 12 -23 -14 -72 -26 -98
-45 -98 -26 0 -35 -19 -15 -33 25 -19 4 -67 -29 -67 -18 0 -30 -9 -41 -31 -12
-22 -21 -28 -35 -24 -13 4 -24 -3 -41 -27 -12 -18 -33 -45 -47 -60 -13 -14
-22 -30 -19 -35 3 -5 35 -20 72 -33 61 -23 65 -27 60 -50 -4 -14 -8 -27 -11
-29 -2 -2 -33 8 -68 23 -38 16 -70 25 -78 20 -7 -4 -136 -109 -287 -233 -151
-123 -279 -224 -285 -223 -6 1 -27 5 -46 9 -32 8 -35 12 -35 43 0 26 -6 37
-26 49 -32 18 -79 7 -86 -19 -3 -11 -13 -20 -22 -20 -9 0 -27 -7 -39 -16 -12
-8 -27 -12 -32 -9 -15 9 -12 25 3 19 18 -6 146 92 156 119 18 52 55 329 45
344 -7 11 0 78 22 217 17 110 30 203 27 206 -2 3 -111 50 -241 105 l-237 100
3 35 c1 19 5 51 8 72 l5 36 122 -50 c67 -27 327 -133 577 -235z m648 249 c33
-21 20 -26 -23 -8 -44 19 -48 19 -40 6 8 -13 -5 -13 -25 0 -9 6 -11 10 -3 10
7 0 10 7 7 15 -5 12 -1 13 27 3 19 -6 44 -18 57 -26z m-2910 0 l52 -27 -116
-58 c-64 -32 -119 -56 -121 -53 -3 3 -8 25 -10 50 l-6 45 69 34 c38 19 71 35
74 35 3 1 29 -11 58 -26z m1305 -19 c62 -26 117 -50 122 -54 14 -11 -68 -808
-84 -818 -6 -4 -16 -50 -22 -102 -5 -52 -12 -104 -14 -115 -4 -20 -19 -14
-196 79 l-190 102 5 55 c3 30 8 108 12 172 l6 118 -221 107 c-121 58 -221 109
-221 112 0 5 679 391 688 391 2 0 53 -21 115 -47z m1457 28 c0 -10 -24 -21
-43 -21 -7 0 -3 7 7 15 22 17 36 19 36 6z m548 -10 c9 -5 0 -19 -33 -45 -25
-21 -47 -37 -49 -35 -1 2 4 26 11 52 15 49 24 53 71 28z m-518 -16 c-7 -9 -15
-13 -17 -11 -7 7 7 26 19 26 6 0 6 -6 -2 -15z m-147 -93 c41 -15 64 -19 76
-13 15 8 17 6 13 -20 -2 -16 -8 -32 -13 -35 -6 -3 -68 17 -139 45 -71 28 -134
51 -140 51 -19 0 -9 15 28 41 l37 27 40 -38 c22 -20 66 -46 98 -58z m106 56
c-5 -18 -16 -39 -24 -47 -14 -14 -15 -12 -9 19 7 36 21 60 35 60 4 0 3 -14 -2
-32z m167 -32 c-7 -39 -30 -68 -78 -96 -13 -8 -17 -7 -14 2 3 7 12 45 21 85
l17 71 30 -10 c29 -10 30 -13 24 -52z m84 54 c0 -5 -4 -10 -10 -10 -5 0 -10 5
-10 10 0 6 5 10 10 10 6 0 10 -4 10 -10z m-2766 -80 c154 -73 156 -75 156
-106 0 -32 -3 -34 -277 -183 -153 -83 -280 -147 -284 -143 -4 4 -10 91 -14
194 l-7 187 128 65 c71 36 132 64 135 63 3 -1 76 -36 163 -77z m2945 14 c14
-14 -13 -12 -60 5 -94 33 -110 41 -105 50 5 8 151 -41 165 -55z m226 50 c24
-10 35 -20 31 -29 -2 -8 -10 -31 -15 -52 -17 -61 -37 -67 -125 -35 -42 15 -75
30 -73 35 5 15 112 96 128 97 9 0 33 -7 54 -16z m-5527 -147 c17 -75 26 -140
21 -143 -5 -3 -9 -4 -9 -2 0 2 -13 66 -30 143 -33 155 -34 163 -20 149 5 -5
22 -71 38 -147z m4951 92 c-14 -69 -21 -80 -38 -70 -11 7 -12 17 -2 57 10 40
38 80 49 70 1 -2 -3 -27 -9 -57z m-3039 -2 l0 -52 -186 -93 c-103 -51 -189
-91 -192 -88 -3 3 -7 27 -9 53 l-5 48 188 92 c104 50 192 92 197 92 4 1 7 -23
7 -52z m2990 43 c0 -5 -4 -10 -10 -10 -5 0 -10 5 -10 10 0 6 5 10 10 10 6 0
10 -4 10 -10z m162 -22 c-7 -7 -12 -8 -12 -2 0 14 12 26 19 19 2 -3 -1 -11 -7
-17z m-4922 -78 l135 -85 -43 -7 c-24 -4 -56 -18 -72 -31 -26 -22 -106 -44
-118 -33 -5 6 -51 214 -52 234 0 18 -5 20 150 -78z m5464 84 c14 -5 12 -10
-10 -31 -31 -29 -38 -26 -25 11 11 28 12 29 35 20z m-1958 -37 c1 -1 -16 -168
-38 -372 -27 -242 -45 -375 -54 -385 -8 -9 -20 -75 -29 -155 -8 -76 -17 -141
-20 -144 -3 -2 -10 0 -16 6 -8 8 -7 46 4 134 10 85 12 128 5 139 -8 12 0 122
26 381 20 200 40 378 43 396 l5 32 36 -15 c20 -8 37 -16 38 -17z m1243 -26
c-13 -62 -35 -70 -25 -9 6 39 24 74 33 65 2 -2 -2 -27 -8 -56z m260 32 c1 21
11 21 56 3 22 -10 35 -22 34 -33 0 -16 -1 -16 -9 2 -8 20 -9 19 -9 -1 -1 -20
-86 -102 -96 -92 -3 2 0 21 6 42 6 20 9 42 6 49 -2 6 -9 -17 -17 -51 -7 -35
-16 -65 -20 -67 -4 -2 2 37 14 87 16 72 22 87 27 68 5 -16 7 -19 8 -7z m530 6
c17 -6 31 -14 31 -19 0 -14 -108 -100 -127 -100 -34 0 -45 14 -34 43 12 31 14
31 40 16 39 -25 103 20 67 47 -14 10 -21 24 -12 24 1 0 17 -5 35 -11z m-39
-19 c12 -8 11 -10 -7 -10 -13 0 -23 5 -23 10 0 13 11 13 30 0z m-1735 -100
c121 -51 222 -94 224 -96 2 -2 -10 -92 -27 -199 -20 -132 -35 -200 -45 -208
-10 -8 -23 -65 -38 -169 -12 -87 -25 -161 -28 -165 -3 -5 -31 -28 -61 -52 -30
-23 -57 -49 -60 -56 -4 -11 -15 -9 -52 7 -41 18 -48 25 -48 49 0 22 -8 34 -32
49 -58 36 -76 36 -114 -1 -19 -18 -34 -38 -34 -43 0 -6 16 6 35 27 18 20 38
37 42 37 4 0 26 -10 48 -23 29 -16 41 -30 43 -50 4 -32 -17 -37 -25 -7 -5 17
-49 50 -67 50 -9 0 -86 -115 -86 -128 0 -7 -4 -10 -10 -7 -16 10 -12 47 8 68
10 12 13 21 6 24 -7 2 -6 37 3 115 8 76 9 116 2 124 -7 8 3 126 30 374 23 200
41 367 41 372 0 12 -23 21 245 -92z m1182 43 c-6 -31 -16 -53 -24 -53 -16 0
-16 14 -3 59 8 28 29 56 36 48 1 -1 -3 -26 -9 -54z m533 37 c8 -5 11 -12 8
-16 -10 -9 -38 3 -38 16 0 12 10 13 30 0z m-582 -59 c-6 -28 -15 -51 -19 -51
-4 0 -2 19 3 43 14 60 18 71 23 65 3 -3 0 -28 -7 -57z m234 37 c-7 -7 -12 -8
-12 -2 0 14 12 26 19 19 2 -3 -1 -11 -7 -17z m-262 -40 c-9 -31 -14 -35 -40
-34 -16 1 -30 6 -30 12 0 10 71 66 77 61 1 -2 -2 -19 -7 -39z m377 24 c26 -11
56 -22 67 -26 17 -6 16 -8 -9 -27 -24 -20 -30 -21 -65 -9 -32 11 -42 11 -55 0
-20 -17 -19 -47 3 -59 16 -9 15 -12 -5 -33 -40 -40 -47 -12 -21 86 13 47 26
86 30 86 4 0 29 -8 55 -18z m-3464 -184 c3 -93 3 -168 -1 -167 -4 0 -41 19
-82 42 -84 48 -87 53 -89 169 l-1 68 78 39 c52 26 79 35 83 27 4 -6 9 -86 12
-178z m3335 184 c10 -7 9 -23 -5 -80 -16 -68 -18 -71 -45 -69 -15 1 -28 5 -28
10 0 4 -3 6 -7 5 -5 -1 -18 4 -31 11 -13 7 -30 10 -38 7 -29 -11 1 22 66 73
71 55 69 54 88 43z m-333 -42 c3 -5 1 -10 -4 -10 -6 0 -11 5 -11 10 0 6 2 10
4 10 3 0 8 -4 11 -10z m585 -10 c0 -12 -41 -162 -46 -172 -4 -6 -132 37 -142
47 -2 2 8 11 21 20 22 14 31 15 67 4 44 -13 53 -9 65 29 5 19 2 25 -14 29 -26
7 -26 10 2 34 24 20 47 25 47 9z m49 -89 c-11 -36 -22 -76 -25 -88 -6 -24 -20
-28 -41 -15 -9 5 -5 31 14 99 24 89 26 91 48 81 l23 -10 -19 -67z m-4047 10
l4 -43 -81 -40 c-80 -40 -82 -40 -108 -23 -19 12 -27 26 -27 46 0 27 7 33 103
77 56 27 103 44 104 38 1 -6 3 -31 5 -55z m3883 48 c16 -16 -20 -10 -41 7 -18
14 -18 15 6 8 14 -3 29 -10 35 -15z m-3655 -101 c0 -88 -4 -83 118 -149 39
-22 72 -43 72 -47 0 -4 -40 -28 -89 -54 l-89 -48 -65 38 c-75 42 -73 37 -82
192 l-7 105 64 31 c43 22 65 28 70 20 4 -6 8 -46 8 -88z m3633 85 c4 -3 5 -9
2 -14 -7 -11 -45 7 -45 21 0 8 20 5 43 -7z m77 -3 c13 -8 13 -10 -2 -10 -9 0
-20 5 -23 10 -8 13 5 13 25 0z m-40 -14 c0 -3 -4 -8 -10 -11 -5 -3 -10 -1 -10
4 0 6 5 11 10 11 6 0 10 -2 10 -4z m-191 -65 c9 -5 22 -6 28 -4 9 3 11 -1 5
-15 -6 -16 -74 -76 -217 -191 -17 -14 -18 -14 -8 0 7 8 12 29 12 45 0 34 7 85
22 166 l11 56 66 -24 c36 -14 72 -29 81 -33z m216 49 c3 -5 1 -10 -4 -10 -6 0
-11 5 -11 10 0 6 2 10 4 10 3 0 8 -4 11 -10z m-3845 -77 c0 -27 3 -79 7 -117
l6 -68 -30 15 c-29 15 -30 19 -37 104 -6 76 -4 90 11 100 32 24 43 16 43 -34z
m-310 16 c0 -18 -2 -20 -15 -9 -13 11 -13 15 -3 21 18 12 18 12 18 -12z m1295
11 c3 -5 4 -10 1 -10 -2 0 -12 -3 -20 -6 -12 -5 -15 -2 -10 10 7 18 20 21 29
6z m-2326 -16 c2 -2 -10 -4 -27 -4 -17 0 -34 4 -37 10 -5 9 53 3 64 -6z m211
-4 c0 -5 -4 -10 -10 -10 -5 0 -10 5 -10 10 0 6 5 10 10 10 6 0 10 -4 10 -10z
m1063 -67 c3 -43 5 -78 4 -80 -4 -3 -147 81 -147 87 0 5 118 68 131 69 3 1 9
-34 12 -76z m1304 -33 l225 -109 -6 -48 c-3 -27 -8 -101 -12 -165 -4 -88 -9
-115 -19 -112 -16 6 -25 -38 -25 -121 0 -45 -4 -64 -14 -68 -10 -4 -16 -35
-20 -114 -15 -249 -12 -237 -64 -274 -30 -21 -56 -32 -74 -31 -17 1 -36 -6
-48 -18 l-21 -21 -45 27 c-44 26 -46 28 -40 65 6 38 -10 69 -37 69 -6 0 4 13
23 29 l35 29 4 177 c2 111 -1 181 -7 187 -6 6 -8 46 -5 103 8 135 9 135 -88
75 -44 -27 -82 -50 -83 -50 -6 0 -371 202 -378 209 -7 6 444 268 465 270 5 1
110 -48 234 -109z m-2824 73 c15 -31 41 -152 34 -159 -3 -3 -46 24 -97 60 -86
61 -91 66 -69 75 13 5 44 18 69 29 25 11 46 21 47 21 1 1 9 -11 16 -26z m557
-18 l44 -28 -49 -13 c-28 -7 -51 -12 -51 -11 -1 1 -5 24 -9 51 -6 41 -4 48 7
39 7 -6 33 -23 58 -38z m705 29 c16 -11 25 -26 25 -43 0 -24 -11 -32 -96 -74
-85 -42 -95 -50 -91 -70 3 -12 9 -58 13 -102 l7 -79 -24 15 c-21 15 -25 29
-39 148 -11 91 -13 134 -5 139 30 19 162 81 173 81 7 1 24 -6 37 -15z m-785
-22 c0 -15 -35 -42 -54 -42 -13 0 3 37 19 47 28 17 35 16 35 -5z m844 -8 c18
-7 12 -24 -10 -24 -8 0 -14 7 -14 15 0 17 2 18 24 9z m-1274 -16 c0 -7 3 -24
7 -37 4 -16 2 -22 -4 -18 -13 8 -23 67 -11 67 4 0 8 -6 8 -12z m100 -59 l35
-6 -45 -20 c-50 -23 -53 -20 -64 40 -10 52 3 65 22 25 13 -25 25 -34 52 -39z
m170 56 c-32 -18 -37 -18 -37 0 0 10 10 15 31 15 l31 -1 -25 -14z m1040 -18
c0 -7 9 -114 21 -236 11 -122 19 -226 17 -231 -2 -5 -13 -1 -25 8 -20 16 -24
35 -44 231 -21 207 -21 215 -3 228 23 17 34 17 34 0z m-1058 -54 l-93 -43 7
-35 c6 -32 4 -35 -30 -52 -40 -19 -41 -24 -21 -108 8 -33 15 -65 15 -71 0 -20
-30 -11 -35 10 -3 12 -15 71 -28 133 l-23 112 99 46 c73 34 102 43 112 35 14
-12 65 6 65 22 0 5 5 6 12 2 8 -5 -23 -24 -80 -51z m1155 12 c52 -28 73 -46
74 -60 0 -11 6 -85 13 -165 12 -133 11 -146 -4 -160 -9 -8 -20 -23 -24 -33 -3
-11 -15 -21 -26 -24 -11 -3 -20 -12 -20 -19 0 -18 -10 -17 -34 1 -16 12 -21
44 -37 217 -10 112 -20 222 -23 246 -3 24 -2 42 2 40 4 -2 40 -21 79 -43z
m-1516 -21 c76 -53 99 -78 86 -90 -3 -3 -37 18 -77 46 -39 29 -73 50 -76 47
-3 -2 10 -14 29 -26 32 -20 47 -39 47 -62 0 -17 -15 -9 -25 13 -6 13 -18 24
-29 26 -13 3 -16 0 -11 -10 6 -9 5 -10 -3 -3 -5 6 -12 26 -15 45 -3 19 -8 43
-12 53 -4 9 -4 17 -1 17 4 0 43 -25 87 -56z m1374 -159 c11 -113 17 -205 12
-205 -4 0 -47 25 -96 56 -99 62 -93 53 -107 199 l-6 70 83 42 c46 23 86 42 89
42 3 1 14 -91 25 -204z m-1245 143 c0 -19 -2 -20 -10 -8 -13 19 -13 30 0 30 6
0 10 -10 10 -22z m1503 -29 c12 -7 24 -13 26 -15 2 -2 9 -73 15 -159 12 -160
9 -177 -27 -150 -13 9 -19 44 -29 173 -8 89 -12 162 -10 162 2 0 13 -5 25 -11z
m448 -30 c32 -18 59 -35 59 -38 0 -7 -121 -74 -125 -69 -8 10 -11 138 -3 138
6 0 37 -14 69 -31z m-1917 -104 c14 -65 23 -121 21 -123 -2 -3 -7 1 -10 9 -7
21 -45 209 -45 227 0 34 10 0 34 -113z m467 115 c10 0 19 -4 19 -8 0 -4 -16
-6 -35 -4 -19 2 -35 9 -35 14 0 6 7 7 16 4 9 -3 24 -6 35 -6z m1361 -132 c-4
-4 -71 -43 -149 -87 l-142 -79 -5 36 c-3 21 -8 86 -12 146 l-7 109 34 -20 c19
-11 49 -29 67 -39 l33 -19 87 47 87 47 7 -67 c4 -37 4 -70 0 -74z m-1890 50
c3 -15 1 -25 -4 -22 -4 3 -8 10 -8 16 0 14 -30 48 -42 48 -5 0 -8 -12 -6 -26
3 -22 20 -38 66 -61 6 -2 42 -176 38 -180 -2 -3 -9 12 -16 31 -14 42 -30 48
-26 9 3 -24 -3 -30 -53 -54 -31 -14 -59 -24 -63 -22 -18 10 -4 25 50 52 31 17
52 30 46 31 -14 0 -37 101 -28 123 3 9 1 17 -4 17 -6 0 -15 19 -21 43 -8 33
-10 35 -7 10 1 -18 -2 -33 -7 -33 -5 0 -4 -6 3 -14 12 -15 42 -117 36 -124 -8
-7 -36 31 -36 49 0 10 -4 19 -10 19 -5 0 -10 -8 -10 -17 0 -11 -3 -13 -9 -7
-10 10 -51 174 -44 174 3 0 16 -9 31 -20 27 -22 42 -14 42 22 0 30 77 -31 82
-64z m762 73 c3 -5 -1 -11 -9 -14 -9 -4 -12 -1 -8 9 6 16 10 17 17 5z m-456
-48 c9 -7 30 -13 46 -13 25 0 34 -7 46 -33 11 -23 25 -35 51 -42 l35 -10 -73
-34 -73 -34 -82 57 c-109 75 -122 85 -117 90 2 2 33 18 69 35 59 28 65 29 74
13 4 -9 16 -23 24 -29z m4602 33 c0 -11 -19 -15 -25 -6 -3 5 1 10 9 10 9 0 16
-2 16 -4z m-4893 -28 c-3 -8 -6 -5 -6 6 -1 11 2 17 5 13 3 -3 4 -12 1 -19z
m773 2 c0 -11 -12 -26 -30 -35 -37 -19 -46 -19 -30 0 7 9 10 18 6 22 -3 3 4
12 17 19 32 17 37 17 37 -6z m-161 -36 c-32 -18 -39 -17 -39 4 0 15 6 18 31
14 l32 -5 -24 -13z m1631 -79 c105 -58 197 -105 205 -105 8 0 39 16 70 35 89
58 85 60 85 -45 0 -69 -4 -96 -15 -104 -11 -9 -15 -46 -17 -175 l-3 -165 -75
-53 c-55 -39 -74 -59 -73 -73 4 -28 -11 -25 -27 6 -10 18 -20 24 -34 20 -27
-7 -72 28 -79 62 -4 21 -18 35 -51 52 -55 30 -71 23 -133 -54 -34 -42 -43 -61
-43 -92 0 -22 7 -49 15 -61 18 -25 3 -42 -20 -23 -8 6 -19 9 -25 5 -15 -9 -70
27 -75 50 -2 11 -6 84 -8 163 -3 87 -10 148 -17 157 -9 11 -28 262 -30 397 0
22 11 33 68 66 37 22 73 41 80 41 7 1 98 -46 202 -104z m-2449 14 c11 -39 14
-68 9 -73 -6 -5 -13 -7 -16 -3 -11 11 -43 135 -36 141 14 15 26 -4 43 -65z
m216 49 c-3 -8 -6 -5 -6 6 -1 11 2 17 5 13 3 -3 4 -12 1 -19z m682 -2 c-2 -2
-15 -9 -29 -16 -23 -12 -24 -12 -11 3 7 10 20 17 29 17 8 0 13 -2 11 -4z
m4391 0 c0 -11 -19 -15 -25 -6 -3 5 1 10 9 10 9 0 16 -2 16 -4z m-4852 -78
c45 -33 82 -66 82 -75 0 -19 0 -19 -103 52 -54 38 -87 67 -87 78 0 22 0 22
108 -55z m362 51 c0 -6 9 -8 20 -4 41 13 18 -4 -45 -34 -76 -35 -74 -25 -45
-191 11 -63 20 -120 20 -126 0 -8 -60 -44 -74 -44 -2 0 -6 9 -9 21 -8 29 -32
18 -32 -15 0 -33 -31 -56 -39 -29 -10 36 -58 304 -55 308 7 6 244 124 252 125
4 0 7 -5 7 -11z m4510 -19 c0 -5 -10 -15 -22 -21 -23 -12 -23 -12 -4 10 21 23
26 26 26 11z m-4916 -53 c36 -30 39 -38 42 -88 1 -30 7 -65 12 -79 5 -14 12
-42 16 -64 6 -29 4 -37 -6 -34 -7 3 -14 14 -16 26 -4 27 -32 52 -32 28 0 -9
-4 -16 -10 -16 -5 0 -10 2 -10 5 0 3 -11 57 -25 121 -14 64 -25 120 -25 125 0
16 14 10 54 -24z m867 20 c12 -9 21 -57 37 -187 12 -96 19 -176 17 -178 -2 -2
-12 1 -22 7 -16 8 -22 33 -37 153 -9 79 -20 160 -23 181 -6 39 1 45 28 24z
m4219 -7 c0 -5 -4 -10 -10 -10 -5 0 -10 5 -10 10 0 6 5 10 10 10 6 0 10 -4 10
-10z m-4085 -77 c91 -57 93 -59 97 -100 3 -45 -4 -53 -47 -53 -31 0 -68 -47
-60 -77 4 -17 -1 -26 -24 -37 l-28 -15 -17 152 c-10 84 -20 160 -22 170 -3 9
-2 17 1 17 4 0 49 -26 100 -57z m3580 28 c36 -17 65 -32 65 -34 0 -13 -131
-562 -135 -566 -3 -3 -85 34 -183 82 -175 87 -208 97 -229 76 -8 -8 -17 -8
-33 1 -20 11 -68 10 -95 -1 -5 -2 -11 0 -13 4 -2 6 542 462 556 466 1 1 32
-12 67 -28z m533 5 c-2 -1 -12 -8 -22 -16 -18 -14 -18 -14 -6 7 8 12 18 19 23
16 4 -3 7 -6 5 -7z m-5474 -42 c4 -19 10 -42 13 -51 4 -11 1 -14 -12 -12 -13
3 -23 19 -31 52 -11 43 -10 47 6 47 12 0 20 -11 24 -36z m481 -14 c7 -8 23
-64 35 -125 12 -60 24 -118 27 -129 3 -11 1 -16 -5 -12 -6 3 -13 20 -17 36 -8
38 -33 41 -28 3 4 -25 -2 -31 -56 -59 -44 -23 -61 -27 -65 -18 -6 15 5 25 62
53 41 21 42 22 27 45 -9 13 -17 49 -18 80 -1 31 -5 56 -9 56 -3 0 -9 14 -12
30 -3 17 -9 44 -12 61 l-6 31 32 -18 c17 -11 37 -26 45 -34z m-198 -2 c-3 -7
-5 -2 -5 12 0 14 2 19 5 13 2 -7 2 -19 0 -25z m48 -96 c4 -23 18 -56 33 -73
21 -25 23 -32 11 -40 -22 -14 -28 -11 -35 19 -3 15 -12 52 -20 83 -8 31 -14
63 -14 70 1 26 17 -14 25 -59z m-26 -4 c15 -62 14 -88 -3 -88 -18 0 -47 132
-32 142 15 10 22 0 35 -54z m1441 17 c0 -30 -4 -45 -13 -45 -8 0 -12 16 -13
45 0 31 4 45 13 45 9 0 13 -15 13 -45z m1855 -22 c-4 -38 -10 -72 -15 -77 -13
-14 -28 2 -24 26 2 13 6 44 9 71 4 33 11 47 22 47 13 0 14 -10 8 -67z m-2100
41 c24 -15 35 -61 19 -77 -11 -11 -42 27 -49 61 -8 36 -4 38 30 16z m1637 -76
c-2 -44 -9 -78 -15 -78 -6 0 -8 22 -3 61 3 34 6 73 6 87 0 15 4 22 8 17 5 -6
7 -45 4 -87z m-1432 68 c0 -8 -4 -17 -9 -21 -12 -7 -24 12 -16 25 9 15 25 12
25 -4z m-140 -36 c0 -4 -7 -10 -15 -14 -10 -4 -15 1 -15 14 0 13 5 18 15 14 8
-4 15 -10 15 -14z m38 -22 c9 -9 17 -10 30 -2 16 10 17 6 15 -42 -1 -30 3 -56
8 -59 9 -6 13 -65 4 -65 -18 0 -85 56 -85 71 0 10 -6 22 -13 26 -25 15 -27 52
-4 68 26 18 30 18 45 3z m-108 -63 c0 -8 -7 -15 -15 -15 -8 0 -15 7 -15 15 0
8 7 15 15 15 8 0 15 -7 15 -15z m-1161 -42 c15 -51 14 -73 -3 -73 -8 0 -18 19
-25 44 -14 58 -14 66 4 66 8 0 19 -16 24 -37z m3251 2 c0 -26 -3 -33 -15 -29
-9 4 -15 19 -15 35 0 19 5 29 15 29 10 0 15 -11 15 -35z m-2960 0 c0 -8 -2
-15 -4 -15 -2 0 -6 7 -10 15 -3 8 -1 15 4 15 6 0 10 -7 10 -15z m3185 3 c30
-14 31 -20 6 -42 -11 -10 -22 -28 -25 -41 l-6 -24 -35 20 c-19 12 -35 23 -35
25 0 5 61 74 66 74 1 0 15 -5 29 -12z m-2223 -70 c-9 -9 -12 -7 -12 12 0 19 3
21 12 12 9 -9 9 -15 0 -24z m1988 6 c0 -8 -7 -14 -15 -14 -8 0 -15 9 -15 20 0
13 5 18 15 14 8 -4 15 -12 15 -20z m333 -5 c83 -42 157 -90 157 -103 0 -6 4
-6 11 1 18 18 108 -30 104 -54 -1 -10 -7 -17 -11 -16 -24 4 -174 96 -169 103
3 4 -4 6 -15 3 -11 -3 -47 10 -87 32 -80 44 -77 41 -68 54 9 15 7 15 78 -20z
m-288 -9 c3 -5 2 -10 -4 -10 -5 0 -13 5 -16 10 -3 6 -2 10 4 10 5 0 13 -4 16
-10z m-2355 -9 c0 -5 -7 -14 -15 -21 -8 -7 -15 -10 -15 -7 0 3 -3 12 -6 21 -4
12 0 16 15 16 12 0 21 -4 21 -9z m835 -137 c5 -93 4 -149 -3 -156 -17 -17 -21
4 -28 155 -6 128 -5 147 8 147 13 0 17 -25 23 -146z m1518 120 c42 -22 68 -45
61 -55 -8 -13 -104 39 -104 56 0 19 4 19 43 -1z m137 -5 l25 -20 -32 16 c-18
8 -33 18 -33 20 0 10 16 4 40 -16z m111 -1 c34 -19 37 -24 32 -52 -3 -17 -7
-32 -8 -34 -2 -2 -21 6 -44 18 -40 20 -49 38 -35 74 8 20 9 20 55 -6z m285 -6
c49 -26 50 -29 36 -50 l-14 -21 -71 36 c-66 33 -70 36 -52 49 26 20 43 17 101
-14z m-436 -12 c34 -17 53 -40 35 -40 -13 0 -62 30 -74 44 -18 21 -8 20 39 -4z
m-2590 -44 c14 -18 14 -18 -7 -6 -12 8 -19 18 -16 23 3 4 6 7 7 5 1 -2 8 -12
16 -22z m254 9 c19 -14 19 -15 1 -35 -22 -24 -45 -11 -45 26 0 27 16 30 44 9z
m2599 -6 c23 -12 43 -23 45 -24 2 -2 0 -19 -3 -39 l-7 -35 -49 25 c-45 22 -49
28 -49 59 0 41 6 42 63 14z m287 13 c0 -19 -47 -52 -64 -46 -15 6 -15 9 5 30
22 23 59 33 59 16z m-2716 -8 c9 -3 16 -15 16 -25 0 -10 5 -19 10 -19 13 0 13
-27 -1 -36 -16 -10 -59 17 -59 37 0 18 10 49 15 49 2 0 10 -3 19 -6z m2101
-12 c-3 -3 -11 0 -18 7 -9 10 -8 11 6 5 10 -3 15 -9 12 -12z m116 -72 l-10
-25 0 26 c-1 15 2 42 7 60 l7 34 3 -35 c2 -20 -1 -47 -7 -60z m-41 69 c0 -6
-6 -9 -14 -6 -19 7 -54 -18 -77 -57 -14 -23 -19 -26 -19 -12 0 23 67 86 92 86
10 0 18 -5 18 -11z m619 -14 l52 -26 -25 -30 c-14 -17 -26 -34 -26 -39 0 -10
20 -8 38 4 13 8 62 -17 62 -32 0 -24 -27 -62 -45 -62 -35 0 -48 15 -42 48 10
47 -23 34 -43 -18 -14 -37 -18 -40 -22 -22 -4 14 -14 22 -27 22 -24 0 -26 13
-9 60 10 31 9 35 -11 49 l-23 15 33 28 c19 15 34 28 35 28 0 0 24 -11 53 -25z
m-1944 -8 c34 -19 40 -28 43 -60 2 -28 0 -37 -12 -37 -11 0 -16 9 -16 28 0 20
-8 32 -29 45 -16 9 -31 17 -34 17 -2 0 -23 -25 -46 -55 -44 -58 -50 -88 -25
-116 26 -29 12 -43 -19 -19 -21 16 -27 30 -27 58 0 30 10 49 52 100 29 34 57
62 63 62 5 0 28 -10 50 -23z m1229 15 c2 -4 -4 -13 -15 -20 -21 -13 -22 -12
-13 12 7 17 20 21 28 8z m224 -12 l34 -21 -7 -72 c-11 -109 -12 -111 -59 -84
-22 12 -39 25 -39 30 1 4 4 43 8 87 4 49 11 80 19 80 6 0 26 -9 44 -20z
m-2098 -4 c0 -2 -27 -20 -60 -39 -33 -20 -60 -33 -60 -29 0 5 24 22 53 39 50
30 67 37 67 29z m1980 -30 c0 -12 6 -31 14 -41 8 -12 12 -32 9 -50 -3 -19 0
-35 9 -42 24 -20 327 -183 340 -183 20 0 58 42 58 65 0 12 3 24 6 27 4 4 169
-80 193 -98 2 -2 -8 -17 -22 -33 -14 -17 -31 -55 -37 -85 l-11 -53 -337 187
c-257 143 -338 192 -340 208 -4 26 31 96 59 115 27 20 59 10 59 -17z m360 4
c44 -23 49 -38 21 -64 -18 -16 -21 -16 -50 -1 -26 13 -31 22 -31 50 0 41 7 42
60 15z m-2892 -37 c18 -13 30 -29 26 -34 -6 -11 -84 47 -84 62 0 12 12 6 58
-28z m1200 -17 c4 -28 -7 -33 -26 -14 -9 9 -20 7 -46 -7 -51 -28 -56 -10 -11
35 36 34 42 37 60 26 11 -8 21 -25 23 -40z m1598 3 c8 -7 8 -31 -2 -90 -7 -45
-15 -83 -18 -86 -3 -3 -24 6 -48 19 -48 26 -49 32 -34 150 l7 58 42 -21 c23
-12 47 -25 53 -30z m424 25 c0 -22 -2 -25 -15 -14 -12 10 -18 10 -32 -1 -10
-7 -7 -1 6 14 31 34 41 34 41 1z m-189 6 c18 -10 18 -12 3 -35 -9 -13 -12 -30
-8 -36 5 -8 3 -9 -6 -4 -9 6 -10 2 -4 -16 12 -38 10 -62 -5 -67 -11 -4 -13 3
-8 33 7 42 -8 37 -16 -5 -3 -14 -3 8 -1 49 6 95 9 100 45 81z m-70 -136 c-12
-68 -27 -124 -36 -133 -20 -20 -20 -14 4 121 16 94 35 147 48 134 2 -2 -5 -57
-16 -122z m359 14 c0 -21 -12 -40 -42 -69 -59 -54 -75 -56 -151 -20 -76 36
-95 55 -80 79 11 19 28 19 28 0 0 -7 19 -23 43 -36 23 -12 42 -26 42 -31 0 -4
12 -6 28 -3 34 7 102 60 102 81 0 8 -14 29 -31 47 -47 49 -26 65 22 18 27 -27
39 -47 39 -66z m-3630 68 c14 -18 14 -18 -7 -6 -12 8 -19 18 -16 23 3 4 6 7 7
5 1 -2 8 -12 16 -22z m255 8 l25 -16 -23 -18 c-20 -17 -24 -17 -49 -2 -33 19
-35 27 -10 41 23 14 29 14 57 -5z m194 -40 c20 -54 -5 -72 -49 -34 -20 17 -21
23 -11 49 16 38 43 31 60 -15z m1161 16 c0 -4 -8 -14 -18 -23 -16 -15 -20 -14
-52 6 l-35 22 28 3 c15 2 27 7 27 12 0 5 11 4 25 -2 14 -6 25 -14 25 -18z
m1578 3 c12 -3 29 1 38 8 15 12 16 11 11 -6 -3 -11 -11 -58 -18 -105 -6 -47
-15 -89 -19 -94 -7 -7 -56 16 -89 40 -2 2 2 42 9 89 10 74 15 85 29 79 9 -3
26 -9 39 -11z m-1645 -36 c67 -42 67 -43 44 -56 -22 -11 -30 -9 -83 26 -84 54
-81 52 -64 63 23 15 30 13 103 -33z m-893 26 c0 -5 -18 -18 -40 -31 -51 -29
-52 -20 -2 12 43 29 42 28 42 19z m-420 -49 c0 -12 -5 -11 -25 2 -14 9 -25 23
-25 30 0 12 5 11 25 -2 14 -9 25 -23 25 -30z m1417 -1 c-14 -14 -19 -15 -29
-4 -11 10 -9 15 6 27 27 20 47 0 23 -23z m135 -4 l49 -32 -28 -31 c-15 -17
-29 -32 -29 -34 -3 -6 -124 73 -124 81 0 8 60 47 74 47 5 0 31 -14 58 -31z
m1676 -3 c12 -7 12 -10 1 -17 -24 -15 -29 -10 -28 24 0 17 3 25 6 17 3 -8 13
-19 21 -24z m119 -3 c-17 -18 -22 -8 -11 22 5 12 10 13 17 6 8 -8 6 -16 -6
-28z m-3066 10 c13 -16 12 -17 -3 -4 -10 7 -18 15 -18 17 0 8 8 3 21 -13z
m954 -5 l35 -23 0 -132 c0 -73 -3 -133 -6 -133 -4 0 -22 9 -40 21 l-34 21 0
134 c0 74 2 134 5 134 3 0 21 -10 40 -22z m1269 3 c3 -5 -1 -14 -9 -21 -13
-10 -15 -9 -15 9 0 21 14 28 24 12z m-2613 -18 c13 -16 12 -17 -3 -4 -10 7
-18 15 -18 17 0 8 8 3 21 -13z m1744 7 c3 -5 -1 -10 -9 -10 -8 0 -18 5 -21 10
-3 6 1 10 9 10 8 0 18 -4 21 -10z m-595 -44 c0 -24 -12 -25 -41 -4 -21 16 -26
25 -18 34 9 11 15 10 35 -3 13 -8 24 -21 24 -27z m935 -89 c-7 -122 -8 -125
-34 -138 -14 -8 -30 -20 -34 -27 -4 -7 -32 -30 -62 -52 -67 -49 -101 -51 -166
-9 -65 41 -73 53 -59 79 13 25 35 22 35 -5 0 -11 20 -29 53 -48 l53 -30 55 38
c58 40 74 61 66 84 -4 11 -6 11 -14 0 -8 -11 -8 -10 -4 4 3 10 -1 29 -10 42
-8 13 -14 34 -12 46 3 19 7 15 37 -25 18 -26 37 -59 41 -74 6 -20 8 -22 9 -7
1 11 -15 46 -35 78 -24 39 -34 65 -30 80 5 20 106 100 115 92 1 -2 0 -60 -4
-128z m-2044 96 c13 -16 12 -17 -3 -4 -10 7 -18 15 -18 17 0 8 8 3 21 -13z
m1484 1 c17 -13 18 -16 5 -24 -8 -5 -10 -10 -4 -10 5 0 15 5 21 11 17 17 106
-40 91 -58 -14 -18 -32 -16 -66 5 -41 25 -102 76 -102 85 0 12 34 7 55 -9z
m-79 -21 l44 -28 0 -132 c0 -73 -3 -133 -6 -133 -4 0 -23 10 -44 21 -29 16
-39 29 -43 53 -8 52 -9 246 -1 246 4 0 26 -12 50 -27z m362 -4 c31 -17 61 -35
66 -40 5 -5 -6 -25 -27 -48 -20 -22 -41 -58 -48 -80 -11 -39 -13 -40 -30 -25
-10 9 -23 13 -30 8 -12 -7 -9 29 6 82 5 16 -2 26 -36 49 l-43 28 32 28 c18 16
37 29 43 29 5 0 36 -14 67 -31z m-558 1 c-14 -11 -27 -20 -30 -20 -8 0 -43
-61 -38 -65 2 -2 12 9 22 24 11 16 28 34 39 41 29 18 37 -1 37 -90 l0 -75 152
-100 c83 -55 157 -101 164 -103 7 -2 27 7 44 19 24 19 30 30 30 62 l0 38 30
-21 c17 -12 30 -18 30 -14 0 4 9 -1 19 -10 10 -10 42 -32 71 -50 l52 -33 -32
-26 c-32 -27 -50 -70 -50 -119 0 -26 -15 -18 -292 168 -161 108 -298 201 -305
208 -6 6 -14 38 -17 71 l-7 60 43 27 c50 32 75 37 38 8z m2020 -6 c0 -2 -9 0
-20 6 -11 6 -20 13 -20 16 0 2 9 0 20 -6 11 -6 20 -13 20 -16z m-3189 -1 c13
-16 12 -17 -3 -4 -10 7 -18 15 -18 17 0 8 8 3 21 -13z m1103 3 c-10 -8 -21
-12 -24 -10 -5 6 21 24 34 24 6 0 1 -6 -10 -14z m2334 -38 c-5 -44 -11 -57
-38 -80 -18 -15 -36 -25 -40 -23 -9 6 -5 109 4 124 4 6 11 9 16 6 4 -3 13 2
20 10 7 8 19 15 27 15 13 0 15 -10 11 -52z m-3208 28 c0 -6 -122 -77 -126 -73
-2 2 22 20 54 40 53 34 72 43 72 33z m-189 -23 c13 -16 12 -17 -3 -4 -17 13
-22 21 -14 21 2 0 10 -8 17 -17z m1432 -28 l37 -26 0 -134 c0 -74 -2 -135 -5
-135 -3 0 -23 12 -45 26 l-40 27 0 133 c0 74 3 134 8 134 4 0 24 -11 45 -25z
m-1392 -2 c13 -16 12 -17 -3 -4 -17 13 -22 21 -14 21 2 0 10 -8 17 -17z m1570
-27 c-1 -13 -46 -86 -53 -86 -5 0 -8 30 -8 66 l0 66 31 -20 c17 -10 30 -22 30
-26z m-3446 19 c-21 -17 -37 -15 -43 3 -2 8 8 12 30 12 31 -1 32 -1 13 -15z
m3367 -127 c-3 -119 -6 -144 -20 -154 -9 -8 -20 -14 -24 -14 -3 0 -4 64 -1
142 4 116 8 145 22 155 9 7 18 13 21 13 3 0 4 -64 2 -142z m276 130 c15 -15
16 -48 2 -48 -5 0 -10 4 -10 9 0 21 -34 20 -58 -1 -47 -44 -52 -108 -9 -108
22 -1 22 -1 3 -15 -73 -55 -69 64 4 137 41 41 50 44 68 26z m-3703 -7 c3 -5
-4 -13 -16 -16 -23 -8 -34 -1 -24 14 8 13 32 14 40 2z m75 -16 c-14 -8 -29
-14 -35 -14 -5 0 1 6 15 14 14 8 30 14 35 14 6 0 -1 -6 -15 -14z m5130 8 c0
-16 -16 -31 -35 -35 -11 -2 -19 -10 -17 -17 1 -7 -2 -9 -9 -5 -8 5 -9 3 -4 -5
5 -9 10 -10 18 -2 6 6 19 11 29 11 40 0 13 -109 -37 -148 -35 -28 -55 -28 -55
-1 0 11 -4 18 -8 15 -5 -3 -3 20 3 49 8 44 20 64 55 100 42 43 60 54 60 38z
m-5270 -18 c0 -8 -9 -19 -20 -25 -15 -8 -20 -8 -20 3 0 14 19 37 32 37 4 0 8
-7 8 -15z m165 -15 c3 -5 0 -10 -9 -10 -8 0 -23 -3 -33 -7 -16 -6 -16 -5 -4
10 15 19 37 22 46 7z m3597 -12 c13 -20 13 -26 -5 -55 -22 -38 -18 -36 -51
-23 -32 12 -33 38 -5 74 25 32 42 33 61 4z m-3512 -46 c0 -39 -39 -82 -104
-114 -37 -18 -49 -27 -31 -23 17 3 51 19 77 35 26 16 50 25 53 20 7 -11 -59
-67 -103 -86 -73 -32 -200 -19 -216 22 -4 10 2 10 24 2 16 -5 37 -8 47 -5 14
4 13 5 -5 6 -61 3 -107 56 -84 97 8 14 10 13 16 -10 21 -83 203 -67 281 25 20
24 26 40 22 62 -4 27 -3 28 10 12 7 -11 13 -30 13 -43z m-54 -27 c-30 -45
-150 -86 -210 -71 -30 7 -56 32 -56 53 0 13 3 13 16 2 22 -18 109 -12 162 11
50 22 55 18 10 -10 -35 -21 -31 -27 5 -9 37 19 77 62 78 83 1 14 3 11 6 -7 3
-16 -2 -39 -11 -52z m3356 -25 l-10 -25 -7 28 c-4 17 -2 40 6 60 l14 32 3 -35
c2 -20 -1 -47 -6 -60z m-3533 76 c-10 -9 -69 -36 -69 -32 0 7 52 35 64 36 5 0
7 -2 5 -4z m121 0 c0 -11 -19 -15 -25 -6 -3 5 1 10 9 10 9 0 16 -2 16 -4z
m-82 -42 c-4 -3 -19 -4 -35 -2 l-28 4 25 11 c23 10 51 1 38 -13z m2981 3 c12
-15 5 -27 -16 -27 -7 0 -13 9 -13 20 0 23 13 26 29 7z m741 -12 c-7 -9 -15
-13 -18 -10 -3 2 1 11 8 20 7 9 15 13 18 10 3 -2 -1 -11 -8 -20z m-263 -17
c-3 -7 -5 -2 -5 12 0 14 2 19 5 13 2 -7 2 -19 0 -25z m-2667 -45 c41 -36 96
-85 123 -109 l47 -42 -190 -111 c-105 -61 -195 -111 -200 -111 -6 0 -10 6 -10
14 0 8 -11 28 -25 45 -14 16 -36 66 -49 111 -13 45 -32 90 -41 100 -16 17 -12
21 87 75 57 32 117 66 133 75 17 10 35 19 40 19 6 1 44 -29 85 -66z m3060 28
c0 -5 -9 -11 -21 -14 -12 -3 -18 -10 -14 -17 3 -6 1 -9 -6 -8 -7 2 -13 -4 -14
-12 0 -8 -6 -15 -14 -15 -18 0 -26 -21 -12 -30 7 -4 8 0 4 11 -4 11 -2 15 4
11 5 -4 21 5 33 18 13 14 27 25 32 25 15 0 9 -60 -7 -66 -10 -4 -15 -20 -15
-44 0 -30 -5 -40 -20 -45 -24 -8 -40 1 -40 22 0 9 -6 32 -12 51 -13 34 -13 35
37 78 49 44 65 52 65 35z m-195 -39 c-3 -3 -11 0 -18 7 -9 10 -8 11 6 5 10 -3
15 -9 12 -12z m-3327 -32 c12 0 9 -4 -8 -14 -16 -8 -29 -9 -37 -3 -17 12 -5
30 14 23 8 -3 22 -6 31 -6z m3552 -5 c0 -8 -4 -15 -10 -15 -5 0 -10 7 -10 15
0 8 5 15 10 15 6 0 10 -7 10 -15z m1216 -7 c4 -6 2 -14 -4 -16 -7 -2 -9 -9 -6
-14 4 -7 2 -8 -4 -4 -14 9 -16 46 -3 46 6 0 13 -5 17 -12z m-4838 -10 c-5 -16
-48 -24 -48 -10 0 11 17 20 38 21 8 1 12 -5 10 -11z m76 -13 c-10 -8 -23 -14
-29 -14 -5 0 -1 6 9 14 11 8 24 15 30 15 5 0 1 -7 -10 -15z m-219 -21 c-13
-21 -16 -38 -10 -79 8 -71 36 -97 107 -101 l53 -3 -53 8 c-54 9 -92 33 -92 58
0 17 14 17 29 0 15 -19 119 -5 172 22 22 12 38 17 34 11 -3 -6 -23 -19 -43
-30 -20 -10 -30 -19 -21 -20 29 0 98 58 108 92 l9 33 1 -36 c1 -42 -42 -90
-104 -114 -31 -12 -33 -14 -10 -10 74 15 142 89 132 144 -5 24 -4 24 9 6 18
-24 18 -59 -1 -94 -14 -28 -99 -90 -126 -92 -9 0 -10 -2 -2 -5 14 -6 65 18
110 52 35 27 40 10 7 -27 -61 -67 -193 -99 -267 -64 -37 17 -63 53 -30 40 12
-4 8 4 -11 24 -25 26 -28 35 -22 68 l7 38 -19 -24 c-18 -22 -24 -24 -77 -18
-66 7 -84 21 -109 85 l-16 43 22 -12 c29 -16 155 -7 193 14 40 21 40 21 20 -9z
m80 17 c3 -5 -5 -17 -17 -25 -26 -18 -38 -5 -18 19 14 17 26 19 35 6z m1226
-63 c49 -42 58 -54 67 -100 5 -28 8 -58 5 -65 -7 -19 -113 74 -113 100 0 11
-6 28 -14 36 -8 9 -18 34 -22 55 -8 46 -5 45 77 -26z m-1051 42 c0 -5 -15 -10
-32 -10 -25 0 -29 3 -18 10 20 13 50 13 50 0z m3370 -20 c0 -15 -7 -20 -25
-20 -15 0 -41 -14 -63 -34 -41 -38 -23 -44 23 -8 35 28 59 25 63 -7 6 -37 -6
-69 -28 -76 -13 -4 -23 -18 -27 -36 -4 -20 -13 -31 -30 -35 -30 -8 -42 3 -49
42 -2 16 -7 35 -9 42 -11 31 10 64 68 107 68 51 77 53 77 25z m-3390 -10 c0
-5 -9 -14 -20 -20 -16 -8 -20 -8 -20 4 0 8 8 17 18 19 9 3 18 5 20 6 1 0 2 -3
2 -9z m-130 -5 c0 -7 -58 -35 -72 -35 -7 1 3 9 22 20 35 19 50 24 50 15z m22
-48 c-12 -6 -27 -5 -38 1 -18 10 -17 11 6 20 33 13 63 -7 32 -21z m1098 -44
c0 -7 8 -13 18 -13 25 0 48 -28 57 -67 5 -26 3 -33 -8 -33 -24 0 -28 -30 -7
-52 20 -21 26 -49 14 -61 -7 -7 -84 62 -84 75 0 5 14 21 30 35 35 29 42 74 11
66 -11 -3 -22 -14 -25 -26 -4 -17 -7 -18 -20 -7 -9 7 -16 25 -16 40 0 15 -9
39 -20 53 -11 14 -20 35 -20 48 0 22 2 21 35 -11 19 -19 35 -40 35 -47z m2340
64 c0 -2 -10 -12 -22 -23 l-23 -19 19 23 c18 21 26 27 26 19z m99 -24 c-10
-11 -14 -11 -20 -1 -14 21 -10 26 11 21 16 -4 18 -8 9 -20z m-3823 -37 c11 -3
43 -7 71 -7 45 -1 52 -4 56 -25 5 -26 -8 -34 -58 -34 -65 0 -125 39 -125 82 0
19 1 20 18 6 9 -9 26 -18 38 -22z m3858 -28 c-3 -35 -8 -65 -10 -67 -6 -6 -63
44 -63 56 -1 9 66 73 77 73 1 0 0 -28 -4 -62z m-2524 -2 c0 -11 -19 -15 -25
-6 -3 5 1 10 9 10 9 0 16 -2 16 -4z m-840 -51 c-10 -12 -10 -15 2 -15 8 0 15
-7 15 -15 0 -11 -12 -15 -41 -16 l-41 -1 38 -8 c37 -7 62 -20 38 -20 -7 0 -11
-6 -8 -14 5 -12 -18 -40 -50 -59 -6 -4 -36 -13 -68 -22 -45 -11 -67 -12 -101
-4 -49 13 -65 28 -88 87 -15 41 -15 42 1 34 35 -18 91 -22 142 -11 50 10 135
51 146 70 4 5 11 9 17 9 7 0 6 -6 -2 -15z m1043 -48 c3 -9 19 -22 36 -28 17
-6 36 -19 41 -29 15 -28 12 -67 -5 -74 -8 -3 -15 -12 -15 -19 0 -8 7 -20 15
-27 15 -12 21 -70 8 -70 -11 0 -83 73 -83 83 0 5 14 25 30 44 34 38 43 86 13
62 -10 -8 -21 -19 -26 -26 -14 -23 -35 -2 -41 42 -4 24 -13 46 -21 49 -8 3
-15 17 -15 31 l0 27 29 -24 c16 -13 31 -31 34 -41z m-1393 33 c0 -12 -77 -12
-105 0 -14 6 -2 9 43 9 35 1 62 -3 62 -9z m3529 -37 c2 -1 -2 -9 -9 -18 -16
-20 -30 -10 -30 22 0 23 2 24 18 12 9 -7 19 -15 21 -16z m-2182 -39 c-3 -3
-12 -4 -19 -1 -8 3 -5 6 6 6 11 1 17 -2 13 -5z m-220 -39 c4 -28 -16 -55 -39
-55 -17 0 -7 30 13 40 11 7 18 14 15 17 -3 3 -13 0 -21 -7 -11 -9 -19 -10 -26
-3 -7 7 -4 16 12 27 31 21 42 16 46 -19z m-720 -18 c-13 -17 -48 -44 -78 -61
-49 -28 -62 -31 -141 -31 -78 0 -89 2 -112 24 -15 14 -26 36 -26 49 l0 25 23
-21 c47 -44 174 -37 257 16 24 15 56 27 72 28 l28 1 -23 -30z m784 6 c7 -10
10 -15 6 -12 -5 4 -20 -4 -35 -18 -42 -39 -82 -57 -96 -43 -8 8 -7 10 4 5 9
-3 34 7 57 22 33 21 40 30 31 40 -8 11 -7 12 7 7 13 -5 16 -4 11 4 -11 18 0
14 15 -5z m97 -50 c-4 -21 -75 -62 -108 -63 -21 0 -14 7 35 40 66 44 78 48 73
23z m-928 -48 c-51 -38 -110 -52 -185 -45 -19 2 -7 5 33 11 34 4 86 19 115 33
67 32 79 32 37 1z m1155 5 c-3 -5 -10 -10 -16 -10 -5 0 -9 5 -9 10 0 6 7 10
16 10 8 0 12 -4 9 -10z m-235 -7 c0 -12 -33 -43 -47 -43 -19 0 -16 20 5 36 18
14 42 18 42 7z m-325 -45 l40 -41 -42 32 c-44 33 -60 51 -46 51 4 -1 26 -19
48 -42z m55 27 c0 -8 -7 -15 -16 -15 -14 0 -14 3 -4 15 7 8 14 15 16 15 2 0 4
-7 4 -15z m334 -17 c10 -10 0 -20 -48 -54 -58 -39 -76 -45 -76 -23 0 5 3 8 8
7 20 -7 72 26 81 53 11 32 16 35 35 17z m-54 -9 c0 -12 -29 -38 -42 -39 -12 0
-9 25 4 38 15 15 38 16 38 1z m-180 -3 c0 -3 -4 -8 -10 -11 -5 -3 -10 -1 -10
4 0 6 5 11 10 11 6 0 10 -2 10 -4z m340 -36 c0 -24 -72 -75 -107 -75 -13 -1
-22 3 -21 7 3 7 113 83 126 87 1 1 2 -8 2 -19z m-30 -90 c-17 -13 -28 -16 -35
-9 -7 7 -2 16 15 29 17 13 28 16 35 9 7 -7 2 -16 -15 -29z m-350 21 c0 -4 21
-25 47 -45 25 -20 41 -36 34 -36 -16 0 -110 89 -93 90 6 0 12 -4 12 -9z m91
-24 c-8 -8 -14 -7 -23 2 -10 11 -10 13 0 7 6 -4 12 -2 12 4 0 6 5 8 11 4 8 -4
8 -9 0 -17z m289 -11 c0 -8 -10 -22 -22 -31 -21 -14 -23 -14 -26 0 -2 9 5 23
15 30 23 18 33 18 33 1z m66 -7 c3 -5 -3 -6 -12 -2 -13 5 -15 3 -9 -7 5 -9 4
-11 -3 -6 -7 4 -12 3 -12 -1 0 -13 -87 -73 -94 -66 -12 12 -6 23 13 23 23 0
85 56 77 69 -3 5 3 7 14 4 11 -3 23 -9 26 -14z m-197 -186 c2 -2 -1 -3 -8 -3
-7 0 -33 21 -59 46 l-47 47 55 -44 c30 -24 57 -44 59 -46z m3 55 c-6 -6 -16
-7 -22 -3 -9 6 -9 9 1 16 17 10 34 0 21 -13z"/>
<path d="M4223 3610 c0 -30 2 -43 4 -27 2 15 2 39 0 55 -2 15 -4 2 -4 -28z"/>
<path d="M5542 3250 c0 -14 2 -19 5 -12 2 6 2 18 0 25 -3 6 -5 1 -5 -13z"/>
<path d="M5532 3195 c0 -16 2 -22 5 -12 2 9 2 23 0 30 -3 6 -5 -1 -5 -18z"/>
<path d="M5522 3135 c0 -16 2 -22 5 -12 2 9 2 23 0 30 -3 6 -5 -1 -5 -18z"/>
<path d="M5152 3288 c-18 -18 -15 -36 8 -48 26 -14 60 3 60 29 0 29 -45 42
-68 19z m58 -23 c0 -2 -5 -7 -12 -11 -7 -4 -8 -3 -4 4 4 7 3 12 -3 12 -5 0
-11 -6 -14 -12 -4 -10 -7 -10 -18 0 -11 10 -10 12 5 12 10 0 14 5 10 11 -4 8
0 8 15 0 11 -7 21 -14 21 -16z"/>
<path d="M4793 3240 c0 -25 2 -35 4 -22 2 12 2 32 0 45 -2 12 -4 2 -4 -23z"/>
<path d="M4927 3173 c-4 -3 -7 -16 -7 -28 0 -17 11 -26 45 -39 57 -22 79 -18
83 15 3 24 -2 29 -44 43 -52 18 -67 19 -77 9z m68 -19 c20 -8 35 -17 33 -20
-6 -5 -78 24 -78 31 0 7 4 6 45 -11z m-31 -14 c14 -5 26 -14 26 -20 0 -6 -12
-4 -30 5 -44 23 -42 33 4 15z"/>
<path d="M1046 2413 c-11 -11 -6 -23 9 -23 8 0 15 4 15 9 0 13 -16 22 -24 14z"/>
<path d="M1375 2179 c-4 -6 -5 -13 -2 -16 7 -7 27 6 27 18 0 12 -17 12 -25 -2z"/>
<path d="M1475 2109 c-10 -15 1 -23 20 -15 9 3 13 10 10 16 -8 13 -22 13 -30
-1z"/>
<path d="M1312 2029 c3 -23 53 -67 64 -57 12 12 -37 77 -59 78 -5 0 -7 -10 -5
-21z"/>
<path d="M1419 1978 c-7 -28 -2 -42 23 -63 35 -30 42 -28 33 8 -6 20 -52 67
-56 55z"/>
<path d="M4810 1620 c0 -5 7 -10 16 -10 8 0 12 5 9 10 -3 6 -10 10 -16 10 -5
0 -9 -4 -9 -10z"/>
<path d="M3317 1349 c7 -7 15 -10 18 -7 3 3 -2 9 -12 12 -14 6 -15 5 -6 -5z"/>
<path d="M5340 1121 c-7 -15 -7 -19 5 -17 8 1 18 6 22 11 5 4 2 5 -6 0 -11 -6
-13 -4 -8 8 9 23 0 21 -13 -2z"/>
<path d="M193 963 c9 -2 25 -2 35 0 9 3 1 5 -18 5 -19 0 -27 -2 -17 -5z"/>
<path d="M148 1043 c7 -3 16 -2 19 1 4 3 -2 6 -13 5 -11 0 -14 -3 -6 -6z"/>
<path d="M208 1043 c6 -2 18 -2 25 0 6 3 1 5 -13 5 -14 0 -19 -2 -12 -5z"/>
<path d="M423 783 c15 -2 37 -2 50 0 12 2 0 4 -28 4 -27 0 -38 -2 -22 -4z"/>
<path d="M378 703 c7 -3 16 -2 19 1 4 3 -2 6 -13 5 -11 0 -14 -3 -6 -6z"/>
<path d="M478 703 c6 -2 18 -2 25 0 6 3 1 5 -13 5 -14 0 -19 -2 -12 -5z"/>
<path d="M428 693 c7 -3 16 -2 19 1 4 3 -2 6 -13 5 -11 0 -14 -3 -6 -6z"/>
<path d="M3837 783 c3 -7 6 -13 8 -13 2 0 5 6 8 13 3 8 -1 14 -8 14 -7 0 -11
-6 -8 -14z"/>
</g>
</svg>
