<?xml version="1.0" standalone="no"?>
<!DOCTYPE svg PUBLIC "-//W3C//DTD SVG 20010904//EN"
 "http://www.w3.org/TR/2001/REC-SVG-20010904/DTD/svg10.dtd">
<svg version="1.0" xmlns="http://www.w3.org/2000/svg"
 width="645.000000pt" height="459.000000pt" viewBox="0 0 645.000000 459.000000"
 preserveAspectRatio="xMidYMid meet">
<metadata>
Created by potrace 1.16, written by Peter Selinger 2001-2019
</metadata>
<g transform="translate(0.000000,459.000000) scale(0.100000,-0.100000)"
fill="#000000" stroke="none">
<path d="M680 3855 l0 -705 -104 0 -104 0 -7 30 c-9 40 -51 89 -90 105 -16 7
-64 16 -107 20 -65 6 -81 4 -108 -11 -66 -40 -90 -127 -51 -191 14 -21 44 -43
93 -68 121 -60 199 -45 248 48 l25 47 103 0 102 0 -2 -177 -3 -178 -101 -3
-101 -3 -11 38 c-27 84 -77 113 -194 113 -92 0 -124 -14 -159 -66 -33 -51 -20
-134 27 -175 27 -23 144 -59 190 -59 55 0 107 37 130 95 l19 45 100 -2 100 -3
3 -177 2 -177 -32 -3 c-27 -2 -34 -9 -41 -35 -5 -17 -7 -47 -3 -67 6 -30 11
-35 39 -38 24 -2 33 -8 35 -25 3 -18 -2 -22 -30 -25 -29 -3 -34 -8 -42 -40 -6
-22 -6 -50 0 -70 8 -28 15 -34 42 -36 28 -3 33 -7 30 -25 -2 -15 -12 -23 -33
-27 -25 -4 -32 -12 -39 -43 -14 -56 1 -91 42 -95 l32 -3 0 -313 0 -313 -75
-33 c-41 -18 -75 -37 -75 -41 0 -5 280 -9 625 -9 l625 0 2 -272 3 -272 104
122 c56 67 109 122 116 122 21 0 85 78 85 104 0 64 10 81 58 96 32 10 53 25
67 46 18 28 24 30 61 26 26 -3 52 2 72 12 17 9 33 16 37 16 3 0 5 -207 5 -460
l0 -460 559 0 559 0 13 -92 14 -93 910 0 910 0 5 163 5 163 35 -30 c19 -17 38
-30 43 -31 4 0 7 99 7 220 l0 220 164 0 164 0 54 -35 53 -35 175 2 175 3 6
180 c4 99 7 368 8 598 1 363 -1 418 -14 423 -12 5 -15 25 -15 89 l0 84 38 3
37 3 3 118 3 117 -40 0 c-30 0 -40 4 -44 20 -4 15 -14 20 -41 20 l-36 0 0 99
0 99 48 7 49 6 6 241 c4 133 7 402 7 599 0 308 -2 358 -15 363 -12 4 -15 26
-15 110 l0 106 40 20 40 20 0 120 0 120 -125 0 c-114 0 -129 -2 -156 -22 -20
-15 -41 -21 -65 -20 -44 3 -128 -47 -149 -89 -17 -32 -20 -75 -5 -84 16 -10
13 -322 -2 -327 -10 -4 -14 -59 -18 -212 l-5 -208 -62 -25 c-68 -27 -73 -43
-15 -43 75 0 82 -6 82 -66 l0 -53 -57 -17 c-75 -21 -88 -34 -36 -34 23 0 45
-4 48 -10 3 -5 14 -10 24 -10 16 0 19 -15 24 -142 4 -79 7 -189 7 -245 l0
-103 120 0 120 0 0 -100 0 -99 -107 -3 c-107 -3 -108 -3 -111 -28 -2 -14 -8
-29 -13 -34 -12 -13 -12 -63 1 -71 6 -4 10 -66 10 -155 0 -122 -3 -149 -15
-154 -13 -4 -15 -40 -15 -230 0 -254 7 -236 -87 -236 -24 0 -43 -4 -43 -9 0
-5 29 -19 65 -31 l65 -22 0 -49 c0 -42 -3 -49 -19 -49 -11 0 -23 -4 -26 -10
-3 -5 -24 -10 -46 -10 -21 0 -39 -3 -39 -7 0 -5 28 -20 63 -35 l62 -26 3 -51
3 -51 -580 0 -581 0 0 -410 0 -410 -410 0 -410 0 0 1175 0 1175 -775 0 -775 0
0 168 c0 117 -4 172 -12 180 -16 16 -184 16 -194 0 -4 -7 -7 -88 -6 -180 1
-104 -2 -168 -8 -168 -6 0 -11 71 -12 178 l-3 177 -90 3 c-49 1 -96 -2 -104
-7 -11 -7 -13 -45 -12 -181 1 -133 -2 -171 -11 -168 -10 4 -14 52 -18 179 l-5
174 -88 3 c-102 3 -120 -5 -115 -54 1 -18 0 -36 -4 -39 -3 -3 -3 -64 0 -135
l5 -130 -44 -1 c-41 -1 -42 -2 -17 -12 17 -7 28 -20 32 -40 4 -18 11 -27 19
-24 8 3 13 -4 12 -22 0 -22 5 -26 33 -29 18 -2 32 -9 32 -16 0 -15 -59 -25
-154 -27 l-61 -2 75 -11 c41 -6 86 -19 100 -28 31 -23 32 -23 64 8 25 25 30
26 93 20 37 -4 74 -13 83 -20 30 -26 49 -26 70 1 18 23 25 25 78 21 40 -3 67
-11 91 -28 l33 -25 24 30 24 30 0 -292 c0 -272 -1 -293 -17 -293 -20 0 -43 42
-43 76 0 13 -5 35 -10 50 -9 24 -14 26 -46 21 -20 -4 -44 -13 -53 -21 -9 -8
-55 -26 -103 -40 -49 -13 -92 -28 -98 -31 -6 -4 -10 -133 -10 -356 l0 -349
-400 0 -400 0 0 1295 c0 712 3 1295 8 1295 15 0 341 -226 342 -237 0 -24 91
-83 126 -83 27 0 34 -4 34 -20 0 -13 17 -30 48 -50 l47 -30 230 3 230 2 3 173
2 174 -31 39 -31 39 -249 0 -249 0 0 -105 c0 -103 0 -105 -23 -105 -13 0 -41
13 -63 30 -21 16 -47 30 -56 30 -10 0 -91 52 -180 115 -89 63 -168 115 -175
115 -10 0 -13 58 -13 297 l0 297 37 -35 c175 -165 312 -304 317 -323 8 -34 91
-106 120 -106 17 0 40 -16 72 -50 l47 -50 238 0 239 0 0 171 0 172 -31 53 -30
54 -250 0 -249 0 0 -110 0 -110 -26 0 c-17 0 -39 14 -64 40 -21 22 -45 40 -53
40 -8 0 -87 74 -175 165 l-160 165 -166 0 -166 0 0 -705z m484 529 c88 -92
163 -171 165 -178 2 -6 10 -19 19 -29 8 -9 12 -20 9 -23 -3 -4 -88 72 -187
167 -100 96 -185 176 -191 177 -5 2 -9 -114 -9 -302 l0 -306 -140 0 -140 0 0
330 0 330 156 0 156 0 162 -166z m496 -33 c0 -5 -7 -14 -15 -21 -9 -7 -15 -29
-15 -50 0 -30 7 -46 31 -69 17 -17 26 -31 20 -31 -6 0 -20 -9 -31 -20 -29 -29
-27 -84 5 -116 14 -14 25 -27 25 -30 0 -3 -39 -3 -87 -2 l-88 3 -3 160 c-1 87
0 165 2 172 6 15 156 19 156 4z m163 -16 c-10 -13 -20 -24 -23 -24 -3 0 -13
11 -23 24 l-18 25 41 0 41 0 -18 -25z m154 -4 c3 -24 3 -24 -17 -6 -24 22 -26
38 -3 33 9 -2 18 -14 20 -27z m4313 -191 l0 -111 -117 3 -118 3 -1 100 c-1 55
0 103 3 108 2 4 56 7 119 7 l114 0 0 -110z m-4459 22 l-26 -27 -26 25 -27 25
27 27 26 27 26 -25 26 -25 -26 -27z m144 23 c0 -25 -1 -45 -2 -45 -1 0 -13 11
-26 24 l-24 23 21 20 c30 29 31 28 31 -22z m3973 4 c-12 -6 -18 -22 -18 -44 0
-19 -4 -35 -10 -35 -5 0 -10 20 -10 45 0 42 2 45 28 45 23 -1 24 -2 10 -11z
m-4583 -68 c-3 -6 -11 -8 -17 -5 -6 4 -5 9 3 15 16 10 23 4 14 -10z m4495 -31
c0 -23 -4 -30 -20 -30 -16 0 -20 7 -20 30 0 23 4 30 20 30 16 0 20 -7 20 -30z
m-4389 0 c11 0 17 -4 14 -10 -10 -16 -41 -12 -56 7 -12 15 -12 16 4 10 10 -4
28 -7 38 -7z m4461 -67 l3 -68 133 0 132 0 0 -92 0 -93 -145 0 -145 0 0 160
c0 95 4 160 10 160 5 0 10 -30 12 -67z m-4085 2 c16 -13 12 -14 -35 -15 l-53
0 23 31 c20 27 24 28 34 14 7 -9 21 -23 31 -30z m-357 25 c0 -5 -9 -10 -21
-10 -11 0 -17 5 -14 10 3 6 13 10 21 10 8 0 14 -4 14 -10z m486 -25 c-3 -8
-15 -15 -27 -15 l-22 0 24 26 c23 24 37 19 25 -11z m3914 -50 c0 -37 -4 -65
-10 -65 -6 0 -10 28 -10 65 0 37 4 65 10 65 6 0 10 -28 10 -65z m-4920 -1440
l0 -1335 413 -1 c226 0 454 0 505 1 59 1 92 -3 92 -9 0 -8 -198 -11 -646 -11
l-645 0 3 26 c3 24 17 33 131 82 146 63 150 68 47 71 l-50 1 0 254 0 255 33 3
c24 2 32 8 32 23 0 11 3 23 8 26 4 3 4 23 -1 45 -7 35 -11 39 -40 42 -26 3
-32 8 -32 28 0 20 5 24 29 24 30 0 45 19 35 45 -4 8 -1 15 6 15 8 0 9 10 5 33
-10 42 -22 57 -51 57 -19 0 -24 5 -24 24 0 21 6 25 32 28 22 2 34 9 36 21 2 9
-1 17 -7 17 -5 0 -12 -8 -14 -17 -4 -14 -5 -12 -6 5 -1 16 5 22 19 22 23 0 23
2 9 53 l-10 37 -69 0 -70 0 0 161 0 160 55 -6 55 -7 -2 218 -3 219 -77 3 -78
3 0 359 0 360 140 0 140 0 0 -1335z m201 1223 c87 -62 158 -117 159 -122 0 -5
7 -18 17 -28 15 -17 15 -18 -1 -18 -10 0 -96 53 -192 118 -138 93 -174 122
-174 140 0 14 6 22 16 22 9 0 87 -51 175 -112z m481 19 c-33 -35 -30 -92 6
-125 l28 -27 -28 -23 c-37 -31 -39 -82 -3 -118 14 -14 25 -27 25 -30 0 -3 -39
-3 -87 -2 l-88 3 -3 160 c-1 87 0 165 2 172 4 9 30 13 87 13 l82 0 -21 -23z
m172 1 c-10 -13 -19 -24 -20 -25 0 -2 -11 8 -24 22 l-23 25 43 0 43 0 -19 -22z
m152 7 c12 -30 -2 -35 -25 -11 l-24 26 22 0 c12 0 24 -7 27 -15z m4254 -470
l0 -435 -45 0 -45 0 0 255 c0 189 -3 255 -12 255 -6 0 -27 -5 -45 -12 -28 -10
-36 -10 -43 1 -7 12 -18 11 -68 -7 -32 -12 -64 -22 -71 -22 -8 0 -11 56 -11
200 l0 200 170 0 170 0 0 -435z m-4399 286 l-26 -26 -22 22 c-12 13 -28 23
-35 23 -7 0 -1 8 12 17 14 9 29 23 33 30 6 11 14 8 36 -13 l28 -26 -26 -27z
m145 24 c-1 -25 -2 -45 -3 -45 -1 0 -13 11 -26 24 l-24 23 21 20 c30 30 33 28
32 -22z m3904 -121 l0 -165 -35 -15 c-19 -7 -37 -14 -40 -14 -3 0 -5 81 -5
180 l0 180 40 0 40 0 0 -166z m-4510 62 c0 -3 -4 -8 -10 -11 -5 -3 -10 -1 -10
4 0 6 5 11 10 11 6 0 10 -2 10 -4z m88 -14 c17 -2 32 -8 32 -13 0 -16 -45 -9
-75 12 -16 12 -21 18 -10 14 11 -5 35 -10 53 -13z m32 -41 c0 -5 -7 -11 -15
-15 -9 -3 -15 0 -15 9 0 8 7 15 15 15 8 0 15 -4 15 -9z m355 -45 c19 -14 16
-15 -37 -16 l-57 0 27 28 c21 20 29 24 37 15 6 -7 19 -19 30 -27z m131 -1 c-3
-8 -15 -15 -27 -15 l-22 0 24 26 c23 24 37 19 25 -11z m4048 -104 c-14 -13
-126 -52 -132 -46 -8 8 -2 12 68 38 63 24 84 26 64 8z m106 -75 c0 -52 -3 -97
-8 -100 -4 -2 -24 -7 -45 -11 l-37 -7 0 90 0 89 38 16 c20 8 40 15 45 16 4 1
7 -41 7 -93z m-102 -23 c-2 -62 -6 -78 -19 -81 -10 -2 -19 6 -22 18 -9 34 -50
23 -57 -15 -3 -18 -12 -31 -23 -33 -16 -3 -18 4 -15 70 l3 73 60 22 c33 12 64
22 68 22 4 1 7 -34 5 -76z m-148 48 c0 -11 -26 -21 -53 -20 -19 1 -18 3 8 14
36 17 45 18 45 6z m-5599 -26 c37 -20 69 -70 69 -111 0 -61 -62 -124 -123
-124 -32 0 -97 27 -97 41 0 4 13 1 29 -8 27 -16 31 -16 70 1 22 11 47 29 56
42 20 31 19 83 -2 114 -17 25 -17 25 4 7 12 -10 26 -35 32 -55 l11 -37 -5 35
c-7 45 -39 77 -95 95 -43 13 -44 14 -12 14 18 1 46 -6 63 -14z m5499 -14 c0
-10 -35 -21 -65 -20 -15 0 -13 3 10 14 36 16 55 18 55 6z m-5544 -49 c-8 -9
-19 -13 -22 -9 -10 9 16 38 28 31 6 -4 4 -13 -6 -22z m209 -56 c9 -45 -16
-101 -57 -126 -18 -11 -37 -20 -43 -20 -5 0 1 8 15 16 61 38 85 114 56 175
l-17 34 20 -23 c11 -13 23 -38 26 -56z m-249 33 c10 -17 -13 -36 -27 -22 -12
12 -4 33 11 33 5 0 12 -5 16 -11z m5684 -23 c0 -26 -5 -36 -20 -40 -65 -19
-60 -21 -60 28 l0 46 40 0 c39 0 40 -1 40 -34z m90 8 c0 -9 -5 -14 -12 -12
-18 6 -21 28 -4 28 9 0 16 -7 16 -16z m-5828 -6 c-9 -9 -15 -9 -24 0 -9 9 -7
12 12 12 19 0 21 -3 12 -12z m128 2 c0 -5 -9 -9 -20 -7 -31 5 -36 17 -7 17 15
0 27 -4 27 -10z m5756 -17 c-7 -7 -114 -43 -130 -43 -23 0 12 19 59 33 55 17
82 21 71 10z m104 -138 l0 -145 -45 0 -45 0 0 135 0 134 33 10 c59 17 57 23
57 -134z m-5872 126 c1 -1 -2 -10 -8 -21 -15 -27 -30 -25 -30 4 0 22 7 25 38
17z m5772 -141 l0 -130 -70 0 -71 0 3 112 3 112 55 18 c30 9 61 17 68 17 9 1
12 -31 12 -129z m-5200 -60 l0 -180 -70 0 -70 0 0 180 0 180 70 0 70 0 0 -180z
m5050 11 l0 -69 -32 -7 c-18 -4 -36 -13 -40 -19 -4 -6 -8 28 -8 77 l0 87 40 0
40 0 0 -69z m-4112 -173 l-2 -173 -6 165 -5 165 -83 0 c-45 0 -82 3 -82 8 0 4
41 7 90 7 l90 0 -2 -172z m240 0 l-2 -173 -3 162 c-4 187 2 178 -112 171 -34
-1 -61 0 -61 5 0 4 41 7 90 7 l90 0 -2 -172z m220 0 l-2 -173 -6 165 -5 165
-83 0 c-45 0 -82 3 -82 8 0 4 41 7 90 7 l90 0 -2 -172z m-561 126 c-3 -3 -12
-4 -19 -1 -8 3 -5 6 6 6 11 1 17 -2 13 -5z m-1386 -19 c16 -9 39 -30 49 -48
68 -111 -68 -241 -175 -166 -16 12 -21 18 -10 14 56 -22 81 -18 119 19 34 31
38 40 34 73 -3 21 -9 47 -13 58 -8 18 -7 19 8 6 25 -20 21 -7 -5 15 -13 12
-18 13 -13 4 5 -9 0 -8 -13 4 -14 12 -35 19 -60 18 -27 -1 -33 1 -22 8 22 14
67 12 101 -5z m160 -92 c9 -28 8 -43 -6 -79 -9 -24 -26 -51 -38 -59 -36 -25
-40 -17 -9 15 52 52 54 122 4 183 l-26 32 32 -29 c17 -16 37 -45 43 -63z
m1224 67 c3 -5 1 -10 -4 -10 -6 0 -11 5 -11 10 0 6 2 10 4 10 3 0 8 -4 11 -10z
m4359 -16 c3 -9 6 -76 6 -150 l0 -134 -66 0 -65 0 3 145 c2 90 -1 147 -7 149
-5 3 20 5 56 5 52 1 68 -2 73 -15z m100 0 c3 -9 6 -76 6 -150 l0 -134 -45 0
c-25 0 -45 5 -45 10 0 6 16 10 35 10 63 0 59 62 -4 68 l-31 3 0 89 c0 111 4
120 45 120 21 0 35 -6 39 -16z m100 0 c4 -9 3 -77 0 -150 l-7 -134 -39 0 -38
0 0 134 c0 74 3 141 6 150 8 22 70 22 78 0z m-5976 -11 c15 -15 15 -16 1 -11
-9 4 -22 1 -28 -5 -16 -16 -26 0 -11 18 16 19 18 19 38 -2z m-55 -48 c1 -5 -6
-11 -15 -13 -11 -2 -18 3 -18 13 0 17 30 18 33 0z m-50 -12 c-7 -2 -19 -2 -25
0 -7 3 -2 5 12 5 14 0 19 -2 13 -5z m120 0 c-7 -2 -21 -2 -30 0 -10 3 -4 5 12
5 17 0 24 -2 18 -5z m5585 -55 c-2 -48 -7 -63 -18 -63 -11 0 -15 14 -16 63 -1
55 1 62 18 62 17 0 19 -6 16 -62z m-3721 46 c-3 -3 -12 -4 -19 -1 -8 3 -5 6 6
6 11 1 17 -2 13 -5z m-1887 -15 c0 -5 5 -7 11 -3 8 4 7 0 -1 -15 -6 -12 -15
-19 -21 -16 -12 8 -12 45 1 45 6 0 10 -5 10 -11z m590 -18 c0 -17 -5 -19 -37
-14 -73 12 -68 25 -71 -159 -2 -140 -5 -168 -17 -168 -13 0 -15 28 -15 180 l0
180 70 0 c63 0 70 -2 70 -19z m858 -48 c-3 -33 -7 -38 -30 -41 -27 -3 -28 -1
-28 37 0 39 1 41 31 41 29 0 30 -2 27 -37z m240 0 c-3 -33 -7 -38 -30 -41 -27
-3 -28 -1 -28 37 0 39 1 41 31 41 29 0 30 -2 27 -37z m220 0 c-3 -33 -6 -38
-28 -38 -22 0 -25 5 -28 38 -3 35 -2 37 28 37 30 0 31 -2 28 -37z m39 5 c-3
-7 -5 -2 -5 12 0 14 2 19 5 13 2 -7 2 -19 0 -25z m-460 -10 c-3 -8 -6 -5 -6 6
-1 11 2 17 5 13 3 -3 4 -12 1 -19z m4373 -68 c0 -13 -7 -20 -20 -20 -13 0 -20
7 -20 20 0 13 7 20 20 20 13 0 20 -7 20 -20z m-4330 -65 l0 -55 -40 0 c-48 0
-54 17 -7 22 30 3 32 6 35 46 4 60 12 52 12 -13z m240 0 l0 -55 -40 0 c-48 0
-54 17 -7 22 30 3 32 6 35 46 4 60 12 52 12 -13z m61 -65 c41 0 38 -27 -3 -35
-18 -4 -58 -5 -88 -3 -43 2 -56 7 -58 21 -3 14 4 17 47 17 l51 0 1 63 2 62 10
-62 c9 -60 11 -63 38 -63z m159 65 l0 -55 -40 0 c-22 0 -40 5 -40 10 0 6 16
10 35 10 35 0 35 0 35 45 0 25 2 45 5 45 3 0 5 -25 5 -55z m1552 -1117 l3
-1173 422 -3 423 -2 2 407 3 408 571 3 572 2 6 -22 c3 -13 6 -80 6 -150 l0
-128 -176 0 -176 0 -119 82 c-65 45 -119 87 -119 94 0 7 -22 18 -49 25 -45 11
-50 16 -53 43 l-3 31 -130 0 -130 0 -3 -73 -3 -72 113 0 c62 0 131 -6 153 -13
22 -6 87 -45 143 -86 l102 -74 0 -49 c0 -56 3 -56 -83 12 -31 25 -57 50 -57
56 0 14 -44 34 -75 34 -22 0 -25 5 -25 35 l0 35 -135 0 -135 0 0 -70 0 -70
120 0 c73 0 120 -4 120 -10 0 -5 10 -10 23 -10 14 0 66 -36 135 -92 l112 -93
0 -48 0 -48 -50 47 c-27 25 -58 53 -70 61 -11 8 -20 20 -20 27 0 15 -58 46
-83 46 -10 0 -17 11 -19 33 l-3 32 -132 3 -133 3 0 -71 0 -70 120 0 c72 0 120
-4 120 -10 0 -5 15 -16 33 -23 17 -8 78 -58 135 -112 l102 -97 0 -109 0 -109
-897 2 -898 3 -3 84 c-2 58 -7 88 -18 98 -11 11 -12 19 -5 26 14 14 15 341 1
368 -8 15 -22 19 -60 19 l-50 0 0 145 0 145 35 0 c28 0 36 -4 41 -25 3 -13 12
-29 20 -36 8 -6 14 -22 14 -35 0 -13 5 -24 10 -24 7 0 10 275 10 805 l0 805
-695 0 c-682 0 -695 0 -695 19 0 17 8 20 48 23 l47 3 3 58 3 57 764 0 765 0 2
-1172z m-1976 1110 c8 -50 11 -53 42 -56 19 -2 32 -9 32 -17 0 -17 -64 -28
-140 -23 -43 2 -56 7 -58 21 -3 14 4 17 47 17 l51 0 0 55 c0 70 14 71 26 3z
m-171 32 c3 -5 1 -10 -4 -10 -6 0 -11 5 -11 10 0 6 2 10 4 10 3 0 8 -4 11 -10z
m250 0 c3 -5 1 -10 -4 -10 -6 0 -11 5 -11 10 0 6 2 10 4 10 3 0 8 -4 11 -10z
m4245 -130 l0 -100 -45 0 -45 0 0 100 0 100 45 0 45 0 0 -100z m-4500 59 c0
-5 -9 -9 -20 -9 -11 0 -20 6 -20 14 0 9 7 12 20 9 11 -3 20 -9 20 -14z m240 0
c0 -5 -9 -9 -20 -9 -11 0 -20 6 -20 14 0 9 7 12 20 9 11 -3 20 -9 20 -14z
m230 0 c0 -5 -11 -9 -25 -9 -14 0 -25 6 -25 14 0 9 8 12 25 8 14 -2 25 -8 25
-13z m-490 -73 c0 -3 -4 -8 -10 -11 -5 -3 -10 -1 -10 4 0 6 5 11 10 11 6 0 10
-2 10 -4z m250 -6 c0 -5 -5 -10 -11 -10 -5 0 -7 5 -4 10 3 6 8 10 11 10 2 0 4
-4 4 -10z m50 6 c0 -3 -4 -8 -10 -11 -5 -3 -10 -1 -10 4 0 6 5 11 10 11 6 0
10 -2 10 -4z m190 0 c0 -3 -4 -8 -10 -11 -5 -3 -10 -1 -10 4 0 6 5 11 10 11 6
0 10 -2 10 -4z m1430 -717 c0 -653 -1 -721 -16 -715 -9 3 -36 6 -61 6 l-46 0
5 82 c5 80 4 82 -24 108 -28 26 -29 30 -26 103 3 79 -7 105 -36 94 -13 -5 -16
-22 -16 -81 0 -41 -4 -78 -10 -81 -10 -6 -13 21 -14 132 -1 56 -15 79 -41 69
-14 -5 -16 -20 -14 -101 2 -52 0 -97 -3 -101 -13 -12 -78 20 -78 38 0 13 -8
18 -30 18 -20 0 -30 -5 -30 -15 0 -8 -10 -20 -22 -26 -13 -7 -27 -18 -31 -25
-6 -11 -65 -14 -297 -14 -160 0 -290 3 -290 8 0 4 7 16 15 26 21 27 2 46 -46
46 l-39 0 0 119 c0 118 0 119 25 125 14 4 32 18 42 32 16 25 16 27 -2 40 -10
8 -30 14 -43 14 -23 0 -24 1 -21 86 3 84 3 86 -24 102 -15 9 -27 22 -27 29 0
8 -13 13 -35 13 -24 0 -35 -5 -35 -15 0 -8 -4 -15 -10 -15 -5 0 -7 6 -4 14 6
15 -11 24 -43 21 l-23 -2 0 294 0 293 675 0 675 0 0 -721z m-2663 639 c-3 -8
-6 -5 -6 6 -1 11 2 17 5 13 3 -3 4 -12 1 -19z m-87 2 c-20 -13 -40 -13 -40 0
0 6 12 10 28 10 21 0 24 -2 12 -10z m27 -32 c-3 -8 -6 -5 -6 6 -1 11 2 17 5
13 3 -3 4 -12 1 -19z m-82 2 c3 -5 1 -10 -4 -10 -6 0 -11 5 -11 10 0 6 2 10 4
10 3 0 8 -4 11 -10z m5305 -5 c0 -11 -12 -15 -50 -15 l-50 0 0 -45 c0 -25 -4
-45 -10 -45 -6 0 -10 27 -10 60 l0 60 60 0 c47 0 60 -3 60 -15z m100 0 c0 -11
-11 -15 -39 -15 -38 0 -57 10 -44 24 3 3 24 6 45 6 27 0 38 -4 38 -15z m70 0
c0 -16 -45 -21 -54 -6 -8 12 4 21 31 21 14 0 23 -6 23 -15z m-70 -35 c0 -5
-11 -10 -25 -10 -25 0 -25 -1 -25 -89 l0 -90 28 -4 c16 -3 11 -4 -13 -3 l-40
1 -3 89 c-2 49 -1 95 2 103 6 15 76 18 76 3z m160 -95 l0 -105 -77 2 -78 1 60
6 60 6 0 85 0 85 -57 3 c-85 4 -71 22 17 22 l75 0 0 -105z m-430 54 c0 -22 -5
-29 -20 -29 -15 0 -20 7 -20 28 0 34 7 43 26 35 8 -3 14 -18 14 -34z m-5140
-14 c0 -16 -6 -25 -15 -25 -9 0 -15 9 -15 25 0 16 6 25 15 25 9 0 15 -9 15
-25z m88 1 c5 -23 -12 -34 -44 -28 -18 3 -24 11 -24 29 0 21 4 24 32 21 23 -2
34 -9 36 -22z m5124 -88 l3 -63 48 -3 47 -3 0 -370 c0 -203 -3 -369 -7 -369
-5 0 -36 10 -70 22 l-63 23 0 247 c0 154 4 249 10 253 6 4 10 70 10 166 0 94
4 159 10 159 5 0 10 -28 12 -62z m-5065 10 c-3 -7 -5 -2 -5 12 0 14 2 19 5 13
2 -7 2 -19 0 -25z m-77 12 c0 -5 -11 -10 -25 -10 -14 0 -25 5 -25 10 0 6 11
10 25 10 14 0 25 -4 25 -10z m-43 -42 c-3 -8 -6 -5 -6 6 -1 11 2 17 5 13 3 -3
4 -12 1 -19z m5143 -23 c0 -25 -4 -45 -10 -45 -5 0 -10 20 -10 45 0 25 5 45
10 45 6 0 10 -20 10 -45z m-5160 31 c0 -3 -4 -8 -10 -11 -5 -3 -10 -1 -10 4 0
6 5 11 10 11 6 0 10 -2 10 -4z m137 -48 c-3 -8 -6 -5 -6 6 -1 11 2 17 5 13 3
-3 4 -12 1 -19z m5263 -402 l0 -385 -45 16 -45 15 0 369 1 369 44 0 45 0 0
-384z m70 294 c0 -73 3 -90 15 -90 13 0 15 -56 15 -440 l0 -440 -45 0 -45 0 0
530 1 530 29 0 30 0 0 -90z m-5480 55 c0 -16 -6 -25 -15 -25 -9 0 -15 9 -15
25 0 16 6 25 15 25 9 0 15 -9 15 -25z m88 3 c-2 -18 -11 -24 -35 -26 -30 -3
-33 -1 -33 22 0 23 4 26 36 26 31 0 35 -3 32 -22z m59 -70 c-3 -7 -5 -2 -5 12
0 14 2 19 5 13 2 -7 2 -19 0 -25z m1163 12 c0 -5 -2 -10 -4 -10 -3 0 -8 5 -11
10 -3 6 -1 10 4 10 6 0 11 -4 11 -10z m-1247 -7 c-7 -2 -21 -2 -30 0 -10 3 -4
5 12 5 17 0 24 -2 18 -5z m1245 -23 c7 0 12 -15 12 -40 0 -32 -6 -46 -32 -71
-22 -20 -29 -32 -20 -36 8 -3 12 -30 12 -84 l0 -79 -28 0 c-15 0 -38 -7 -50
-16 -21 -15 -22 -21 -22 -190 l0 -174 43 0 c51 0 60 -6 46 -31 -8 -16 -22 -19
-99 -19 l-90 0 0 350 0 349 43 11 c23 6 62 18 87 25 25 8 54 12 65 10 11 -3
26 -5 33 -5z m52 -25 c0 -19 -4 -35 -10 -35 -5 0 -10 16 -10 35 0 19 5 35 10
35 6 0 10 -16 10 -35z m-1355 15 c3 -5 1 -10 -4 -10 -6 0 -11 5 -11 10 0 6 2
10 4 10 3 0 8 -4 11 -10z m30 0 c3 -5 1 -10 -4 -10 -6 0 -11 5 -11 10 0 6 2
10 4 10 3 0 8 -4 11 -10z m55 -334 l0 -265 47 -3 46 -3 -94 -39 c-52 -21 -100
-40 -106 -43 -10 -4 -13 61 -13 306 l0 311 60 0 60 0 0 -264z m1286 250 c21
-22 18 -25 -25 -24 -22 0 -45 -3 -53 -8 -11 -6 -11 -5 0 8 8 9 20 14 28 11 8
-3 14 1 14 11 0 20 17 21 36 2z m3753 -2 l31 -6 0 -189 0 -189 -40 0 -40 0 0
195 c0 107 4 195 9 195 5 0 23 -3 40 -6z m-3619 -118 c0 -93 -5 -106 -39 -106
-5 0 -8 45 -8 100 0 98 0 100 23 100 24 0 24 -2 24 -94z m74 78 c3 -8 10 -12
16 -9 5 3 15 3 22 -1 15 -10 -50 -33 -74 -26 -10 2 -18 11 -18 19 0 8 4 12 9
9 5 -3 11 1 15 9 7 20 22 19 30 -1z m-161 -4 c14 0 17 -9 15 -52 -1 -49 -2
-50 -5 -11 -4 41 -4 41 -54 48 -27 4 -49 12 -49 17 0 7 14 8 38 4 20 -3 45 -6
55 -6z m-103 -48 c0 -21 -7 -47 -15 -58 -13 -17 -14 -14 -15 39 0 44 3 57 15
57 11 0 15 -11 15 -38z m40 -7 c0 -14 -4 -25 -10 -25 -5 0 -10 11 -10 25 0 14
5 25 10 25 6 0 10 -11 10 -25z m30 -1 c0 -14 -4 -23 -10 -19 -5 3 -10 15 -10
26 0 10 5 19 10 19 6 0 10 -12 10 -26z m41 -58 c11 -13 12 -66 0 -66 -19 0
-29 27 -26 75 4 72 8 86 12 40 3 -22 9 -44 14 -49z m-55 -55 c-3 -36 -6 -83
-6 -103 0 -37 -1 -38 -35 -38 l-35 0 0 75 c0 42 6 90 14 109 12 29 18 33 41
28 28 -5 28 -5 21 -71z m201 2 c-2 -16 -4 -5 -4 22 0 28 2 40 4 28 2 -13 2
-35 0 -50z m-139 -82 c-3 -39 -6 -46 -25 -49 -21 -3 -23 0 -23 51 0 53 1 54
25 49 24 -4 26 -8 23 -51z m59 14 c-1 -27 -5 -35 -19 -35 -14 0 -18 8 -18 35
0 28 4 35 19 35 15 0 19 -7 18 -35z m-247 -59 l0 -83 -25 5 c-23 4 -25 9 -26
61 0 31 -2 66 -3 79 -2 18 2 22 26 22 l28 0 0 -84z m245 -6 c7 -12 -2 -12 -30
0 -19 8 -19 9 2 9 12 1 25 -3 28 -9z m-15 -91 l0 -66 -46 -7 c-26 -3 -62 -6
-80 -6 -33 0 -34 -1 -34 -40 0 -33 -3 -40 -20 -40 -19 0 -20 7 -20 113 l0 112
100 0 100 0 0 -66z m50 4 c-1 -10 -9 -34 -20 -53 l-19 -35 -1 33 c0 36 15 72
30 72 6 0 10 -8 10 -17z m-295 -26 c-1 -15 3 -27 8 -27 4 0 7 -21 5 -47 -3
-44 -5 -48 -28 -48 -23 0 -25 3 -24 45 3 112 3 112 22 108 11 -2 17 -13 17
-31z m3823 8 c14 -14 -9 -13 -39 0 l-34 16 34 -6 c19 -3 37 -7 39 -10z m-2503
-15 c3 -5 -1 -10 -10 -10 -9 0 -13 5 -10 10 3 6 8 10 10 10 2 0 7 -4 10 -10z
m2601 -21 c6 -10 -2 -11 -33 -3 -13 4 -23 10 -23 14 0 10 49 0 56 -11z m2 -52
c3 -25 1 -27 -37 -27 l-41 0 0 39 0 40 38 -13 c29 -10 38 -19 40 -39z m72 32
c10 -7 5 -9 -19 -7 -19 2 -36 9 -39 17 -3 10 2 11 19 6 13 -4 31 -11 39 -16z
m-2690 -18 c0 -16 3 -43 6 -60 4 -19 2 -31 -4 -31 -6 0 -12 27 -14 60 -1 33 0
60 5 60 4 0 7 -13 7 -29z m-1068 -56 c2 -39 -1 -56 -10 -60 -27 -10 -131 -5
-138 7 -4 6 -2 14 4 16 7 2 12 23 12 48 l0 44 64 0 64 0 4 -55z m3735 34 c5
-18 11 -20 40 -16 58 10 63 3 63 -80 0 -56 -3 -74 -12 -70 -7 3 -33 13 -58 22
-67 27 -70 31 -70 101 0 52 3 64 16 64 9 0 18 -9 21 -21z m101 4 c5 -18 -10
-16 -34 2 -18 15 -18 15 5 13 14 -2 26 -9 29 -15z m-61 -9 c-3 -3 -12 -4 -19
-1 -8 3 -5 6 6 6 11 1 17 -2 13 -5z m132 -5 l31 -11 0 -94 c0 -52 -2 -94 -5
-94 -2 0 -23 7 -45 16 l-40 16 0 89 c0 97 1 98 59 78z m-2969 -60 c0 -6 9 -8
21 -4 15 5 20 3 17 -6 -5 -16 -59 -24 -97 -14 -23 6 -24 8 -8 16 9 6 22 7 27
4 6 -3 10 -1 10 4 0 6 7 11 15 11 8 0 15 -5 15 -11z m2605 1 c3 -5 15 -10 26
-10 10 0 19 -4 19 -10 0 -15 -21 -11 -60 10 -29 16 -31 19 -13 20 12 0 25 -4
28 -10z m-3341 -15 c-4 -8 -8 -15 -10 -15 -2 0 -4 7 -4 15 0 8 4 15 10 15 5 0
7 -7 4 -15z m-369 -5 c-3 -5 -13 -10 -21 -10 -8 0 -12 5 -9 10 3 6 13 10 21
10 8 0 12 -4 9 -10z m-1345 -20 c0 -18 -6 -20 -52 -19 l-53 0 40 19 c52 24 65
24 65 0z m2670 -5 c0 -8 -9 -15 -20 -15 -13 0 -18 5 -14 15 4 8 12 15 20 15 8
0 14 -7 14 -15z m-1335 -5 c3 -5 -1 -10 -9 -10 -9 0 -16 5 -16 10 0 6 4 10 9
10 6 0 13 -4 16 -10z m165 0 c0 -6 -30 -10 -70 -10 -40 0 -70 4 -70 10 0 6 30
10 70 10 40 0 70 -4 70 -10z m70 0 c0 -5 -9 -10 -21 -10 -11 0 -17 5 -14 10 3
6 13 10 21 10 8 0 14 -4 14 -10z m775 0 c4 -7 -102 -10 -312 -9 -187 0 -310 4
-298 9 29 12 602 12 610 0z m198 3 c-7 -2 -19 -2 -25 0 -7 3 -2 5 12 5 14 0
19 -2 13 -5z m67 -3 c0 -5 -12 -10 -26 -10 -14 0 -23 4 -19 10 3 6 15 10 26
10 10 0 19 -4 19 -10z m2579 1 c30 -19 4 -27 -34 -10 -40 17 -40 18 -10 18 17
0 36 -3 44 -8z m-2716 -8 c-7 -2 -21 -2 -30 0 -10 3 -4 5 12 5 17 0 24 -2 18
-5z m231 -8 c-4 -8 -8 -15 -10 -15 -2 0 -4 7 -4 15 0 8 4 15 10 15 5 0 7 -7 4
-15z m2492 -25 c2 0 4 -13 4 -30 0 -28 -2 -30 -40 -30 l-40 0 0 45 0 45 36
-15 c20 -8 38 -15 40 -15z m92 0 c34 -14 62 -31 62 -38 0 -9 -7 -11 -22 -6
-47 14 -112 50 -116 63 -2 7 -1 12 4 10 5 -2 37 -15 72 -29z m-3988 -21 c0
-41 15 -65 44 -73 22 -5 23 -10 19 -53 -4 -35 -13 -56 -34 -78 -16 -17 -29
-37 -29 -44 0 -12 -177 -231 -186 -231 -2 0 -4 115 -4 255 l0 255 95 0 95 0 0
-31z m30 6 c0 -14 -4 -25 -10 -25 -5 0 -10 11 -10 25 0 14 5 25 10 25 6 0 10
-11 10 -25z m138 7 c-4 -24 -58 -30 -58 -6 0 13 -3 14 -14 5 -7 -6 -21 -9 -30
-5 -33 13 -14 22 45 23 52 0 60 -2 57 -17z m82 13 c0 -17 -33 -66 -50 -75 -10
-6 -48 -13 -82 -16 -54 -5 -67 -3 -88 14 l-24 19 77 -5 c83 -5 119 8 132 48 5
17 35 30 35 15z m800 -64 c0 -60 -2 -69 -20 -74 -19 -5 -20 -14 -20 -202 0
-188 1 -197 20 -202 17 -4 20 -14 20 -54 0 -59 21 -113 48 -128 12 -6 47 -11
79 -11 66 0 116 24 135 65 7 16 19 25 34 25 13 0 39 8 59 18 34 16 36 19 30
55 -5 37 -5 37 30 37 l35 0 0 -165 c0 -103 4 -165 10 -165 6 0 10 -7 10 -15 0
-13 -68 -15 -550 -15 l-550 0 0 450 0 450 315 0 315 0 0 -69z m70 50 c0 -10
-7 -35 -15 -55 -8 -20 -15 -38 -15 -41 0 -22 -1 -25 -10 -20 -5 3 -10 35 -10
71 0 62 1 64 25 64 18 0 25 -5 25 -19z m35 -11 c0 -13 -6 -25 -12 -27 -9 -3
-13 6 -13 27 0 21 4 30 13 28 6 -3 12 -15 12 -28z m115 -15 c0 -25 -4 -45 -9
-45 -5 0 -11 20 -13 45 -2 31 1 45 9 45 9 0 13 -16 13 -45z m40 -29 c0 -79 -5
-86 -55 -86 -49 0 -55 8 -55 76 0 50 3 64 15 64 9 0 15 -9 15 -24 0 -37 10
-56 31 -56 16 0 19 8 19 50 0 38 4 50 15 50 12 0 15 -15 15 -74z m-977 57
c-13 -2 -33 -2 -45 0 -13 2 -3 4 22 4 25 0 35 -2 23 -4z m857 -19 c0 -14 -4
-23 -10 -19 -5 3 -10 15 -10 26 0 10 5 19 10 19 6 0 10 -12 10 -26z m2780 -9
l45 -24 -52 -1 c-50 0 -53 1 -53 25 0 30 3 30 60 0z m-3857 -12 c-7 -2 -19 -2
-25 0 -7 3 -2 5 12 5 14 0 19 -2 13 -5z m4002 -7 c31 -13 35 -19 35 -50 l0
-36 -120 0 -120 0 0 35 0 35 75 0 c60 0 75 3 75 15 0 19 11 19 55 1z m-2937
-118 l3 -108 -36 0 -35 0 0 103 c0 57 3 107 7 111 4 4 19 6 33 4 25 -3 25 -4
28 -110z m2722 93 c0 -5 -18 -11 -40 -13 -28 -2 -40 0 -40 9 0 8 14 13 40 13
22 0 40 -4 40 -9z m-1028 -73 c-5 -71 -10 -77 -11 -15 0 31 2 57 7 57 4 0 6
-19 4 -42z m76 35 c-10 -2 -26 -2 -35 0 -10 3 -2 5 17 5 19 0 27 -2 18 -5z
m117 -23 c-7 -11 -80 -8 -92 3 -3 4 17 7 46 7 34 0 50 -4 46 -10z m32 -42 c-3
-7 -5 -2 -5 12 0 14 2 19 5 13 2 -7 2 -19 0 -25z m1053 -83 l0 -103 -114 -1
-115 -2 -3 108 -3 108 118 -3 117 -3 0 -104z m95 95 c3 -5 3 -68 -1 -140 l-7
-130 -52 0 c-50 0 -52 1 -47 25 2 14 8 25 13 25 5 0 9 52 9 115 l0 115 39 0
c22 0 43 -4 46 -10z m-3035 -45 c0 -25 -4 -45 -10 -45 -5 0 -10 20 -10 45 0
25 5 45 10 45 6 0 10 -20 10 -45z m60 -5 c0 -43 -3 -50 -20 -50 -17 0 -20 7
-20 50 0 43 3 50 20 50 17 0 20 -7 20 -50z m1760 40 c0 -5 -9 -10 -20 -10 -11
0 -20 5 -20 10 0 6 9 10 20 10 11 0 20 -4 20 -10z m173 -40 c8 0 68 -37 133
-83 l119 -82 3 -98 c2 -57 -1 -97 -7 -97 -5 0 -23 12 -40 26 -28 23 -31 31
-31 84 l0 58 -107 79 c-59 43 -110 80 -114 83 -13 9 -15 55 -1 53 6 -2 12 3
13 10 0 6 4 2 9 -10 5 -13 16 -23 23 -23z m-2132 18 c1 -14 0 -61 -1 -155 -2
-55 -4 -63 -21 -63 -21 0 -20 -4 -20 145 0 41 0 77 1 80 1 11 40 4 41 -7z
m2799 -57 c0 -33 -4 -62 -8 -65 -18 -11 -28 12 -29 67 -1 50 1 57 18 57 17 0
19 -8 19 -59z m-2580 -108 c0 -34 -4 -64 -9 -67 -5 -4 -38 -8 -73 -9 l-63 -4
-3 -42 c-3 -37 -6 -42 -25 -39 -21 3 -22 8 -25 113 l-3 110 101 0 100 0 0 -62z
m1698 60 l-117 -4 -4 -52 -3 -52 -2 58 -2 57 123 -2 122 -2 -117 -3z m-81 -19
c-3 -3 -12 -4 -19 -1 -8 3 -5 6 6 6 11 1 17 -2 13 -5z m158 -4 c-3 -5 -24 -10
-45 -10 -21 0 -42 5 -45 10 -4 6 13 10 45 10 32 0 49 -4 45 -10z m-1725 -19
c0 -5 -8 -26 -17 -47 -17 -38 -17 -38 -21 -12 -3 29 13 68 28 68 6 0 10 -4 10
-9z m1757 -28 c-3 -10 -5 -4 -5 12 0 17 2 24 5 18 2 -7 2 -21 0 -30z m-67 2
c0 -8 -9 -15 -20 -15 -11 0 -20 7 -20 15 0 8 9 15 20 15 11 0 20 -7 20 -15z
m145 -15 c-3 -5 9 -17 27 -26 18 -9 62 -41 98 -70 64 -51 66 -54 62 -93 l-4
-40 -102 86 c-103 88 -128 125 -98 143 22 12 25 12 17 0z m887 -25 c5 -25 5
-25 -68 -25 -72 0 -74 1 -74 25 0 24 2 25 69 25 65 0 69 -1 73 -25z m58 7 c0
-11 -8 -18 -20 -19 -14 -1 -20 4 -20 18 0 12 7 19 20 19 13 0 20 -7 20 -18z
m-3048 -67 c-3 -38 -7 -45 -26 -45 -21 0 -23 12 -17 78 0 6 11 12 24 12 20 0
22 -4 19 -45z m206 -126 c-15 -10 -109 -12 -132 -3 -20 8 -21 54 -2 54 10 0
12 11 9 45 l-5 44 68 3 69 3 3 -69 c2 -49 -1 -72 -10 -77z m1710 104 l-117 -4
-4 -57 -3 -57 -2 63 -2 62 123 -2 122 -2 -117 -3z m82 -22 c0 -14 -21 -19 -60
-13 -60 8 -58 22 3 22 31 0 57 -4 57 -9z m27 -53 c-3 -7 -5 -2 -5 12 0 14 2
19 5 13 2 -7 2 -19 0 -25z m-1977 13 c0 -6 -4 -13 -10 -16 -5 -3 -10 -26 -10
-51 0 -32 -4 -44 -15 -44 -18 0 -21 70 -5 101 11 19 40 27 40 10z m1910 -6 c0
-8 -9 -15 -20 -15 -11 0 -20 7 -20 15 0 8 9 15 20 15 11 0 20 -7 20 -15z m430
-146 c0 -54 -2 -99 -5 -99 -3 0 -21 14 -40 32 l-35 31 0 99 0 100 40 -32 40
-32 0 -99z m-2145 76 c-21 -43 -36 -61 -61 -71 -58 -24 -174 -14 -174 15 0 4
33 6 73 3 93 -6 111 4 143 75 18 42 27 54 36 45 8 -8 4 -26 -17 -67z m1869 51
c-3 -8 7 -21 24 -32 16 -11 57 -44 91 -75 58 -53 61 -58 61 -103 l0 -48 -102
97 c-57 53 -106 106 -109 118 -7 26 0 49 12 41 5 -3 9 0 9 5 0 6 4 11 10 11 5
0 7 -6 4 -14z m-2036 -47 c-15 -10 -38 0 -38 16 0 10 5 11 24 2 15 -7 20 -14
14 -18z m132 3 c0 -15 -34 -37 -55 -36 -40 2 -45 4 -45 19 0 23 60 20 61 -2 0
-14 2 -13 9 5 9 21 30 31 30 14z m87 2 c-3 -3 -12 -4 -19 -1 -8 3 -5 6 6 6 11
1 17 -2 13 -5z m-187 -44 c10 -6 2 -7 -25 -3 -49 7 -58 13 -19 13 16 0 36 -5
44 -10z"/>
<path d="M1550 4265 c0 -10 7 -15 18 -13 21 4 19 22 -2 26 -10 2 -16 -3 -16
-13z"/>
<path d="M1557 4113 c-12 -11 -8 -23 8 -23 8 0 15 7 15 15 0 16 -12 20 -23 8z"/>
<path d="M6118 4222 l-38 -3 0 -85 0 -84 90 0 91 0 -3 88 -3 87 -50 0 c-27 0
-67 -1 -87 -3z"/>
<path d="M1552 3708 c5 -15 28 -18 29 -3 0 6 -7 12 -17 13 -10 3 -15 -1 -12
-10z"/>
<path d="M1550 3545 c0 -8 7 -15 15 -15 8 0 15 7 15 15 0 8 -7 15 -15 15 -8 0
-15 -7 -15 -15z"/>
<path d="M305 3129 c-4 -11 -21 -29 -38 -40 -18 -10 -26 -19 -19 -19 16 0 72
54 72 69 0 18 -8 13 -15 -10z"/>
<path d="M321 2784 c0 -11 3 -14 6 -6 3 7 2 16 -1 19 -3 4 -6 -2 -5 -13z"/>
<path d="M292 2721 l-24 -36 27 26 c15 15 26 31 24 37 -2 5 -14 -7 -27 -27z"/>
<path d="M5943 2853 c15 -2 37 -2 50 0 12 2 0 4 -28 4 -27 0 -38 -2 -22 -4z"/>
<path d="M6078 2853 c6 -2 18 -2 25 0 6 3 1 5 -13 5 -14 0 -19 -2 -12 -5z"/>
</g>
</svg>
